%TF.GenerationSoftware,KiCad,Pcbnew,6.0.11-2627ca5db0~126~ubuntu22.04.1*%
%TF.CreationDate,2023-10-21T17:05:46+02:00*%
%TF.ProjectId,CC_LED_Driver,43435f4c-4544-45f4-9472-697665722e6b,rev?*%
%TF.SameCoordinates,Original*%
%TF.FileFunction,Drillmap*%
%TF.FilePolarity,Positive*%
%FSLAX45Y45*%
G04 Gerber Fmt 4.5, Leading zero omitted, Abs format (unit mm)*
G04 Created by KiCad (PCBNEW 6.0.11-2627ca5db0~126~ubuntu22.04.1) date 2023-10-21 17:05:46*
%MOMM*%
%LPD*%
G01*
G04 APERTURE LIST*
%ADD10C,0.100000*%
%ADD11C,0.200000*%
%ADD12C,0.040000*%
G04 APERTURE END LIST*
D10*
X11250000Y-14600000D02*
X10250000Y-6100000D01*
X12625000Y-6425000D02*
G75*
G03*
X12625000Y-6425000I-175000J0D01*
G01*
X14850000Y-6100000D02*
X10250000Y-6100000D01*
X13650000Y-14600000D02*
X14850000Y-6100000D01*
X12625000Y-14275000D02*
G75*
G03*
X12625000Y-14275000I-175000J0D01*
G01*
X11250000Y-14600000D02*
X13650000Y-14600000D01*
D11*
D12*
X12430000Y-13655000D02*
X12470000Y-13695000D01*
X12470000Y-13655000D02*
X12430000Y-13695000D01*
X12880000Y-14255000D02*
X12920000Y-14295000D01*
X12920000Y-14255000D02*
X12880000Y-14295000D01*
X13155000Y-14255000D02*
X13195000Y-14295000D01*
X13195000Y-14255000D02*
X13155000Y-14295000D01*
X13430000Y-14255000D02*
X13470000Y-14295000D01*
X13470000Y-14255000D02*
X13430000Y-14295000D01*
D10*
X11497500Y-7212500D02*
G75*
G03*
X11497500Y-7212500I-50000J0D01*
G01*
X11498500Y-13487500D02*
G75*
G03*
X11498500Y-13487500I-50000J0D01*
G01*
X11751500Y-7212500D02*
G75*
G03*
X11751500Y-7212500I-50000J0D01*
G01*
X11752500Y-13487500D02*
G75*
G03*
X11752500Y-13487500I-50000J0D01*
G01*
X13610000Y-7152500D02*
G75*
G03*
X13610000Y-7152500I-50000J0D01*
G01*
X13610000Y-7406500D02*
G75*
G03*
X13610000Y-7406500I-50000J0D01*
G01*
X13610000Y-9942500D02*
G75*
G03*
X13610000Y-9942500I-50000J0D01*
G01*
X13610000Y-10196500D02*
G75*
G03*
X13610000Y-10196500I-50000J0D01*
G01*
X13610000Y-11202500D02*
G75*
G03*
X13610000Y-11202500I-50000J0D01*
G01*
X13610000Y-11456500D02*
G75*
G03*
X13610000Y-11456500I-50000J0D01*
G01*
D11*
X10502619Y-14915476D02*
X10502619Y-14715476D01*
X10550238Y-14715476D01*
X10578810Y-14725000D01*
X10597857Y-14744048D01*
X10607381Y-14763095D01*
X10616905Y-14801190D01*
X10616905Y-14829762D01*
X10607381Y-14867857D01*
X10597857Y-14886905D01*
X10578810Y-14905952D01*
X10550238Y-14915476D01*
X10502619Y-14915476D01*
X10702619Y-14915476D02*
X10702619Y-14782143D01*
X10702619Y-14820238D02*
X10712143Y-14801190D01*
X10721667Y-14791667D01*
X10740714Y-14782143D01*
X10759762Y-14782143D01*
X10826429Y-14915476D02*
X10826429Y-14782143D01*
X10826429Y-14715476D02*
X10816905Y-14725000D01*
X10826429Y-14734524D01*
X10835952Y-14725000D01*
X10826429Y-14715476D01*
X10826429Y-14734524D01*
X10950238Y-14915476D02*
X10931190Y-14905952D01*
X10921667Y-14886905D01*
X10921667Y-14715476D01*
X11055000Y-14915476D02*
X11035952Y-14905952D01*
X11026429Y-14886905D01*
X11026429Y-14715476D01*
X11283571Y-14915476D02*
X11283571Y-14715476D01*
X11350238Y-14858333D01*
X11416905Y-14715476D01*
X11416905Y-14915476D01*
X11597857Y-14915476D02*
X11597857Y-14810714D01*
X11588333Y-14791667D01*
X11569286Y-14782143D01*
X11531190Y-14782143D01*
X11512143Y-14791667D01*
X11597857Y-14905952D02*
X11578809Y-14915476D01*
X11531190Y-14915476D01*
X11512143Y-14905952D01*
X11502619Y-14886905D01*
X11502619Y-14867857D01*
X11512143Y-14848809D01*
X11531190Y-14839286D01*
X11578809Y-14839286D01*
X11597857Y-14829762D01*
X11693095Y-14782143D02*
X11693095Y-14982143D01*
X11693095Y-14791667D02*
X11712143Y-14782143D01*
X11750238Y-14782143D01*
X11769286Y-14791667D01*
X11778809Y-14801190D01*
X11788333Y-14820238D01*
X11788333Y-14877381D01*
X11778809Y-14896428D01*
X11769286Y-14905952D01*
X11750238Y-14915476D01*
X11712143Y-14915476D01*
X11693095Y-14905952D01*
X11874048Y-14896428D02*
X11883571Y-14905952D01*
X11874048Y-14915476D01*
X11864524Y-14905952D01*
X11874048Y-14896428D01*
X11874048Y-14915476D01*
X11874048Y-14791667D02*
X11883571Y-14801190D01*
X11874048Y-14810714D01*
X11864524Y-14801190D01*
X11874048Y-14791667D01*
X11874048Y-14810714D01*
D12*
X10205000Y-15225000D02*
X10245000Y-15265000D01*
X10245000Y-15225000D02*
X10205000Y-15265000D01*
D11*
X10540714Y-15135476D02*
X10559762Y-15135476D01*
X10578810Y-15145000D01*
X10588333Y-15154524D01*
X10597857Y-15173571D01*
X10607381Y-15211667D01*
X10607381Y-15259286D01*
X10597857Y-15297381D01*
X10588333Y-15316428D01*
X10578810Y-15325952D01*
X10559762Y-15335476D01*
X10540714Y-15335476D01*
X10521667Y-15325952D01*
X10512143Y-15316428D01*
X10502619Y-15297381D01*
X10493095Y-15259286D01*
X10493095Y-15211667D01*
X10502619Y-15173571D01*
X10512143Y-15154524D01*
X10521667Y-15145000D01*
X10540714Y-15135476D01*
X10693095Y-15316428D02*
X10702619Y-15325952D01*
X10693095Y-15335476D01*
X10683571Y-15325952D01*
X10693095Y-15316428D01*
X10693095Y-15335476D01*
X10874048Y-15202143D02*
X10874048Y-15335476D01*
X10826429Y-15125952D02*
X10778810Y-15268809D01*
X10902619Y-15268809D01*
X11016905Y-15135476D02*
X11035952Y-15135476D01*
X11055000Y-15145000D01*
X11064524Y-15154524D01*
X11074048Y-15173571D01*
X11083571Y-15211667D01*
X11083571Y-15259286D01*
X11074048Y-15297381D01*
X11064524Y-15316428D01*
X11055000Y-15325952D01*
X11035952Y-15335476D01*
X11016905Y-15335476D01*
X10997857Y-15325952D01*
X10988333Y-15316428D01*
X10978810Y-15297381D01*
X10969286Y-15259286D01*
X10969286Y-15211667D01*
X10978810Y-15173571D01*
X10988333Y-15154524D01*
X10997857Y-15145000D01*
X11016905Y-15135476D01*
X11207381Y-15135476D02*
X11226428Y-15135476D01*
X11245476Y-15145000D01*
X11255000Y-15154524D01*
X11264524Y-15173571D01*
X11274048Y-15211667D01*
X11274048Y-15259286D01*
X11264524Y-15297381D01*
X11255000Y-15316428D01*
X11245476Y-15325952D01*
X11226428Y-15335476D01*
X11207381Y-15335476D01*
X11188333Y-15325952D01*
X11178810Y-15316428D01*
X11169286Y-15297381D01*
X11159762Y-15259286D01*
X11159762Y-15211667D01*
X11169286Y-15173571D01*
X11178810Y-15154524D01*
X11188333Y-15145000D01*
X11207381Y-15135476D01*
X11359762Y-15335476D02*
X11359762Y-15202143D01*
X11359762Y-15221190D02*
X11369286Y-15211667D01*
X11388333Y-15202143D01*
X11416905Y-15202143D01*
X11435952Y-15211667D01*
X11445476Y-15230714D01*
X11445476Y-15335476D01*
X11445476Y-15230714D02*
X11455000Y-15211667D01*
X11474048Y-15202143D01*
X11502619Y-15202143D01*
X11521667Y-15211667D01*
X11531190Y-15230714D01*
X11531190Y-15335476D01*
X11626428Y-15335476D02*
X11626428Y-15202143D01*
X11626428Y-15221190D02*
X11635952Y-15211667D01*
X11655000Y-15202143D01*
X11683571Y-15202143D01*
X11702619Y-15211667D01*
X11712143Y-15230714D01*
X11712143Y-15335476D01*
X11712143Y-15230714D02*
X11721667Y-15211667D01*
X11740714Y-15202143D01*
X11769286Y-15202143D01*
X11788333Y-15211667D01*
X11797857Y-15230714D01*
X11797857Y-15335476D01*
X12188333Y-15125952D02*
X12016905Y-15383095D01*
X12445476Y-15135476D02*
X12464524Y-15135476D01*
X12483571Y-15145000D01*
X12493095Y-15154524D01*
X12502619Y-15173571D01*
X12512143Y-15211667D01*
X12512143Y-15259286D01*
X12502619Y-15297381D01*
X12493095Y-15316428D01*
X12483571Y-15325952D01*
X12464524Y-15335476D01*
X12445476Y-15335476D01*
X12426428Y-15325952D01*
X12416905Y-15316428D01*
X12407381Y-15297381D01*
X12397857Y-15259286D01*
X12397857Y-15211667D01*
X12407381Y-15173571D01*
X12416905Y-15154524D01*
X12426428Y-15145000D01*
X12445476Y-15135476D01*
X12597857Y-15316428D02*
X12607381Y-15325952D01*
X12597857Y-15335476D01*
X12588333Y-15325952D01*
X12597857Y-15316428D01*
X12597857Y-15335476D01*
X12731190Y-15135476D02*
X12750238Y-15135476D01*
X12769286Y-15145000D01*
X12778809Y-15154524D01*
X12788333Y-15173571D01*
X12797857Y-15211667D01*
X12797857Y-15259286D01*
X12788333Y-15297381D01*
X12778809Y-15316428D01*
X12769286Y-15325952D01*
X12750238Y-15335476D01*
X12731190Y-15335476D01*
X12712143Y-15325952D01*
X12702619Y-15316428D01*
X12693095Y-15297381D01*
X12683571Y-15259286D01*
X12683571Y-15211667D01*
X12693095Y-15173571D01*
X12702619Y-15154524D01*
X12712143Y-15145000D01*
X12731190Y-15135476D01*
X12988333Y-15335476D02*
X12874048Y-15335476D01*
X12931190Y-15335476D02*
X12931190Y-15135476D01*
X12912143Y-15164048D01*
X12893095Y-15183095D01*
X12874048Y-15192619D01*
X13169286Y-15135476D02*
X13074048Y-15135476D01*
X13064524Y-15230714D01*
X13074048Y-15221190D01*
X13093095Y-15211667D01*
X13140714Y-15211667D01*
X13159762Y-15221190D01*
X13169286Y-15230714D01*
X13178809Y-15249762D01*
X13178809Y-15297381D01*
X13169286Y-15316428D01*
X13159762Y-15325952D01*
X13140714Y-15335476D01*
X13093095Y-15335476D01*
X13074048Y-15325952D01*
X13064524Y-15316428D01*
X13245476Y-15135476D02*
X13378809Y-15135476D01*
X13293095Y-15335476D01*
X13445476Y-15135476D02*
X13445476Y-15173571D01*
X13521667Y-15135476D02*
X13521667Y-15173571D01*
X13816905Y-15411667D02*
X13807381Y-15402143D01*
X13788333Y-15373571D01*
X13778809Y-15354524D01*
X13769286Y-15325952D01*
X13759762Y-15278333D01*
X13759762Y-15240238D01*
X13769286Y-15192619D01*
X13778809Y-15164048D01*
X13788333Y-15145000D01*
X13807381Y-15116428D01*
X13816905Y-15106905D01*
X13978809Y-15202143D02*
X13978809Y-15335476D01*
X13931190Y-15125952D02*
X13883571Y-15268809D01*
X14007381Y-15268809D01*
X14235952Y-15335476D02*
X14235952Y-15135476D01*
X14321667Y-15335476D02*
X14321667Y-15230714D01*
X14312143Y-15211667D01*
X14293095Y-15202143D01*
X14264524Y-15202143D01*
X14245476Y-15211667D01*
X14235952Y-15221190D01*
X14445476Y-15335476D02*
X14426428Y-15325952D01*
X14416905Y-15316428D01*
X14407381Y-15297381D01*
X14407381Y-15240238D01*
X14416905Y-15221190D01*
X14426428Y-15211667D01*
X14445476Y-15202143D01*
X14474048Y-15202143D01*
X14493095Y-15211667D01*
X14502619Y-15221190D01*
X14512143Y-15240238D01*
X14512143Y-15297381D01*
X14502619Y-15316428D01*
X14493095Y-15325952D01*
X14474048Y-15335476D01*
X14445476Y-15335476D01*
X14626428Y-15335476D02*
X14607381Y-15325952D01*
X14597857Y-15306905D01*
X14597857Y-15135476D01*
X14778809Y-15325952D02*
X14759762Y-15335476D01*
X14721667Y-15335476D01*
X14702619Y-15325952D01*
X14693095Y-15306905D01*
X14693095Y-15230714D01*
X14702619Y-15211667D01*
X14721667Y-15202143D01*
X14759762Y-15202143D01*
X14778809Y-15211667D01*
X14788333Y-15230714D01*
X14788333Y-15249762D01*
X14693095Y-15268809D01*
X14864524Y-15325952D02*
X14883571Y-15335476D01*
X14921667Y-15335476D01*
X14940714Y-15325952D01*
X14950238Y-15306905D01*
X14950238Y-15297381D01*
X14940714Y-15278333D01*
X14921667Y-15268809D01*
X14893095Y-15268809D01*
X14874048Y-15259286D01*
X14864524Y-15240238D01*
X14864524Y-15230714D01*
X14874048Y-15211667D01*
X14893095Y-15202143D01*
X14921667Y-15202143D01*
X14940714Y-15211667D01*
X15016905Y-15411667D02*
X15026428Y-15402143D01*
X15045476Y-15373571D01*
X15055000Y-15354524D01*
X15064524Y-15325952D01*
X15074048Y-15278333D01*
X15074048Y-15240238D01*
X15064524Y-15192619D01*
X15055000Y-15164048D01*
X15045476Y-15145000D01*
X15026428Y-15116428D01*
X15016905Y-15106905D01*
D10*
X10245000Y-15509000D02*
G75*
G03*
X10245000Y-15509000I-50000J0D01*
G01*
D11*
X10607381Y-15599476D02*
X10493095Y-15599476D01*
X10550238Y-15599476D02*
X10550238Y-15399476D01*
X10531190Y-15428048D01*
X10512143Y-15447095D01*
X10493095Y-15456619D01*
X10693095Y-15580428D02*
X10702619Y-15589952D01*
X10693095Y-15599476D01*
X10683571Y-15589952D01*
X10693095Y-15580428D01*
X10693095Y-15599476D01*
X10826429Y-15399476D02*
X10845476Y-15399476D01*
X10864524Y-15409000D01*
X10874048Y-15418524D01*
X10883571Y-15437571D01*
X10893095Y-15475667D01*
X10893095Y-15523286D01*
X10883571Y-15561381D01*
X10874048Y-15580428D01*
X10864524Y-15589952D01*
X10845476Y-15599476D01*
X10826429Y-15599476D01*
X10807381Y-15589952D01*
X10797857Y-15580428D01*
X10788333Y-15561381D01*
X10778810Y-15523286D01*
X10778810Y-15475667D01*
X10788333Y-15437571D01*
X10797857Y-15418524D01*
X10807381Y-15409000D01*
X10826429Y-15399476D01*
X11016905Y-15399476D02*
X11035952Y-15399476D01*
X11055000Y-15409000D01*
X11064524Y-15418524D01*
X11074048Y-15437571D01*
X11083571Y-15475667D01*
X11083571Y-15523286D01*
X11074048Y-15561381D01*
X11064524Y-15580428D01*
X11055000Y-15589952D01*
X11035952Y-15599476D01*
X11016905Y-15599476D01*
X10997857Y-15589952D01*
X10988333Y-15580428D01*
X10978810Y-15561381D01*
X10969286Y-15523286D01*
X10969286Y-15475667D01*
X10978810Y-15437571D01*
X10988333Y-15418524D01*
X10997857Y-15409000D01*
X11016905Y-15399476D01*
X11207381Y-15399476D02*
X11226428Y-15399476D01*
X11245476Y-15409000D01*
X11255000Y-15418524D01*
X11264524Y-15437571D01*
X11274048Y-15475667D01*
X11274048Y-15523286D01*
X11264524Y-15561381D01*
X11255000Y-15580428D01*
X11245476Y-15589952D01*
X11226428Y-15599476D01*
X11207381Y-15599476D01*
X11188333Y-15589952D01*
X11178810Y-15580428D01*
X11169286Y-15561381D01*
X11159762Y-15523286D01*
X11159762Y-15475667D01*
X11169286Y-15437571D01*
X11178810Y-15418524D01*
X11188333Y-15409000D01*
X11207381Y-15399476D01*
X11359762Y-15599476D02*
X11359762Y-15466143D01*
X11359762Y-15485190D02*
X11369286Y-15475667D01*
X11388333Y-15466143D01*
X11416905Y-15466143D01*
X11435952Y-15475667D01*
X11445476Y-15494714D01*
X11445476Y-15599476D01*
X11445476Y-15494714D02*
X11455000Y-15475667D01*
X11474048Y-15466143D01*
X11502619Y-15466143D01*
X11521667Y-15475667D01*
X11531190Y-15494714D01*
X11531190Y-15599476D01*
X11626428Y-15599476D02*
X11626428Y-15466143D01*
X11626428Y-15485190D02*
X11635952Y-15475667D01*
X11655000Y-15466143D01*
X11683571Y-15466143D01*
X11702619Y-15475667D01*
X11712143Y-15494714D01*
X11712143Y-15599476D01*
X11712143Y-15494714D02*
X11721667Y-15475667D01*
X11740714Y-15466143D01*
X11769286Y-15466143D01*
X11788333Y-15475667D01*
X11797857Y-15494714D01*
X11797857Y-15599476D01*
X12188333Y-15389952D02*
X12016905Y-15647095D01*
X12445476Y-15399476D02*
X12464524Y-15399476D01*
X12483571Y-15409000D01*
X12493095Y-15418524D01*
X12502619Y-15437571D01*
X12512143Y-15475667D01*
X12512143Y-15523286D01*
X12502619Y-15561381D01*
X12493095Y-15580428D01*
X12483571Y-15589952D01*
X12464524Y-15599476D01*
X12445476Y-15599476D01*
X12426428Y-15589952D01*
X12416905Y-15580428D01*
X12407381Y-15561381D01*
X12397857Y-15523286D01*
X12397857Y-15475667D01*
X12407381Y-15437571D01*
X12416905Y-15418524D01*
X12426428Y-15409000D01*
X12445476Y-15399476D01*
X12597857Y-15580428D02*
X12607381Y-15589952D01*
X12597857Y-15599476D01*
X12588333Y-15589952D01*
X12597857Y-15580428D01*
X12597857Y-15599476D01*
X12731190Y-15399476D02*
X12750238Y-15399476D01*
X12769286Y-15409000D01*
X12778809Y-15418524D01*
X12788333Y-15437571D01*
X12797857Y-15475667D01*
X12797857Y-15523286D01*
X12788333Y-15561381D01*
X12778809Y-15580428D01*
X12769286Y-15589952D01*
X12750238Y-15599476D01*
X12731190Y-15599476D01*
X12712143Y-15589952D01*
X12702619Y-15580428D01*
X12693095Y-15561381D01*
X12683571Y-15523286D01*
X12683571Y-15475667D01*
X12693095Y-15437571D01*
X12702619Y-15418524D01*
X12712143Y-15409000D01*
X12731190Y-15399476D01*
X12864524Y-15399476D02*
X12988333Y-15399476D01*
X12921667Y-15475667D01*
X12950238Y-15475667D01*
X12969286Y-15485190D01*
X12978809Y-15494714D01*
X12988333Y-15513762D01*
X12988333Y-15561381D01*
X12978809Y-15580428D01*
X12969286Y-15589952D01*
X12950238Y-15599476D01*
X12893095Y-15599476D01*
X12874048Y-15589952D01*
X12864524Y-15580428D01*
X13083571Y-15599476D02*
X13121667Y-15599476D01*
X13140714Y-15589952D01*
X13150238Y-15580428D01*
X13169286Y-15551857D01*
X13178809Y-15513762D01*
X13178809Y-15437571D01*
X13169286Y-15418524D01*
X13159762Y-15409000D01*
X13140714Y-15399476D01*
X13102619Y-15399476D01*
X13083571Y-15409000D01*
X13074048Y-15418524D01*
X13064524Y-15437571D01*
X13064524Y-15485190D01*
X13074048Y-15504238D01*
X13083571Y-15513762D01*
X13102619Y-15523286D01*
X13140714Y-15523286D01*
X13159762Y-15513762D01*
X13169286Y-15504238D01*
X13178809Y-15485190D01*
X13350238Y-15466143D02*
X13350238Y-15599476D01*
X13302619Y-15389952D02*
X13255000Y-15532809D01*
X13378809Y-15532809D01*
X13445476Y-15399476D02*
X13445476Y-15437571D01*
X13521667Y-15399476D02*
X13521667Y-15437571D01*
X13816905Y-15675667D02*
X13807381Y-15666143D01*
X13788333Y-15637571D01*
X13778809Y-15618524D01*
X13769286Y-15589952D01*
X13759762Y-15542333D01*
X13759762Y-15504238D01*
X13769286Y-15456619D01*
X13778809Y-15428048D01*
X13788333Y-15409000D01*
X13807381Y-15380428D01*
X13816905Y-15370905D01*
X13997857Y-15599476D02*
X13883571Y-15599476D01*
X13940714Y-15599476D02*
X13940714Y-15399476D01*
X13921667Y-15428048D01*
X13902619Y-15447095D01*
X13883571Y-15456619D01*
X14121667Y-15399476D02*
X14140714Y-15399476D01*
X14159762Y-15409000D01*
X14169286Y-15418524D01*
X14178809Y-15437571D01*
X14188333Y-15475667D01*
X14188333Y-15523286D01*
X14178809Y-15561381D01*
X14169286Y-15580428D01*
X14159762Y-15589952D01*
X14140714Y-15599476D01*
X14121667Y-15599476D01*
X14102619Y-15589952D01*
X14093095Y-15580428D01*
X14083571Y-15561381D01*
X14074048Y-15523286D01*
X14074048Y-15475667D01*
X14083571Y-15437571D01*
X14093095Y-15418524D01*
X14102619Y-15409000D01*
X14121667Y-15399476D01*
X14426428Y-15599476D02*
X14426428Y-15399476D01*
X14512143Y-15599476D02*
X14512143Y-15494714D01*
X14502619Y-15475667D01*
X14483571Y-15466143D01*
X14455000Y-15466143D01*
X14435952Y-15475667D01*
X14426428Y-15485190D01*
X14635952Y-15599476D02*
X14616905Y-15589952D01*
X14607381Y-15580428D01*
X14597857Y-15561381D01*
X14597857Y-15504238D01*
X14607381Y-15485190D01*
X14616905Y-15475667D01*
X14635952Y-15466143D01*
X14664524Y-15466143D01*
X14683571Y-15475667D01*
X14693095Y-15485190D01*
X14702619Y-15504238D01*
X14702619Y-15561381D01*
X14693095Y-15580428D01*
X14683571Y-15589952D01*
X14664524Y-15599476D01*
X14635952Y-15599476D01*
X14816905Y-15599476D02*
X14797857Y-15589952D01*
X14788333Y-15570905D01*
X14788333Y-15399476D01*
X14969286Y-15589952D02*
X14950238Y-15599476D01*
X14912143Y-15599476D01*
X14893095Y-15589952D01*
X14883571Y-15570905D01*
X14883571Y-15494714D01*
X14893095Y-15475667D01*
X14912143Y-15466143D01*
X14950238Y-15466143D01*
X14969286Y-15475667D01*
X14978809Y-15494714D01*
X14978809Y-15513762D01*
X14883571Y-15532809D01*
X15055000Y-15589952D02*
X15074048Y-15599476D01*
X15112143Y-15599476D01*
X15131190Y-15589952D01*
X15140714Y-15570905D01*
X15140714Y-15561381D01*
X15131190Y-15542333D01*
X15112143Y-15532809D01*
X15083571Y-15532809D01*
X15064524Y-15523286D01*
X15055000Y-15504238D01*
X15055000Y-15494714D01*
X15064524Y-15475667D01*
X15083571Y-15466143D01*
X15112143Y-15466143D01*
X15131190Y-15475667D01*
X15207381Y-15675667D02*
X15216905Y-15666143D01*
X15235952Y-15637571D01*
X15245476Y-15618524D01*
X15255000Y-15589952D01*
X15264524Y-15542333D01*
X15264524Y-15504238D01*
X15255000Y-15456619D01*
X15245476Y-15428048D01*
X15235952Y-15409000D01*
X15216905Y-15380428D01*
X15207381Y-15370905D01*
M02*
