G04 #@! TF.GenerationSoftware,KiCad,Pcbnew,6.0.11-2627ca5db0~126~ubuntu22.04.1*
G04 #@! TF.CreationDate,2023-10-21T17:03:14+02:00*
G04 #@! TF.ProjectId,CC_LED_Driver,43435f4c-4544-45f4-9472-697665722e6b,rev?*
G04 #@! TF.SameCoordinates,Original*
G04 #@! TF.FileFunction,Legend,Top*
G04 #@! TF.FilePolarity,Positive*
%FSLAX46Y46*%
G04 Gerber Fmt 4.6, Leading zero omitted, Abs format (unit mm)*
G04 Created by KiCad (PCBNEW 6.0.11-2627ca5db0~126~ubuntu22.04.1) date 2023-10-21 17:03:14*
%MOMM*%
%LPD*%
G01*
G04 APERTURE LIST*
G04 Aperture macros list*
%AMRoundRect*
0 Rectangle with rounded corners*
0 $1 Rounding radius*
0 $2 $3 $4 $5 $6 $7 $8 $9 X,Y pos of 4 corners*
0 Add a 4 corners polygon primitive as box body*
4,1,4,$2,$3,$4,$5,$6,$7,$8,$9,$2,$3,0*
0 Add four circle primitives for the rounded corners*
1,1,$1+$1,$2,$3*
1,1,$1+$1,$4,$5*
1,1,$1+$1,$6,$7*
1,1,$1+$1,$8,$9*
0 Add four rect primitives between the rounded corners*
20,1,$1+$1,$2,$3,$4,$5,0*
20,1,$1+$1,$4,$5,$6,$7,0*
20,1,$1+$1,$6,$7,$8,$9,0*
20,1,$1+$1,$8,$9,$2,$3,0*%
%AMFreePoly0*
4,1,22,0.500000,-0.750000,0.000000,-0.750000,0.000000,-0.745033,-0.079941,-0.743568,-0.215256,-0.701293,-0.333266,-0.622738,-0.424486,-0.514219,-0.481581,-0.384460,-0.499164,-0.250000,-0.500000,-0.250000,-0.500000,0.250000,-0.499164,0.250000,-0.499963,0.256109,-0.478152,0.396186,-0.417904,0.524511,-0.324060,0.630769,-0.204165,0.706417,-0.067858,0.745374,0.000000,0.744959,0.000000,0.750000,
0.500000,0.750000,0.500000,-0.750000,0.500000,-0.750000,$1*%
%AMFreePoly1*
4,1,20,0.000000,0.744959,0.073905,0.744508,0.209726,0.703889,0.328688,0.626782,0.421226,0.519385,0.479903,0.390333,0.500000,0.250000,0.500000,-0.250000,0.499851,-0.262216,0.476331,-0.402017,0.414519,-0.529596,0.319384,-0.634700,0.198574,-0.708877,0.061801,-0.746166,0.000000,-0.745033,0.000000,-0.750000,-0.500000,-0.750000,-0.500000,0.750000,0.000000,0.750000,0.000000,0.744959,
0.000000,0.744959,$1*%
G04 Aperture macros list end*
%ADD10C,0.150000*%
%ADD11C,0.120000*%
%ADD12C,0.200000*%
%ADD13C,0.127000*%
%ADD14RoundRect,0.250000X-0.625000X0.400000X-0.625000X-0.400000X0.625000X-0.400000X0.625000X0.400000X0*%
%ADD15R,1.700000X1.700000*%
%ADD16O,1.700000X1.700000*%
%ADD17FreePoly0,90.000000*%
%ADD18FreePoly1,90.000000*%
%ADD19R,1.900000X0.800000*%
%ADD20R,2.200000X3.000000*%
%ADD21R,2.200000X2.050000*%
%ADD22RoundRect,0.102000X1.300000X-0.750000X1.300000X0.750000X-1.300000X0.750000X-1.300000X-0.750000X0*%
%ADD23R,1.200000X1.000000*%
G04 APERTURE END LIST*
D10*
X110802142Y-100178571D02*
X110849761Y-100226190D01*
X110897380Y-100369047D01*
X110897380Y-100464285D01*
X110849761Y-100607142D01*
X110754523Y-100702380D01*
X110659285Y-100750000D01*
X110468809Y-100797619D01*
X110325952Y-100797619D01*
X110135476Y-100750000D01*
X110040238Y-100702380D01*
X109945000Y-100607142D01*
X109897380Y-100464285D01*
X109897380Y-100369047D01*
X109945000Y-100226190D01*
X109992619Y-100178571D01*
X110897380Y-99607142D02*
X110849761Y-99702380D01*
X110802142Y-99750000D01*
X110706904Y-99797619D01*
X110421190Y-99797619D01*
X110325952Y-99750000D01*
X110278333Y-99702380D01*
X110230714Y-99607142D01*
X110230714Y-99464285D01*
X110278333Y-99369047D01*
X110325952Y-99321428D01*
X110421190Y-99273809D01*
X110706904Y-99273809D01*
X110802142Y-99321428D01*
X110849761Y-99369047D01*
X110897380Y-99464285D01*
X110897380Y-99607142D01*
X110230714Y-98845238D02*
X110897380Y-98845238D01*
X110325952Y-98845238D02*
X110278333Y-98797619D01*
X110230714Y-98702380D01*
X110230714Y-98559523D01*
X110278333Y-98464285D01*
X110373571Y-98416666D01*
X110897380Y-98416666D01*
X110849761Y-97988095D02*
X110897380Y-97892857D01*
X110897380Y-97702380D01*
X110849761Y-97607142D01*
X110754523Y-97559523D01*
X110706904Y-97559523D01*
X110611666Y-97607142D01*
X110564047Y-97702380D01*
X110564047Y-97845238D01*
X110516428Y-97940476D01*
X110421190Y-97988095D01*
X110373571Y-97988095D01*
X110278333Y-97940476D01*
X110230714Y-97845238D01*
X110230714Y-97702380D01*
X110278333Y-97607142D01*
X110230714Y-97273809D02*
X110230714Y-96892857D01*
X109897380Y-97130952D02*
X110754523Y-97130952D01*
X110849761Y-97083333D01*
X110897380Y-96988095D01*
X110897380Y-96892857D01*
X110802142Y-96559523D02*
X110849761Y-96511904D01*
X110897380Y-96559523D01*
X110849761Y-96607142D01*
X110802142Y-96559523D01*
X110897380Y-96559523D01*
X110802142Y-94750000D02*
X110849761Y-94797619D01*
X110897380Y-94940476D01*
X110897380Y-95035714D01*
X110849761Y-95178571D01*
X110754523Y-95273809D01*
X110659285Y-95321428D01*
X110468809Y-95369047D01*
X110325952Y-95369047D01*
X110135476Y-95321428D01*
X110040238Y-95273809D01*
X109945000Y-95178571D01*
X109897380Y-95035714D01*
X109897380Y-94940476D01*
X109945000Y-94797619D01*
X109992619Y-94750000D01*
X110230714Y-93892857D02*
X110897380Y-93892857D01*
X110230714Y-94321428D02*
X110754523Y-94321428D01*
X110849761Y-94273809D01*
X110897380Y-94178571D01*
X110897380Y-94035714D01*
X110849761Y-93940476D01*
X110802142Y-93892857D01*
X110897380Y-93416666D02*
X110230714Y-93416666D01*
X110421190Y-93416666D02*
X110325952Y-93369047D01*
X110278333Y-93321428D01*
X110230714Y-93226190D01*
X110230714Y-93130952D01*
X110897380Y-92797619D02*
X110230714Y-92797619D01*
X110421190Y-92797619D02*
X110325952Y-92750000D01*
X110278333Y-92702380D01*
X110230714Y-92607142D01*
X110230714Y-92511904D01*
X110849761Y-91797619D02*
X110897380Y-91892857D01*
X110897380Y-92083333D01*
X110849761Y-92178571D01*
X110754523Y-92226190D01*
X110373571Y-92226190D01*
X110278333Y-92178571D01*
X110230714Y-92083333D01*
X110230714Y-91892857D01*
X110278333Y-91797619D01*
X110373571Y-91750000D01*
X110468809Y-91750000D01*
X110564047Y-92226190D01*
X110230714Y-91321428D02*
X110897380Y-91321428D01*
X110325952Y-91321428D02*
X110278333Y-91273809D01*
X110230714Y-91178571D01*
X110230714Y-91035714D01*
X110278333Y-90940476D01*
X110373571Y-90892857D01*
X110897380Y-90892857D01*
X110230714Y-90559523D02*
X110230714Y-90178571D01*
X109897380Y-90416666D02*
X110754523Y-90416666D01*
X110849761Y-90369047D01*
X110897380Y-90273809D01*
X110897380Y-90178571D01*
X110897380Y-88607142D02*
X110897380Y-89083333D01*
X109897380Y-89083333D01*
X110373571Y-88273809D02*
X110373571Y-87940476D01*
X110897380Y-87797619D02*
X110897380Y-88273809D01*
X109897380Y-88273809D01*
X109897380Y-87797619D01*
X110897380Y-87369047D02*
X109897380Y-87369047D01*
X109897380Y-87130952D01*
X109945000Y-86988095D01*
X110040238Y-86892857D01*
X110135476Y-86845238D01*
X110325952Y-86797619D01*
X110468809Y-86797619D01*
X110659285Y-86845238D01*
X110754523Y-86892857D01*
X110849761Y-86988095D01*
X110897380Y-87130952D01*
X110897380Y-87369047D01*
X110897380Y-85607142D02*
X109897380Y-85607142D01*
X109897380Y-85369047D01*
X109945000Y-85226190D01*
X110040238Y-85130952D01*
X110135476Y-85083333D01*
X110325952Y-85035714D01*
X110468809Y-85035714D01*
X110659285Y-85083333D01*
X110754523Y-85130952D01*
X110849761Y-85226190D01*
X110897380Y-85369047D01*
X110897380Y-85607142D01*
X110897380Y-84607142D02*
X110230714Y-84607142D01*
X110421190Y-84607142D02*
X110325952Y-84559523D01*
X110278333Y-84511904D01*
X110230714Y-84416666D01*
X110230714Y-84321428D01*
X110897380Y-83988095D02*
X110230714Y-83988095D01*
X109897380Y-83988095D02*
X109945000Y-84035714D01*
X109992619Y-83988095D01*
X109945000Y-83940476D01*
X109897380Y-83988095D01*
X109992619Y-83988095D01*
X110230714Y-83607142D02*
X110897380Y-83369047D01*
X110230714Y-83130952D01*
X110849761Y-82369047D02*
X110897380Y-82464285D01*
X110897380Y-82654761D01*
X110849761Y-82750000D01*
X110754523Y-82797619D01*
X110373571Y-82797619D01*
X110278333Y-82750000D01*
X110230714Y-82654761D01*
X110230714Y-82464285D01*
X110278333Y-82369047D01*
X110373571Y-82321428D01*
X110468809Y-82321428D01*
X110564047Y-82797619D01*
X110897380Y-81892857D02*
X110230714Y-81892857D01*
X110421190Y-81892857D02*
X110325952Y-81845238D01*
X110278333Y-81797619D01*
X110230714Y-81702380D01*
X110230714Y-81607142D01*
X112507380Y-93559523D02*
X112031190Y-93892857D01*
X112507380Y-94130952D02*
X111507380Y-94130952D01*
X111507380Y-93750000D01*
X111555000Y-93654761D01*
X111602619Y-93607142D01*
X111697857Y-93559523D01*
X111840714Y-93559523D01*
X111935952Y-93607142D01*
X111983571Y-93654761D01*
X112031190Y-93750000D01*
X112031190Y-94130952D01*
X112459761Y-92750000D02*
X112507380Y-92845238D01*
X112507380Y-93035714D01*
X112459761Y-93130952D01*
X112364523Y-93178571D01*
X111983571Y-93178571D01*
X111888333Y-93130952D01*
X111840714Y-93035714D01*
X111840714Y-92845238D01*
X111888333Y-92750000D01*
X111983571Y-92702380D01*
X112078809Y-92702380D01*
X112174047Y-93178571D01*
X111840714Y-92369047D02*
X112507380Y-92130952D01*
X111840714Y-91892857D01*
X112412142Y-91511904D02*
X112459761Y-91464285D01*
X112507380Y-91511904D01*
X112459761Y-91559523D01*
X112412142Y-91511904D01*
X112507380Y-91511904D01*
X111507380Y-90083333D02*
X111507380Y-89988095D01*
X111555000Y-89892857D01*
X111602619Y-89845238D01*
X111697857Y-89797619D01*
X111888333Y-89750000D01*
X112126428Y-89750000D01*
X112316904Y-89797619D01*
X112412142Y-89845238D01*
X112459761Y-89892857D01*
X112507380Y-89988095D01*
X112507380Y-90083333D01*
X112459761Y-90178571D01*
X112412142Y-90226190D01*
X112316904Y-90273809D01*
X112126428Y-90321428D01*
X111888333Y-90321428D01*
X111697857Y-90273809D01*
X111602619Y-90226190D01*
X111555000Y-90178571D01*
X111507380Y-90083333D01*
X112412142Y-89321428D02*
X112459761Y-89273809D01*
X112507380Y-89321428D01*
X112459761Y-89369047D01*
X112412142Y-89321428D01*
X112507380Y-89321428D01*
X112507380Y-88321428D02*
X112507380Y-88892857D01*
X112507380Y-88607142D02*
X111507380Y-88607142D01*
X111650238Y-88702380D01*
X111745476Y-88797619D01*
X111793095Y-88892857D01*
X117907619Y-129809523D02*
X116907619Y-130142857D01*
X117907619Y-130476190D01*
X116955238Y-131238095D02*
X116907619Y-131142857D01*
X116907619Y-130952380D01*
X116955238Y-130857142D01*
X117002857Y-130809523D01*
X117098095Y-130761904D01*
X117383809Y-130761904D01*
X117479047Y-130809523D01*
X117526666Y-130857142D01*
X117574285Y-130952380D01*
X117574285Y-131142857D01*
X117526666Y-131238095D01*
X116955238Y-132095238D02*
X116907619Y-132000000D01*
X116907619Y-131809523D01*
X116955238Y-131714285D01*
X117002857Y-131666666D01*
X117098095Y-131619047D01*
X117383809Y-131619047D01*
X117479047Y-131666666D01*
X117526666Y-131714285D01*
X117574285Y-131809523D01*
X117574285Y-132000000D01*
X117526666Y-132095238D01*
X114640000Y-130238095D02*
X114687619Y-130142857D01*
X114687619Y-130000000D01*
X114640000Y-129857142D01*
X114544761Y-129761904D01*
X114449523Y-129714285D01*
X114259047Y-129666666D01*
X114116190Y-129666666D01*
X113925714Y-129714285D01*
X113830476Y-129761904D01*
X113735238Y-129857142D01*
X113687619Y-130000000D01*
X113687619Y-130095238D01*
X113735238Y-130238095D01*
X113782857Y-130285714D01*
X114116190Y-130285714D01*
X114116190Y-130095238D01*
X113687619Y-130714285D02*
X114687619Y-130714285D01*
X113687619Y-131285714D01*
X114687619Y-131285714D01*
X113687619Y-131761904D02*
X114687619Y-131761904D01*
X114687619Y-132000000D01*
X114640000Y-132142857D01*
X114544761Y-132238095D01*
X114449523Y-132285714D01*
X114259047Y-132333333D01*
X114116190Y-132333333D01*
X113925714Y-132285714D01*
X113830476Y-132238095D01*
X113735238Y-132142857D01*
X113687619Y-132000000D01*
X113687619Y-131761904D01*
X139357142Y-76942857D02*
X139404761Y-76990476D01*
X139452380Y-77133333D01*
X139452380Y-77228571D01*
X139404761Y-77371428D01*
X139309523Y-77466666D01*
X139214285Y-77514285D01*
X139023809Y-77561904D01*
X138880952Y-77561904D01*
X138690476Y-77514285D01*
X138595238Y-77466666D01*
X138500000Y-77371428D01*
X138452380Y-77228571D01*
X138452380Y-77133333D01*
X138500000Y-76990476D01*
X138547619Y-76942857D01*
X138785714Y-76085714D02*
X139452380Y-76085714D01*
X138785714Y-76514285D02*
X139309523Y-76514285D01*
X139404761Y-76466666D01*
X139452380Y-76371428D01*
X139452380Y-76228571D01*
X139404761Y-76133333D01*
X139357142Y-76085714D01*
X139452380Y-75609523D02*
X138785714Y-75609523D01*
X138976190Y-75609523D02*
X138880952Y-75561904D01*
X138833333Y-75514285D01*
X138785714Y-75419047D01*
X138785714Y-75323809D01*
X139452380Y-74990476D02*
X138785714Y-74990476D01*
X138976190Y-74990476D02*
X138880952Y-74942857D01*
X138833333Y-74895238D01*
X138785714Y-74800000D01*
X138785714Y-74704761D01*
X139404761Y-73990476D02*
X139452380Y-74085714D01*
X139452380Y-74276190D01*
X139404761Y-74371428D01*
X139309523Y-74419047D01*
X138928571Y-74419047D01*
X138833333Y-74371428D01*
X138785714Y-74276190D01*
X138785714Y-74085714D01*
X138833333Y-73990476D01*
X138928571Y-73942857D01*
X139023809Y-73942857D01*
X139119047Y-74419047D01*
X138785714Y-73514285D02*
X139452380Y-73514285D01*
X138880952Y-73514285D02*
X138833333Y-73466666D01*
X138785714Y-73371428D01*
X138785714Y-73228571D01*
X138833333Y-73133333D01*
X138928571Y-73085714D01*
X139452380Y-73085714D01*
X138785714Y-72752380D02*
X138785714Y-72371428D01*
X138452380Y-72609523D02*
X139309523Y-72609523D01*
X139404761Y-72561904D01*
X139452380Y-72466666D01*
X139452380Y-72371428D01*
X138452380Y-71419047D02*
X138452380Y-70847619D01*
X139452380Y-71133333D02*
X138452380Y-71133333D01*
X139452380Y-70371428D02*
X139404761Y-70466666D01*
X139357142Y-70514285D01*
X139261904Y-70561904D01*
X138976190Y-70561904D01*
X138880952Y-70514285D01*
X138833333Y-70466666D01*
X138785714Y-70371428D01*
X138785714Y-70228571D01*
X138833333Y-70133333D01*
X138880952Y-70085714D01*
X138976190Y-70038095D01*
X139261904Y-70038095D01*
X139357142Y-70085714D01*
X139404761Y-70133333D01*
X139452380Y-70228571D01*
X139452380Y-70371428D01*
X138785714Y-69752380D02*
X138785714Y-69371428D01*
X138452380Y-69609523D02*
X139309523Y-69609523D01*
X139404761Y-69561904D01*
X139452380Y-69466666D01*
X139452380Y-69371428D01*
X139452380Y-68609523D02*
X138928571Y-68609523D01*
X138833333Y-68657142D01*
X138785714Y-68752380D01*
X138785714Y-68942857D01*
X138833333Y-69038095D01*
X139404761Y-68609523D02*
X139452380Y-68704761D01*
X139452380Y-68942857D01*
X139404761Y-69038095D01*
X139309523Y-69085714D01*
X139214285Y-69085714D01*
X139119047Y-69038095D01*
X139071428Y-68942857D01*
X139071428Y-68704761D01*
X139023809Y-68609523D01*
X139452380Y-67990476D02*
X139404761Y-68085714D01*
X139309523Y-68133333D01*
X138452380Y-68133333D01*
X113342380Y-76940476D02*
X114342380Y-76607142D01*
X113342380Y-76273809D01*
X114294761Y-75511904D02*
X114342380Y-75607142D01*
X114342380Y-75797619D01*
X114294761Y-75892857D01*
X114247142Y-75940476D01*
X114151904Y-75988095D01*
X113866190Y-75988095D01*
X113770952Y-75940476D01*
X113723333Y-75892857D01*
X113675714Y-75797619D01*
X113675714Y-75607142D01*
X113723333Y-75511904D01*
X114294761Y-74654761D02*
X114342380Y-74750000D01*
X114342380Y-74940476D01*
X114294761Y-75035714D01*
X114247142Y-75083333D01*
X114151904Y-75130952D01*
X113866190Y-75130952D01*
X113770952Y-75083333D01*
X113723333Y-75035714D01*
X113675714Y-74940476D01*
X113675714Y-74750000D01*
X113723333Y-74654761D01*
X116610000Y-76511904D02*
X116562380Y-76607142D01*
X116562380Y-76750000D01*
X116610000Y-76892857D01*
X116705238Y-76988095D01*
X116800476Y-77035714D01*
X116990952Y-77083333D01*
X117133809Y-77083333D01*
X117324285Y-77035714D01*
X117419523Y-76988095D01*
X117514761Y-76892857D01*
X117562380Y-76750000D01*
X117562380Y-76654761D01*
X117514761Y-76511904D01*
X117467142Y-76464285D01*
X117133809Y-76464285D01*
X117133809Y-76654761D01*
X117562380Y-76035714D02*
X116562380Y-76035714D01*
X117562380Y-75464285D01*
X116562380Y-75464285D01*
X117562380Y-74988095D02*
X116562380Y-74988095D01*
X116562380Y-74750000D01*
X116610000Y-74607142D01*
X116705238Y-74511904D01*
X116800476Y-74464285D01*
X116990952Y-74416666D01*
X117133809Y-74416666D01*
X117324285Y-74464285D01*
X117419523Y-74511904D01*
X117514761Y-74607142D01*
X117562380Y-74750000D01*
X117562380Y-74988095D01*
X131607142Y-119511904D02*
X131654761Y-119559523D01*
X131702380Y-119702380D01*
X131702380Y-119797619D01*
X131654761Y-119940476D01*
X131559523Y-120035714D01*
X131464285Y-120083333D01*
X131273809Y-120130952D01*
X131130952Y-120130952D01*
X130940476Y-120083333D01*
X130845238Y-120035714D01*
X130750000Y-119940476D01*
X130702380Y-119797619D01*
X130702380Y-119702380D01*
X130750000Y-119559523D01*
X130797619Y-119511904D01*
X131035714Y-118654761D02*
X131702380Y-118654761D01*
X131035714Y-119083333D02*
X131559523Y-119083333D01*
X131654761Y-119035714D01*
X131702380Y-118940476D01*
X131702380Y-118797619D01*
X131654761Y-118702380D01*
X131607142Y-118654761D01*
X131702380Y-118178571D02*
X131035714Y-118178571D01*
X131226190Y-118178571D02*
X131130952Y-118130952D01*
X131083333Y-118083333D01*
X131035714Y-117988095D01*
X131035714Y-117892857D01*
X131702380Y-117559523D02*
X131035714Y-117559523D01*
X131226190Y-117559523D02*
X131130952Y-117511904D01*
X131083333Y-117464285D01*
X131035714Y-117369047D01*
X131035714Y-117273809D01*
X131654761Y-116559523D02*
X131702380Y-116654761D01*
X131702380Y-116845238D01*
X131654761Y-116940476D01*
X131559523Y-116988095D01*
X131178571Y-116988095D01*
X131083333Y-116940476D01*
X131035714Y-116845238D01*
X131035714Y-116654761D01*
X131083333Y-116559523D01*
X131178571Y-116511904D01*
X131273809Y-116511904D01*
X131369047Y-116988095D01*
X131035714Y-116083333D02*
X131702380Y-116083333D01*
X131130952Y-116083333D02*
X131083333Y-116035714D01*
X131035714Y-115940476D01*
X131035714Y-115797619D01*
X131083333Y-115702380D01*
X131178571Y-115654761D01*
X131702380Y-115654761D01*
X131035714Y-115321428D02*
X131035714Y-114940476D01*
X130702380Y-115178571D02*
X131559523Y-115178571D01*
X131654761Y-115130952D01*
X131702380Y-115035714D01*
X131702380Y-114940476D01*
X131702380Y-113369047D02*
X131702380Y-113845238D01*
X130702380Y-113845238D01*
X131178571Y-113035714D02*
X131178571Y-112702380D01*
X131702380Y-112559523D02*
X131702380Y-113035714D01*
X130702380Y-113035714D01*
X130702380Y-112559523D01*
X131702380Y-112130952D02*
X130702380Y-112130952D01*
X130702380Y-111892857D01*
X130750000Y-111750000D01*
X130845238Y-111654761D01*
X130940476Y-111607142D01*
X131130952Y-111559523D01*
X131273809Y-111559523D01*
X131464285Y-111607142D01*
X131559523Y-111654761D01*
X131654761Y-111750000D01*
X131702380Y-111892857D01*
X131702380Y-112130952D01*
X131654761Y-110416666D02*
X131702380Y-110273809D01*
X131702380Y-110035714D01*
X131654761Y-109940476D01*
X131607142Y-109892857D01*
X131511904Y-109845238D01*
X131416666Y-109845238D01*
X131321428Y-109892857D01*
X131273809Y-109940476D01*
X131226190Y-110035714D01*
X131178571Y-110226190D01*
X131130952Y-110321428D01*
X131083333Y-110369047D01*
X130988095Y-110416666D01*
X130892857Y-110416666D01*
X130797619Y-110369047D01*
X130750000Y-110321428D01*
X130702380Y-110226190D01*
X130702380Y-109988095D01*
X130750000Y-109845238D01*
X131035714Y-109559523D02*
X131035714Y-109178571D01*
X130702380Y-109416666D02*
X131559523Y-109416666D01*
X131654761Y-109369047D01*
X131702380Y-109273809D01*
X131702380Y-109178571D01*
X131702380Y-108845238D02*
X131035714Y-108845238D01*
X131226190Y-108845238D02*
X131130952Y-108797619D01*
X131083333Y-108750000D01*
X131035714Y-108654761D01*
X131035714Y-108559523D01*
X131702380Y-108226190D02*
X131035714Y-108226190D01*
X130702380Y-108226190D02*
X130750000Y-108273809D01*
X130797619Y-108226190D01*
X130750000Y-108178571D01*
X130702380Y-108226190D01*
X130797619Y-108226190D01*
X131035714Y-107750000D02*
X131702380Y-107750000D01*
X131130952Y-107750000D02*
X131083333Y-107702380D01*
X131035714Y-107607142D01*
X131035714Y-107464285D01*
X131083333Y-107369047D01*
X131178571Y-107321428D01*
X131702380Y-107321428D01*
X131035714Y-106416666D02*
X131845238Y-106416666D01*
X131940476Y-106464285D01*
X131988095Y-106511904D01*
X132035714Y-106607142D01*
X132035714Y-106750000D01*
X131988095Y-106845238D01*
X131654761Y-106416666D02*
X131702380Y-106511904D01*
X131702380Y-106702380D01*
X131654761Y-106797619D01*
X131607142Y-106845238D01*
X131511904Y-106892857D01*
X131226190Y-106892857D01*
X131130952Y-106845238D01*
X131083333Y-106797619D01*
X131035714Y-106702380D01*
X131035714Y-106511904D01*
X131083333Y-106416666D01*
X138252380Y-105400000D02*
X139252380Y-105066666D01*
X138252380Y-104733333D01*
X139252380Y-104257142D02*
X139204761Y-104352380D01*
X139157142Y-104400000D01*
X139061904Y-104447619D01*
X138776190Y-104447619D01*
X138680952Y-104400000D01*
X138633333Y-104352380D01*
X138585714Y-104257142D01*
X138585714Y-104114285D01*
X138633333Y-104019047D01*
X138680952Y-103971428D01*
X138776190Y-103923809D01*
X139061904Y-103923809D01*
X139157142Y-103971428D01*
X139204761Y-104019047D01*
X139252380Y-104114285D01*
X139252380Y-104257142D01*
X139252380Y-103352380D02*
X139204761Y-103447619D01*
X139109523Y-103495238D01*
X138252380Y-103495238D01*
X138585714Y-103114285D02*
X138585714Y-102733333D01*
X138252380Y-102971428D02*
X139109523Y-102971428D01*
X139204761Y-102923809D01*
X139252380Y-102828571D01*
X139252380Y-102733333D01*
X139252380Y-101971428D02*
X138728571Y-101971428D01*
X138633333Y-102019047D01*
X138585714Y-102114285D01*
X138585714Y-102304761D01*
X138633333Y-102400000D01*
X139204761Y-101971428D02*
X139252380Y-102066666D01*
X139252380Y-102304761D01*
X139204761Y-102400000D01*
X139109523Y-102447619D01*
X139014285Y-102447619D01*
X138919047Y-102400000D01*
X138871428Y-102304761D01*
X138871428Y-102066666D01*
X138823809Y-101971428D01*
X138585714Y-101066666D02*
X139395238Y-101066666D01*
X139490476Y-101114285D01*
X139538095Y-101161904D01*
X139585714Y-101257142D01*
X139585714Y-101400000D01*
X139538095Y-101495238D01*
X139204761Y-101066666D02*
X139252380Y-101161904D01*
X139252380Y-101352380D01*
X139204761Y-101447619D01*
X139157142Y-101495238D01*
X139061904Y-101542857D01*
X138776190Y-101542857D01*
X138680952Y-101495238D01*
X138633333Y-101447619D01*
X138585714Y-101352380D01*
X138585714Y-101161904D01*
X138633333Y-101066666D01*
X139204761Y-100209523D02*
X139252380Y-100304761D01*
X139252380Y-100495238D01*
X139204761Y-100590476D01*
X139109523Y-100638095D01*
X138728571Y-100638095D01*
X138633333Y-100590476D01*
X138585714Y-100495238D01*
X138585714Y-100304761D01*
X138633333Y-100209523D01*
X138728571Y-100161904D01*
X138823809Y-100161904D01*
X138919047Y-100638095D01*
X139252380Y-98495238D02*
X139252380Y-98971428D01*
X138252380Y-98971428D01*
X138728571Y-98161904D02*
X138728571Y-97828571D01*
X139252380Y-97685714D02*
X139252380Y-98161904D01*
X138252380Y-98161904D01*
X138252380Y-97685714D01*
X139252380Y-97257142D02*
X138252380Y-97257142D01*
X138252380Y-97019047D01*
X138300000Y-96876190D01*
X138395238Y-96780952D01*
X138490476Y-96733333D01*
X138680952Y-96685714D01*
X138823809Y-96685714D01*
X139014285Y-96733333D01*
X139109523Y-96780952D01*
X139204761Y-96876190D01*
X139252380Y-97019047D01*
X139252380Y-97257142D01*
X139204761Y-95542857D02*
X139252380Y-95400000D01*
X139252380Y-95161904D01*
X139204761Y-95066666D01*
X139157142Y-95019047D01*
X139061904Y-94971428D01*
X138966666Y-94971428D01*
X138871428Y-95019047D01*
X138823809Y-95066666D01*
X138776190Y-95161904D01*
X138728571Y-95352380D01*
X138680952Y-95447619D01*
X138633333Y-95495238D01*
X138538095Y-95542857D01*
X138442857Y-95542857D01*
X138347619Y-95495238D01*
X138300000Y-95447619D01*
X138252380Y-95352380D01*
X138252380Y-95114285D01*
X138300000Y-94971428D01*
X138585714Y-94685714D02*
X138585714Y-94304761D01*
X138252380Y-94542857D02*
X139109523Y-94542857D01*
X139204761Y-94495238D01*
X139252380Y-94400000D01*
X139252380Y-94304761D01*
X139252380Y-93971428D02*
X138585714Y-93971428D01*
X138776190Y-93971428D02*
X138680952Y-93923809D01*
X138633333Y-93876190D01*
X138585714Y-93780952D01*
X138585714Y-93685714D01*
X139252380Y-93352380D02*
X138585714Y-93352380D01*
X138252380Y-93352380D02*
X138300000Y-93400000D01*
X138347619Y-93352380D01*
X138300000Y-93304761D01*
X138252380Y-93352380D01*
X138347619Y-93352380D01*
X138585714Y-92876190D02*
X139252380Y-92876190D01*
X138680952Y-92876190D02*
X138633333Y-92828571D01*
X138585714Y-92733333D01*
X138585714Y-92590476D01*
X138633333Y-92495238D01*
X138728571Y-92447619D01*
X139252380Y-92447619D01*
X138585714Y-91542857D02*
X139395238Y-91542857D01*
X139490476Y-91590476D01*
X139538095Y-91638095D01*
X139585714Y-91733333D01*
X139585714Y-91876190D01*
X139538095Y-91971428D01*
X139204761Y-91542857D02*
X139252380Y-91638095D01*
X139252380Y-91828571D01*
X139204761Y-91923809D01*
X139157142Y-91971428D01*
X139061904Y-92019047D01*
X138776190Y-92019047D01*
X138680952Y-91971428D01*
X138633333Y-91923809D01*
X138585714Y-91828571D01*
X138585714Y-91638095D01*
X138633333Y-91542857D01*
X129452380Y-144416666D02*
X128976190Y-144750000D01*
X129452380Y-144988095D02*
X128452380Y-144988095D01*
X128452380Y-144607142D01*
X128500000Y-144511904D01*
X128547619Y-144464285D01*
X128642857Y-144416666D01*
X128785714Y-144416666D01*
X128880952Y-144464285D01*
X128928571Y-144511904D01*
X128976190Y-144607142D01*
X128976190Y-144988095D01*
X128547619Y-144035714D02*
X128500000Y-143988095D01*
X128452380Y-143892857D01*
X128452380Y-143654761D01*
X128500000Y-143559523D01*
X128547619Y-143511904D01*
X128642857Y-143464285D01*
X128738095Y-143464285D01*
X128880952Y-143511904D01*
X129452380Y-144083333D01*
X129452380Y-143464285D01*
X135266666Y-109147380D02*
X135266666Y-109861666D01*
X135219047Y-110004523D01*
X135123809Y-110099761D01*
X134980952Y-110147380D01*
X134885714Y-110147380D01*
X135647619Y-109147380D02*
X136266666Y-109147380D01*
X135933333Y-109528333D01*
X136076190Y-109528333D01*
X136171428Y-109575952D01*
X136219047Y-109623571D01*
X136266666Y-109718809D01*
X136266666Y-109956904D01*
X136219047Y-110052142D01*
X136171428Y-110099761D01*
X136076190Y-110147380D01*
X135790476Y-110147380D01*
X135695238Y-110099761D01*
X135647619Y-110052142D01*
X111657380Y-68073333D02*
X112371666Y-68073333D01*
X112514523Y-68120952D01*
X112609761Y-68216190D01*
X112657380Y-68359047D01*
X112657380Y-68454285D01*
X112657380Y-67073333D02*
X112657380Y-67644761D01*
X112657380Y-67359047D02*
X111657380Y-67359047D01*
X111800238Y-67454285D01*
X111895476Y-67549523D01*
X111943095Y-67644761D01*
X124252380Y-73683334D02*
X124966666Y-73683334D01*
X125109523Y-73730953D01*
X125204761Y-73826191D01*
X125252380Y-73969048D01*
X125252380Y-74064286D01*
X125252380Y-73207143D02*
X124252380Y-73207143D01*
X124252380Y-72826191D01*
X124300000Y-72730953D01*
X124347619Y-72683334D01*
X124442857Y-72635715D01*
X124585714Y-72635715D01*
X124680952Y-72683334D01*
X124728571Y-72730953D01*
X124776190Y-72826191D01*
X124776190Y-73207143D01*
X125252380Y-71683334D02*
X125252380Y-72254762D01*
X125252380Y-71969048D02*
X124252380Y-71969048D01*
X124395238Y-72064286D01*
X124490476Y-72159524D01*
X124538095Y-72254762D01*
X131004761Y-129647619D02*
X130909523Y-129600000D01*
X130814285Y-129504761D01*
X130671428Y-129361904D01*
X130576190Y-129314285D01*
X130480952Y-129314285D01*
X130528571Y-129552380D02*
X130433333Y-129504761D01*
X130338095Y-129409523D01*
X130290476Y-129219047D01*
X130290476Y-128885714D01*
X130338095Y-128695238D01*
X130433333Y-128600000D01*
X130528571Y-128552380D01*
X130719047Y-128552380D01*
X130814285Y-128600000D01*
X130909523Y-128695238D01*
X130957142Y-128885714D01*
X130957142Y-129219047D01*
X130909523Y-129409523D01*
X130814285Y-129504761D01*
X130719047Y-129552380D01*
X130528571Y-129552380D01*
X131909523Y-129552380D02*
X131338095Y-129552380D01*
X131623809Y-129552380D02*
X131623809Y-128552380D01*
X131528571Y-128695238D01*
X131433333Y-128790476D01*
X131338095Y-128838095D01*
X125761904Y-119952380D02*
X125761904Y-118952380D01*
X126000000Y-118952380D01*
X126142857Y-119000000D01*
X126238095Y-119095238D01*
X126285714Y-119190476D01*
X126333333Y-119380952D01*
X126333333Y-119523809D01*
X126285714Y-119714285D01*
X126238095Y-119809523D01*
X126142857Y-119904761D01*
X126000000Y-119952380D01*
X125761904Y-119952380D01*
X126666666Y-118952380D02*
X127333333Y-118952380D01*
X126904761Y-119952380D01*
X125761904Y-99052380D02*
X125761904Y-98052380D01*
X126000000Y-98052380D01*
X126142857Y-98100000D01*
X126238095Y-98195238D01*
X126285714Y-98290476D01*
X126333333Y-98480952D01*
X126333333Y-98623809D01*
X126285714Y-98814285D01*
X126238095Y-98909523D01*
X126142857Y-99004761D01*
X126000000Y-99052380D01*
X125761904Y-99052380D01*
X127190476Y-98052380D02*
X127000000Y-98052380D01*
X126904761Y-98100000D01*
X126857142Y-98147619D01*
X126761904Y-98290476D01*
X126714285Y-98480952D01*
X126714285Y-98861904D01*
X126761904Y-98957142D01*
X126809523Y-99004761D01*
X126904761Y-99052380D01*
X127095238Y-99052380D01*
X127190476Y-99004761D01*
X127238095Y-98957142D01*
X127285714Y-98861904D01*
X127285714Y-98623809D01*
X127238095Y-98528571D01*
X127190476Y-98480952D01*
X127095238Y-98433333D01*
X126904761Y-98433333D01*
X126809523Y-98480952D01*
X126761904Y-98528571D01*
X126714285Y-98623809D01*
X121609523Y-78761904D02*
X121609523Y-77961904D01*
X121800000Y-77961904D01*
X121914285Y-78000000D01*
X121990476Y-78076190D01*
X122028571Y-78152380D01*
X122066666Y-78304761D01*
X122066666Y-78419047D01*
X122028571Y-78571428D01*
X121990476Y-78647619D01*
X121914285Y-78723809D01*
X121800000Y-78761904D01*
X121609523Y-78761904D01*
X122828571Y-78761904D02*
X122371428Y-78761904D01*
X122600000Y-78761904D02*
X122600000Y-77961904D01*
X122523809Y-78076190D01*
X122447619Y-78152380D01*
X122371428Y-78190476D01*
X132202380Y-144416666D02*
X131726190Y-144750000D01*
X132202380Y-144988095D02*
X131202380Y-144988095D01*
X131202380Y-144607142D01*
X131250000Y-144511904D01*
X131297619Y-144464285D01*
X131392857Y-144416666D01*
X131535714Y-144416666D01*
X131630952Y-144464285D01*
X131678571Y-144511904D01*
X131726190Y-144607142D01*
X131726190Y-144988095D01*
X131202380Y-144083333D02*
X131202380Y-143464285D01*
X131583333Y-143797619D01*
X131583333Y-143654761D01*
X131630952Y-143559523D01*
X131678571Y-143511904D01*
X131773809Y-143464285D01*
X132011904Y-143464285D01*
X132107142Y-143511904D01*
X132154761Y-143559523D01*
X132202380Y-143654761D01*
X132202380Y-143940476D01*
X132154761Y-144035714D01*
X132107142Y-144083333D01*
X121609523Y-99861904D02*
X121609523Y-99061904D01*
X121800000Y-99061904D01*
X121914285Y-99100000D01*
X121990476Y-99176190D01*
X122028571Y-99252380D01*
X122066666Y-99404761D01*
X122066666Y-99519047D01*
X122028571Y-99671428D01*
X121990476Y-99747619D01*
X121914285Y-99823809D01*
X121800000Y-99861904D01*
X121609523Y-99861904D01*
X122371428Y-99138095D02*
X122409523Y-99100000D01*
X122485714Y-99061904D01*
X122676190Y-99061904D01*
X122752380Y-99100000D01*
X122790476Y-99138095D01*
X122828571Y-99214285D01*
X122828571Y-99290476D01*
X122790476Y-99404761D01*
X122333333Y-99861904D01*
X122828571Y-99861904D01*
X118747380Y-139593333D02*
X119461666Y-139593333D01*
X119604523Y-139640952D01*
X119699761Y-139736190D01*
X119747380Y-139879047D01*
X119747380Y-139974285D01*
X118747380Y-138640952D02*
X118747380Y-139117142D01*
X119223571Y-139164761D01*
X119175952Y-139117142D01*
X119128333Y-139021904D01*
X119128333Y-138783809D01*
X119175952Y-138688571D01*
X119223571Y-138640952D01*
X119318809Y-138593333D01*
X119556904Y-138593333D01*
X119652142Y-138640952D01*
X119699761Y-138688571D01*
X119747380Y-138783809D01*
X119747380Y-139021904D01*
X119699761Y-139117142D01*
X119652142Y-139164761D01*
X121709523Y-120861904D02*
X121709523Y-120061904D01*
X121900000Y-120061904D01*
X122014285Y-120100000D01*
X122090476Y-120176190D01*
X122128571Y-120252380D01*
X122166666Y-120404761D01*
X122166666Y-120519047D01*
X122128571Y-120671428D01*
X122090476Y-120747619D01*
X122014285Y-120823809D01*
X121900000Y-120861904D01*
X121709523Y-120861904D01*
X122433333Y-120061904D02*
X122928571Y-120061904D01*
X122661904Y-120366666D01*
X122776190Y-120366666D01*
X122852380Y-120404761D01*
X122890476Y-120442857D01*
X122928571Y-120519047D01*
X122928571Y-120709523D01*
X122890476Y-120785714D01*
X122852380Y-120823809D01*
X122776190Y-120861904D01*
X122547619Y-120861904D01*
X122471428Y-120823809D01*
X122433333Y-120785714D01*
X125761904Y-78202380D02*
X125761904Y-77202380D01*
X126000000Y-77202380D01*
X126142857Y-77250000D01*
X126238095Y-77345238D01*
X126285714Y-77440476D01*
X126333333Y-77630952D01*
X126333333Y-77773809D01*
X126285714Y-77964285D01*
X126238095Y-78059523D01*
X126142857Y-78154761D01*
X126000000Y-78202380D01*
X125761904Y-78202380D01*
X127238095Y-77202380D02*
X126761904Y-77202380D01*
X126714285Y-77678571D01*
X126761904Y-77630952D01*
X126857142Y-77583333D01*
X127095238Y-77583333D01*
X127190476Y-77630952D01*
X127238095Y-77678571D01*
X127285714Y-77773809D01*
X127285714Y-78011904D01*
X127238095Y-78107142D01*
X127190476Y-78154761D01*
X127095238Y-78202380D01*
X126857142Y-78202380D01*
X126761904Y-78154761D01*
X126714285Y-78107142D01*
X126952380Y-133938095D02*
X125952380Y-133938095D01*
X125952380Y-133700000D01*
X126000000Y-133557142D01*
X126095238Y-133461904D01*
X126190476Y-133414285D01*
X126380952Y-133366666D01*
X126523809Y-133366666D01*
X126714285Y-133414285D01*
X126809523Y-133461904D01*
X126904761Y-133557142D01*
X126952380Y-133700000D01*
X126952380Y-133938095D01*
X126285714Y-132509523D02*
X126952380Y-132509523D01*
X125904761Y-132747619D02*
X126619047Y-132985714D01*
X126619047Y-132366666D01*
X130352380Y-126833333D02*
X131066666Y-126833333D01*
X131209523Y-126880952D01*
X131304761Y-126976190D01*
X131352380Y-127119047D01*
X131352380Y-127214285D01*
X131352380Y-126357142D02*
X130352380Y-126357142D01*
X130352380Y-125976190D01*
X130400000Y-125880952D01*
X130447619Y-125833333D01*
X130542857Y-125785714D01*
X130685714Y-125785714D01*
X130780952Y-125833333D01*
X130828571Y-125880952D01*
X130876190Y-125976190D01*
X130876190Y-126357142D01*
X130447619Y-125404761D02*
X130400000Y-125357142D01*
X130352380Y-125261904D01*
X130352380Y-125023809D01*
X130400000Y-124928571D01*
X130447619Y-124880952D01*
X130542857Y-124833333D01*
X130638095Y-124833333D01*
X130780952Y-124880952D01*
X131352380Y-125452380D01*
X131352380Y-124833333D01*
X134952380Y-144416666D02*
X134476190Y-144750000D01*
X134952380Y-144988095D02*
X133952380Y-144988095D01*
X133952380Y-144607142D01*
X134000000Y-144511904D01*
X134047619Y-144464285D01*
X134142857Y-144416666D01*
X134285714Y-144416666D01*
X134380952Y-144464285D01*
X134428571Y-144511904D01*
X134476190Y-144607142D01*
X134476190Y-144988095D01*
X134285714Y-143559523D02*
X134952380Y-143559523D01*
X133904761Y-143797619D02*
X134619047Y-144035714D01*
X134619047Y-143416666D01*
X118872380Y-124066666D02*
X118396190Y-124400000D01*
X118872380Y-124638095D02*
X117872380Y-124638095D01*
X117872380Y-124257142D01*
X117920000Y-124161904D01*
X117967619Y-124114285D01*
X118062857Y-124066666D01*
X118205714Y-124066666D01*
X118300952Y-124114285D01*
X118348571Y-124161904D01*
X118396190Y-124257142D01*
X118396190Y-124638095D01*
X118872380Y-123114285D02*
X118872380Y-123685714D01*
X118872380Y-123400000D02*
X117872380Y-123400000D01*
X118015238Y-123495238D01*
X118110476Y-123590476D01*
X118158095Y-123685714D01*
X135266666Y-68647380D02*
X135266666Y-69361666D01*
X135219047Y-69504523D01*
X135123809Y-69599761D01*
X134980952Y-69647380D01*
X134885714Y-69647380D01*
X136171428Y-68980714D02*
X136171428Y-69647380D01*
X135933333Y-68599761D02*
X135695238Y-69314047D01*
X136314285Y-69314047D01*
X135266666Y-96547380D02*
X135266666Y-97261666D01*
X135219047Y-97404523D01*
X135123809Y-97499761D01*
X134980952Y-97547380D01*
X134885714Y-97547380D01*
X135695238Y-96642619D02*
X135742857Y-96595000D01*
X135838095Y-96547380D01*
X136076190Y-96547380D01*
X136171428Y-96595000D01*
X136219047Y-96642619D01*
X136266666Y-96737857D01*
X136266666Y-96833095D01*
X136219047Y-96975952D01*
X135647619Y-97547380D01*
X136266666Y-97547380D01*
D11*
X127990000Y-138972936D02*
X127990000Y-140427064D01*
X129810000Y-138972936D02*
X129810000Y-140427064D01*
X134270000Y-113295000D02*
X136930000Y-113295000D01*
X134270000Y-112025000D02*
X134270000Y-110695000D01*
X134270000Y-113295000D02*
X134270000Y-115895000D01*
X134270000Y-110695000D02*
X135600000Y-110695000D01*
X136930000Y-113295000D02*
X136930000Y-115895000D01*
X134270000Y-115895000D02*
X136930000Y-115895000D01*
X114095000Y-68025000D02*
X114095000Y-62025000D01*
X118345000Y-68025000D02*
X113145000Y-68025000D01*
X115745000Y-70685000D02*
X115745000Y-68025000D01*
X117395000Y-62025000D02*
X117395000Y-68025000D01*
X114095000Y-71015000D02*
X114095000Y-70685000D01*
X114275000Y-68025000D02*
X114275000Y-62025000D01*
X114475000Y-73395000D02*
X113205000Y-73395000D01*
X116635000Y-62025000D02*
X117395000Y-62025000D01*
X114155000Y-68025000D02*
X114155000Y-62025000D01*
X114095000Y-62025000D02*
X114855000Y-62025000D01*
X114855000Y-62025000D02*
X114855000Y-68025000D01*
X114395000Y-68025000D02*
X114395000Y-62025000D01*
X114515000Y-68025000D02*
X114515000Y-62025000D01*
X114635000Y-68025000D02*
X114635000Y-62025000D01*
X113145000Y-70685000D02*
X118345000Y-70685000D01*
X118345000Y-70685000D02*
X118345000Y-68025000D01*
X116635000Y-71082071D02*
X116635000Y-70685000D01*
X117395000Y-71082071D02*
X117395000Y-70685000D01*
X114755000Y-68025000D02*
X114755000Y-62025000D01*
X113205000Y-73395000D02*
X113205000Y-72125000D01*
X116635000Y-68025000D02*
X116635000Y-62025000D01*
X114855000Y-71015000D02*
X114855000Y-70685000D01*
X113145000Y-68025000D02*
X113145000Y-70685000D01*
X126300000Y-71450001D02*
X126900000Y-71450001D01*
X126900000Y-74250001D02*
X126300000Y-74250001D01*
X127600000Y-72150001D02*
X127600000Y-73550001D01*
X125600000Y-73550001D02*
X125600000Y-72150001D01*
X125600000Y-73550001D02*
G75*
G03*
X126300000Y-74250001I699999J-1D01*
G01*
X126300000Y-71450001D02*
G75*
G03*
X125600000Y-72150001I0J-700000D01*
G01*
X127600000Y-72150001D02*
G75*
G03*
X126900000Y-71450001I-700000J0D01*
G01*
X126900000Y-74250001D02*
G75*
G03*
X127600000Y-73550001I1J699999D01*
G01*
X131860000Y-133180000D02*
X130400000Y-133180000D01*
X131860000Y-130020000D02*
X131860000Y-130950000D01*
X131860000Y-130020000D02*
X128700000Y-130020000D01*
X131860000Y-133180000D02*
X131860000Y-132250000D01*
X124900000Y-126975000D02*
X128100000Y-126975000D01*
X128100000Y-122375000D02*
X128100000Y-126975000D01*
X124900000Y-122375000D02*
X124900000Y-126975000D01*
D12*
X125200000Y-127475000D02*
G75*
G03*
X125200000Y-127475000I-100000J0D01*
G01*
D11*
X124900000Y-106075000D02*
X128100000Y-106075000D01*
X124900000Y-101475000D02*
X124900000Y-106075000D01*
X128100000Y-101475000D02*
X128100000Y-106075000D01*
D12*
X125200000Y-106575000D02*
G75*
G03*
X125200000Y-106575000I-100000J0D01*
G01*
D13*
X123870000Y-83500000D02*
X123870000Y-80100000D01*
X120630000Y-80100000D02*
X120630000Y-83500000D01*
D12*
X121050000Y-84900000D02*
G75*
G03*
X121050000Y-84900000I-100000J0D01*
G01*
D11*
X132610000Y-138972936D02*
X132610000Y-140427064D01*
X130790000Y-138972936D02*
X130790000Y-140427064D01*
D13*
X120630000Y-101300000D02*
X120630000Y-104700000D01*
X123870000Y-104700000D02*
X123870000Y-101300000D01*
D12*
X121050000Y-106100000D02*
G75*
G03*
X121050000Y-106100000I-100000J0D01*
G01*
D11*
X118295000Y-133605000D02*
X118295000Y-134875000D01*
X116645000Y-135985000D02*
X116645000Y-136315000D01*
X116645000Y-144975000D02*
X116645000Y-138975000D01*
X116745000Y-138975000D02*
X116745000Y-144975000D01*
X117345000Y-138975000D02*
X117345000Y-144975000D01*
X114105000Y-135917929D02*
X114105000Y-136315000D01*
X117405000Y-135985000D02*
X117405000Y-136315000D01*
X114865000Y-138975000D02*
X114865000Y-144975000D01*
X114865000Y-144975000D02*
X114105000Y-144975000D01*
X117405000Y-144975000D02*
X116645000Y-144975000D01*
X117405000Y-138975000D02*
X117405000Y-144975000D01*
X113155000Y-136315000D02*
X113155000Y-138975000D01*
X114105000Y-144975000D02*
X114105000Y-138975000D01*
X115755000Y-136315000D02*
X115755000Y-138975000D01*
X116985000Y-138975000D02*
X116985000Y-144975000D01*
X117225000Y-138975000D02*
X117225000Y-144975000D01*
X118355000Y-136315000D02*
X113155000Y-136315000D01*
X113155000Y-138975000D02*
X118355000Y-138975000D01*
X114865000Y-135917929D02*
X114865000Y-136315000D01*
X118355000Y-138975000D02*
X118355000Y-136315000D01*
X117105000Y-138975000D02*
X117105000Y-144975000D01*
X116865000Y-138975000D02*
X116865000Y-144975000D01*
X117025000Y-133605000D02*
X118295000Y-133605000D01*
D13*
X123920000Y-125650000D02*
X123920000Y-122250000D01*
X120680000Y-122250000D02*
X120680000Y-125650000D01*
D12*
X121100000Y-127050000D02*
G75*
G03*
X121100000Y-127050000I-100000J0D01*
G01*
D11*
X128100000Y-80475000D02*
X128100000Y-85075000D01*
X124900000Y-85075000D02*
X128100000Y-85075000D01*
X124900000Y-80475000D02*
X124900000Y-85075000D01*
D12*
X125200000Y-85575000D02*
G75*
G03*
X125200000Y-85575000I-100000J0D01*
G01*
D11*
X125500000Y-130800000D02*
X123500000Y-130800000D01*
X123500000Y-130800000D02*
X123500000Y-134850000D01*
X125500000Y-130800000D02*
X125500000Y-134850000D01*
X133700000Y-125300000D02*
X133700000Y-126700000D01*
X133000000Y-127400000D02*
X132400000Y-127400000D01*
X132400000Y-124600000D02*
X133000000Y-124600000D01*
X131700000Y-126700000D02*
X131700000Y-125300000D01*
X131700000Y-126700000D02*
G75*
G03*
X132400000Y-127400000I699999J-1D01*
G01*
X133700000Y-125300000D02*
G75*
G03*
X133000000Y-124600000I-700000J0D01*
G01*
X132400000Y-124600000D02*
G75*
G03*
X131700000Y-125300000I0J-700000D01*
G01*
X133000000Y-127400000D02*
G75*
G03*
X133700000Y-126700000I1J699999D01*
G01*
X135510000Y-138972936D02*
X135510000Y-140427064D01*
X133690000Y-138972936D02*
X133690000Y-140427064D01*
X115690000Y-123172936D02*
X115690000Y-124627064D01*
X117510000Y-123172936D02*
X117510000Y-124627064D01*
X134270000Y-75395000D02*
X136930000Y-75395000D01*
X134270000Y-70195000D02*
X135600000Y-70195000D01*
X134270000Y-71525000D02*
X134270000Y-70195000D01*
X136930000Y-72795000D02*
X136930000Y-75395000D01*
X134270000Y-72795000D02*
X134270000Y-75395000D01*
X134270000Y-72795000D02*
X136930000Y-72795000D01*
X134270000Y-99425000D02*
X134270000Y-98095000D01*
X134270000Y-100695000D02*
X134270000Y-103295000D01*
X134270000Y-103295000D02*
X136930000Y-103295000D01*
X134270000Y-100695000D02*
X136930000Y-100695000D01*
X136930000Y-100695000D02*
X136930000Y-103295000D01*
X134270000Y-98095000D02*
X135600000Y-98095000D01*
%LPC*%
D14*
X128900000Y-138150000D03*
X128900000Y-141250000D03*
D15*
X135600000Y-112025000D03*
D16*
X135600000Y-114565000D03*
D15*
X114475000Y-72125000D03*
D16*
X117015000Y-72125000D03*
D17*
X126600000Y-73500001D03*
D18*
X126600000Y-72200001D03*
D19*
X129600000Y-130650000D03*
X129600000Y-132550000D03*
X132600000Y-131600000D03*
D20*
X126500000Y-125075000D03*
D21*
X126500000Y-122000000D03*
D20*
X126500000Y-104175000D03*
D21*
X126500000Y-101100000D03*
D22*
X122250000Y-83350000D03*
X122250000Y-80250000D03*
D14*
X131700000Y-138150000D03*
X131700000Y-141250000D03*
D22*
X122250000Y-104550000D03*
X122250000Y-101450000D03*
D15*
X117025000Y-134875000D03*
D16*
X114485000Y-134875000D03*
D22*
X122300000Y-125500000D03*
X122300000Y-122400000D03*
D20*
X126500000Y-83175000D03*
D21*
X126500000Y-80100000D03*
D23*
X124500000Y-131500000D03*
X124500000Y-134900000D03*
D17*
X132700000Y-126650000D03*
D18*
X132700000Y-125350000D03*
D14*
X134600000Y-138150000D03*
X134600000Y-141250000D03*
X116600000Y-122350000D03*
X116600000Y-125450000D03*
D15*
X135600000Y-71525000D03*
D16*
X135600000Y-74065000D03*
D15*
X135600000Y-99425000D03*
D16*
X135600000Y-101965000D03*
M02*
