G04 #@! TF.GenerationSoftware,KiCad,Pcbnew,6.0.11-2627ca5db0~126~ubuntu22.04.1*
G04 #@! TF.CreationDate,2023-10-21T17:03:14+02:00*
G04 #@! TF.ProjectId,CC_LED_Driver,43435f4c-4544-45f4-9472-697665722e6b,rev?*
G04 #@! TF.SameCoordinates,Original*
G04 #@! TF.FileFunction,Copper,L2,Bot*
G04 #@! TF.FilePolarity,Positive*
%FSLAX46Y46*%
G04 Gerber Fmt 4.6, Leading zero omitted, Abs format (unit mm)*
G04 Created by KiCad (PCBNEW 6.0.11-2627ca5db0~126~ubuntu22.04.1) date 2023-10-21 17:03:14*
%MOMM*%
%LPD*%
G01*
G04 APERTURE LIST*
%ADD10C,0.300000*%
G04 #@! TA.AperFunction,NonConductor*
%ADD11C,0.300000*%
G04 #@! TD*
G04 #@! TA.AperFunction,ComponentPad*
%ADD12R,1.700000X1.700000*%
G04 #@! TD*
G04 #@! TA.AperFunction,ComponentPad*
%ADD13O,1.700000X1.700000*%
G04 #@! TD*
G04 #@! TA.AperFunction,ViaPad*
%ADD14C,0.800000*%
G04 #@! TD*
G04 #@! TA.AperFunction,Conductor*
%ADD15C,0.500000*%
G04 #@! TD*
G04 APERTURE END LIST*
D10*
D11*
X144750000Y-63928571D02*
X145464285Y-63928571D01*
X145464285Y-62428571D01*
X144250000Y-63928571D02*
X144250000Y-62428571D01*
X143750000Y-63500000D01*
X143250000Y-62428571D01*
X143250000Y-63928571D01*
X142678571Y-62428571D02*
X142321428Y-63928571D01*
X142035714Y-62857142D01*
X141750000Y-63928571D01*
X141392857Y-62428571D01*
X140321428Y-63142857D02*
X140107142Y-63214285D01*
X140035714Y-63285714D01*
X139964285Y-63428571D01*
X139964285Y-63642857D01*
X140035714Y-63785714D01*
X140107142Y-63857142D01*
X140250000Y-63928571D01*
X140821428Y-63928571D01*
X140821428Y-62428571D01*
X140321428Y-62428571D01*
X140178571Y-62500000D01*
X140107142Y-62571428D01*
X140035714Y-62714285D01*
X140035714Y-62857142D01*
X140107142Y-63000000D01*
X140178571Y-63071428D01*
X140321428Y-63142857D01*
X140821428Y-63142857D01*
D12*
X135600000Y-112025000D03*
D13*
X135600000Y-114565000D03*
D12*
X114475000Y-72125000D03*
D13*
X117015000Y-72125000D03*
D12*
X117025000Y-134875000D03*
D13*
X114485000Y-134875000D03*
D12*
X135600000Y-71525000D03*
D13*
X135600000Y-74065000D03*
D12*
X135600000Y-99425000D03*
D13*
X135600000Y-101965000D03*
D14*
X131750000Y-142750000D03*
X124500000Y-136750000D03*
X129000000Y-142750000D03*
X134500000Y-142750000D03*
D15*
X135600000Y-99425000D02*
X135600000Y-74065000D01*
X135600000Y-101965000D02*
X135600000Y-112025000D01*
G04 #@! TA.AperFunction,Conductor*
G36*
X138962193Y-61528502D02*
G01*
X139008686Y-61582158D01*
X139020072Y-61634500D01*
X139020072Y-65191000D01*
X146479929Y-65191000D01*
X146479929Y-61634500D01*
X146499931Y-61566379D01*
X146553587Y-61519886D01*
X146605929Y-61508500D01*
X147769632Y-61508500D01*
X147837753Y-61528502D01*
X147884246Y-61582158D01*
X147894395Y-61652114D01*
X146601785Y-70808102D01*
X136125751Y-145013346D01*
X136073548Y-145383114D01*
X136044220Y-145447769D01*
X135984591Y-145486305D01*
X135948785Y-145491500D01*
X113064229Y-145491500D01*
X112996108Y-145471498D01*
X112949615Y-145417842D01*
X112939092Y-145380222D01*
X112895931Y-145013346D01*
X112629655Y-142750000D01*
X122236654Y-142750000D01*
X122256017Y-143045426D01*
X122313776Y-143335797D01*
X122408941Y-143616145D01*
X122539885Y-143881673D01*
X122704367Y-144127838D01*
X122707081Y-144130932D01*
X122707085Y-144130938D01*
X122896864Y-144347338D01*
X122899573Y-144350427D01*
X122902662Y-144353136D01*
X123119062Y-144542915D01*
X123119068Y-144542919D01*
X123122162Y-144545633D01*
X123125588Y-144547922D01*
X123125593Y-144547926D01*
X123309405Y-144670744D01*
X123368327Y-144710115D01*
X123372026Y-144711939D01*
X123372031Y-144711942D01*
X123508313Y-144779148D01*
X123633855Y-144841059D01*
X123637760Y-144842384D01*
X123637761Y-144842385D01*
X123910290Y-144934896D01*
X123910294Y-144934897D01*
X123914203Y-144936224D01*
X123918247Y-144937028D01*
X123918253Y-144937030D01*
X124200535Y-144993180D01*
X124200541Y-144993181D01*
X124204574Y-144993983D01*
X124208679Y-144994252D01*
X124208686Y-144994253D01*
X124495881Y-145013076D01*
X124500000Y-145013346D01*
X124504119Y-145013076D01*
X124791314Y-144994253D01*
X124791321Y-144994252D01*
X124795426Y-144993983D01*
X124799459Y-144993181D01*
X124799465Y-144993180D01*
X125081747Y-144937030D01*
X125081753Y-144937028D01*
X125085797Y-144936224D01*
X125089706Y-144934897D01*
X125089710Y-144934896D01*
X125362239Y-144842385D01*
X125362240Y-144842384D01*
X125366145Y-144841059D01*
X125491687Y-144779148D01*
X125627969Y-144711942D01*
X125627974Y-144711939D01*
X125631673Y-144710115D01*
X125690595Y-144670744D01*
X125874407Y-144547926D01*
X125874412Y-144547922D01*
X125877838Y-144545633D01*
X125880932Y-144542919D01*
X125880938Y-144542915D01*
X126097338Y-144353136D01*
X126100427Y-144350427D01*
X126103136Y-144347338D01*
X126292915Y-144130938D01*
X126292919Y-144130932D01*
X126295633Y-144127838D01*
X126460115Y-143881673D01*
X126591059Y-143616145D01*
X126686224Y-143335797D01*
X126743983Y-143045426D01*
X126763346Y-142750000D01*
X126743983Y-142454574D01*
X126686224Y-142164203D01*
X126591059Y-141883855D01*
X126460115Y-141618327D01*
X126295633Y-141372162D01*
X126292919Y-141369068D01*
X126292915Y-141369062D01*
X126103136Y-141152662D01*
X126100427Y-141149573D01*
X126097338Y-141146864D01*
X125880938Y-140957085D01*
X125880932Y-140957081D01*
X125877838Y-140954367D01*
X125874412Y-140952078D01*
X125874407Y-140952074D01*
X125635106Y-140792179D01*
X125631673Y-140789885D01*
X125627974Y-140788061D01*
X125627969Y-140788058D01*
X125491687Y-140720852D01*
X125366145Y-140658941D01*
X125362239Y-140657615D01*
X125089710Y-140565104D01*
X125089706Y-140565103D01*
X125085797Y-140563776D01*
X125081753Y-140562972D01*
X125081747Y-140562970D01*
X124799465Y-140506820D01*
X124799459Y-140506819D01*
X124795426Y-140506017D01*
X124791321Y-140505748D01*
X124791314Y-140505747D01*
X124504119Y-140486924D01*
X124500000Y-140486654D01*
X124495881Y-140486924D01*
X124208686Y-140505747D01*
X124208679Y-140505748D01*
X124204574Y-140506017D01*
X124200541Y-140506819D01*
X124200535Y-140506820D01*
X123918253Y-140562970D01*
X123918247Y-140562972D01*
X123914203Y-140563776D01*
X123910294Y-140565103D01*
X123910290Y-140565104D01*
X123637761Y-140657615D01*
X123633855Y-140658941D01*
X123508313Y-140720852D01*
X123372031Y-140788058D01*
X123372026Y-140788061D01*
X123368327Y-140789885D01*
X123364894Y-140792179D01*
X123125593Y-140952074D01*
X123125588Y-140952078D01*
X123122162Y-140954367D01*
X123119068Y-140957081D01*
X123119062Y-140957085D01*
X122902662Y-141146864D01*
X122899573Y-141149573D01*
X122896864Y-141152662D01*
X122707085Y-141369062D01*
X122707081Y-141369068D01*
X122704367Y-141372162D01*
X122539885Y-141618327D01*
X122408941Y-141883855D01*
X122313776Y-142164203D01*
X122256017Y-142454574D01*
X122236654Y-142750000D01*
X112629655Y-142750000D01*
X111734710Y-135142966D01*
X113153257Y-135142966D01*
X113183565Y-135277446D01*
X113186645Y-135287275D01*
X113266770Y-135484603D01*
X113271413Y-135493794D01*
X113382694Y-135675388D01*
X113388777Y-135683699D01*
X113528213Y-135844667D01*
X113535580Y-135851883D01*
X113699434Y-135987916D01*
X113707881Y-135993831D01*
X113891756Y-136101279D01*
X113901042Y-136105729D01*
X114100001Y-136181703D01*
X114109899Y-136184579D01*
X114213250Y-136205606D01*
X114227299Y-136204410D01*
X114231000Y-136194065D01*
X114231000Y-136193517D01*
X114739000Y-136193517D01*
X114743064Y-136207359D01*
X114756478Y-136209393D01*
X114763184Y-136208534D01*
X114773262Y-136206392D01*
X114977255Y-136145191D01*
X114986842Y-136141433D01*
X115178095Y-136047739D01*
X115186945Y-136042464D01*
X115360328Y-135918792D01*
X115368193Y-135912145D01*
X115472897Y-135807805D01*
X115535268Y-135773889D01*
X115606075Y-135779077D01*
X115662837Y-135821723D01*
X115679819Y-135852826D01*
X115724385Y-135971705D01*
X115811739Y-136088261D01*
X115928295Y-136175615D01*
X116064684Y-136226745D01*
X116126866Y-136233500D01*
X117923134Y-136233500D01*
X117985316Y-136226745D01*
X118121705Y-136175615D01*
X118238261Y-136088261D01*
X118325615Y-135971705D01*
X118376745Y-135835316D01*
X118383500Y-135773134D01*
X118383500Y-133976866D01*
X118376745Y-133914684D01*
X118325615Y-133778295D01*
X118238261Y-133661739D01*
X118121705Y-133574385D01*
X117985316Y-133523255D01*
X117923134Y-133516500D01*
X116126866Y-133516500D01*
X116064684Y-133523255D01*
X115928295Y-133574385D01*
X115811739Y-133661739D01*
X115724385Y-133778295D01*
X115721233Y-133786703D01*
X115721232Y-133786705D01*
X115679722Y-133897433D01*
X115637081Y-133954198D01*
X115570519Y-133978898D01*
X115501170Y-133963691D01*
X115468546Y-133938004D01*
X115417799Y-133882234D01*
X115410273Y-133875215D01*
X115243139Y-133743222D01*
X115234552Y-133737517D01*
X115048117Y-133634599D01*
X115038705Y-133630369D01*
X114837959Y-133559280D01*
X114827988Y-133556646D01*
X114756837Y-133543972D01*
X114743540Y-133545432D01*
X114739000Y-133559989D01*
X114739000Y-136193517D01*
X114231000Y-136193517D01*
X114231000Y-135147115D01*
X114226525Y-135131876D01*
X114225135Y-135130671D01*
X114217452Y-135129000D01*
X113168225Y-135129000D01*
X113154694Y-135132973D01*
X113153257Y-135142966D01*
X111734710Y-135142966D01*
X111671912Y-134609183D01*
X113149389Y-134609183D01*
X113150912Y-134617607D01*
X113163292Y-134621000D01*
X114212885Y-134621000D01*
X114228124Y-134616525D01*
X114229329Y-134615135D01*
X114231000Y-134607452D01*
X114231000Y-133558102D01*
X114227082Y-133544758D01*
X114212806Y-133542771D01*
X114174324Y-133548660D01*
X114164288Y-133551051D01*
X113961868Y-133617212D01*
X113952359Y-133621209D01*
X113763463Y-133719542D01*
X113754738Y-133725036D01*
X113584433Y-133852905D01*
X113576726Y-133859748D01*
X113429590Y-134013717D01*
X113423104Y-134021727D01*
X113303098Y-134197649D01*
X113298000Y-134206623D01*
X113208338Y-134399783D01*
X113204775Y-134409470D01*
X113149389Y-134609183D01*
X111671912Y-134609183D01*
X109309854Y-114531695D01*
X134237251Y-114531695D01*
X134237548Y-114536848D01*
X134237548Y-114536851D01*
X134243011Y-114631590D01*
X134250110Y-114754715D01*
X134251247Y-114759761D01*
X134251248Y-114759767D01*
X134271119Y-114847939D01*
X134299222Y-114972639D01*
X134383266Y-115179616D01*
X134499987Y-115370088D01*
X134646250Y-115538938D01*
X134818126Y-115681632D01*
X135011000Y-115794338D01*
X135219692Y-115874030D01*
X135224760Y-115875061D01*
X135224763Y-115875062D01*
X135332017Y-115896883D01*
X135438597Y-115918567D01*
X135443772Y-115918757D01*
X135443774Y-115918757D01*
X135656673Y-115926564D01*
X135656677Y-115926564D01*
X135661837Y-115926753D01*
X135666957Y-115926097D01*
X135666959Y-115926097D01*
X135878288Y-115899025D01*
X135878289Y-115899025D01*
X135883416Y-115898368D01*
X135888366Y-115896883D01*
X136092429Y-115835661D01*
X136092434Y-115835659D01*
X136097384Y-115834174D01*
X136297994Y-115735896D01*
X136479860Y-115606173D01*
X136638096Y-115448489D01*
X136697594Y-115365689D01*
X136765435Y-115271277D01*
X136768453Y-115267077D01*
X136867430Y-115066811D01*
X136932370Y-114853069D01*
X136961529Y-114631590D01*
X136963156Y-114565000D01*
X136944852Y-114342361D01*
X136890431Y-114125702D01*
X136801354Y-113920840D01*
X136680014Y-113733277D01*
X136676532Y-113729450D01*
X136532798Y-113571488D01*
X136501746Y-113507642D01*
X136510141Y-113437143D01*
X136555317Y-113382375D01*
X136581761Y-113368706D01*
X136688297Y-113328767D01*
X136696705Y-113325615D01*
X136813261Y-113238261D01*
X136900615Y-113121705D01*
X136951745Y-112985316D01*
X136958500Y-112923134D01*
X136958500Y-111126866D01*
X136951745Y-111064684D01*
X136900615Y-110928295D01*
X136813261Y-110811739D01*
X136696705Y-110724385D01*
X136560316Y-110673255D01*
X136498134Y-110666500D01*
X136484500Y-110666500D01*
X136416379Y-110646498D01*
X136369886Y-110592842D01*
X136358500Y-110540500D01*
X136358500Y-103157632D01*
X136378502Y-103089511D01*
X136411331Y-103055054D01*
X136479860Y-103006173D01*
X136638096Y-102848489D01*
X136697594Y-102765689D01*
X136765435Y-102671277D01*
X136768453Y-102667077D01*
X136867430Y-102466811D01*
X136932370Y-102253069D01*
X136961529Y-102031590D01*
X136963156Y-101965000D01*
X136944852Y-101742361D01*
X136890431Y-101525702D01*
X136801354Y-101320840D01*
X136680014Y-101133277D01*
X136676532Y-101129450D01*
X136532798Y-100971488D01*
X136501746Y-100907642D01*
X136510141Y-100837143D01*
X136555317Y-100782375D01*
X136581761Y-100768706D01*
X136688297Y-100728767D01*
X136696705Y-100725615D01*
X136813261Y-100638261D01*
X136900615Y-100521705D01*
X136951745Y-100385316D01*
X136958500Y-100323134D01*
X136958500Y-98526866D01*
X136951745Y-98464684D01*
X136900615Y-98328295D01*
X136813261Y-98211739D01*
X136696705Y-98124385D01*
X136560316Y-98073255D01*
X136498134Y-98066500D01*
X136484500Y-98066500D01*
X136416379Y-98046498D01*
X136369886Y-97992842D01*
X136358500Y-97940500D01*
X136358500Y-75257632D01*
X136378502Y-75189511D01*
X136411331Y-75155054D01*
X136479860Y-75106173D01*
X136638096Y-74948489D01*
X136697594Y-74865689D01*
X136765435Y-74771277D01*
X136768453Y-74767077D01*
X136867430Y-74566811D01*
X136932370Y-74353069D01*
X136961529Y-74131590D01*
X136963156Y-74065000D01*
X136944852Y-73842361D01*
X136890431Y-73625702D01*
X136801354Y-73420840D01*
X136743286Y-73331081D01*
X136682822Y-73237617D01*
X136682820Y-73237614D01*
X136680014Y-73233277D01*
X136676023Y-73228891D01*
X136532798Y-73071488D01*
X136501746Y-73007642D01*
X136510141Y-72937143D01*
X136555317Y-72882375D01*
X136581761Y-72868706D01*
X136688297Y-72828767D01*
X136696705Y-72825615D01*
X136813261Y-72738261D01*
X136900615Y-72621705D01*
X136951745Y-72485316D01*
X136958500Y-72423134D01*
X136958500Y-70626866D01*
X136951745Y-70564684D01*
X136900615Y-70428295D01*
X136813261Y-70311739D01*
X136696705Y-70224385D01*
X136560316Y-70173255D01*
X136498134Y-70166500D01*
X134701866Y-70166500D01*
X134639684Y-70173255D01*
X134503295Y-70224385D01*
X134386739Y-70311739D01*
X134299385Y-70428295D01*
X134248255Y-70564684D01*
X134241500Y-70626866D01*
X134241500Y-72423134D01*
X134248255Y-72485316D01*
X134299385Y-72621705D01*
X134386739Y-72738261D01*
X134503295Y-72825615D01*
X134511704Y-72828767D01*
X134511705Y-72828768D01*
X134620451Y-72869535D01*
X134677216Y-72912176D01*
X134701916Y-72978738D01*
X134686709Y-73048087D01*
X134667316Y-73074568D01*
X134540629Y-73207138D01*
X134537715Y-73211410D01*
X134537714Y-73211411D01*
X134530692Y-73221705D01*
X134414743Y-73391680D01*
X134320688Y-73594305D01*
X134260989Y-73809570D01*
X134237251Y-74031695D01*
X134237548Y-74036848D01*
X134237548Y-74036851D01*
X134243011Y-74131590D01*
X134250110Y-74254715D01*
X134251247Y-74259761D01*
X134251248Y-74259767D01*
X134271119Y-74347939D01*
X134299222Y-74472639D01*
X134383266Y-74679616D01*
X134499987Y-74870088D01*
X134646250Y-75038938D01*
X134795985Y-75163250D01*
X134835620Y-75222152D01*
X134841500Y-75260194D01*
X134841500Y-97940500D01*
X134821498Y-98008621D01*
X134767842Y-98055114D01*
X134715500Y-98066500D01*
X134701866Y-98066500D01*
X134639684Y-98073255D01*
X134503295Y-98124385D01*
X134386739Y-98211739D01*
X134299385Y-98328295D01*
X134248255Y-98464684D01*
X134241500Y-98526866D01*
X134241500Y-100323134D01*
X134248255Y-100385316D01*
X134299385Y-100521705D01*
X134386739Y-100638261D01*
X134503295Y-100725615D01*
X134511704Y-100728767D01*
X134511705Y-100728768D01*
X134620451Y-100769535D01*
X134677216Y-100812176D01*
X134701916Y-100878738D01*
X134686709Y-100948087D01*
X134667316Y-100974568D01*
X134540629Y-101107138D01*
X134414743Y-101291680D01*
X134320688Y-101494305D01*
X134260989Y-101709570D01*
X134237251Y-101931695D01*
X134237548Y-101936848D01*
X134237548Y-101936851D01*
X134243011Y-102031590D01*
X134250110Y-102154715D01*
X134251247Y-102159761D01*
X134251248Y-102159767D01*
X134271119Y-102247939D01*
X134299222Y-102372639D01*
X134383266Y-102579616D01*
X134499987Y-102770088D01*
X134646250Y-102938938D01*
X134795985Y-103063250D01*
X134835620Y-103122152D01*
X134841500Y-103160194D01*
X134841500Y-110540500D01*
X134821498Y-110608621D01*
X134767842Y-110655114D01*
X134715500Y-110666500D01*
X134701866Y-110666500D01*
X134639684Y-110673255D01*
X134503295Y-110724385D01*
X134386739Y-110811739D01*
X134299385Y-110928295D01*
X134248255Y-111064684D01*
X134241500Y-111126866D01*
X134241500Y-112923134D01*
X134248255Y-112985316D01*
X134299385Y-113121705D01*
X134386739Y-113238261D01*
X134503295Y-113325615D01*
X134511704Y-113328767D01*
X134511705Y-113328768D01*
X134620451Y-113369535D01*
X134677216Y-113412176D01*
X134701916Y-113478738D01*
X134686709Y-113548087D01*
X134667316Y-113574568D01*
X134540629Y-113707138D01*
X134414743Y-113891680D01*
X134320688Y-114094305D01*
X134260989Y-114309570D01*
X134237251Y-114531695D01*
X109309854Y-114531695D01*
X107953910Y-103006173D01*
X104426494Y-73023134D01*
X113116500Y-73023134D01*
X113123255Y-73085316D01*
X113174385Y-73221705D01*
X113261739Y-73338261D01*
X113378295Y-73425615D01*
X113514684Y-73476745D01*
X113576866Y-73483500D01*
X115373134Y-73483500D01*
X115435316Y-73476745D01*
X115571705Y-73425615D01*
X115688261Y-73338261D01*
X115775615Y-73221705D01*
X115819798Y-73103848D01*
X115862440Y-73047084D01*
X115929001Y-73022384D01*
X115998350Y-73037592D01*
X116033017Y-73065580D01*
X116058218Y-73094673D01*
X116065580Y-73101883D01*
X116229434Y-73237916D01*
X116237881Y-73243831D01*
X116421756Y-73351279D01*
X116431042Y-73355729D01*
X116630001Y-73431703D01*
X116639899Y-73434579D01*
X116743250Y-73455606D01*
X116757299Y-73454410D01*
X116761000Y-73444065D01*
X116761000Y-73443517D01*
X117269000Y-73443517D01*
X117273064Y-73457359D01*
X117286478Y-73459393D01*
X117293184Y-73458534D01*
X117303262Y-73456392D01*
X117507255Y-73395191D01*
X117516842Y-73391433D01*
X117708095Y-73297739D01*
X117716945Y-73292464D01*
X117890328Y-73168792D01*
X117898200Y-73162139D01*
X118049052Y-73011812D01*
X118055730Y-73003965D01*
X118180003Y-72831020D01*
X118185313Y-72822183D01*
X118279670Y-72631267D01*
X118283469Y-72621672D01*
X118345377Y-72417910D01*
X118347555Y-72407837D01*
X118348986Y-72396962D01*
X118346775Y-72382778D01*
X118333617Y-72379000D01*
X117287115Y-72379000D01*
X117271876Y-72383475D01*
X117270671Y-72384865D01*
X117269000Y-72392548D01*
X117269000Y-73443517D01*
X116761000Y-73443517D01*
X116761000Y-71852885D01*
X117269000Y-71852885D01*
X117273475Y-71868124D01*
X117274865Y-71869329D01*
X117282548Y-71871000D01*
X118333344Y-71871000D01*
X118346875Y-71867027D01*
X118348180Y-71857947D01*
X118306214Y-71690875D01*
X118302894Y-71681124D01*
X118217972Y-71485814D01*
X118213105Y-71476739D01*
X118097426Y-71297926D01*
X118091136Y-71289757D01*
X117947806Y-71132240D01*
X117940273Y-71125215D01*
X117773139Y-70993222D01*
X117764552Y-70987517D01*
X117578117Y-70884599D01*
X117568705Y-70880369D01*
X117367959Y-70809280D01*
X117357988Y-70806646D01*
X117286837Y-70793972D01*
X117273540Y-70795432D01*
X117269000Y-70809989D01*
X117269000Y-71852885D01*
X116761000Y-71852885D01*
X116761000Y-70808102D01*
X116757082Y-70794758D01*
X116742806Y-70792771D01*
X116704324Y-70798660D01*
X116694288Y-70801051D01*
X116491868Y-70867212D01*
X116482359Y-70871209D01*
X116293463Y-70969542D01*
X116284738Y-70975036D01*
X116114433Y-71102905D01*
X116106726Y-71109748D01*
X116029478Y-71190584D01*
X115967954Y-71226014D01*
X115897042Y-71222557D01*
X115839255Y-71181311D01*
X115820402Y-71147763D01*
X115778767Y-71036703D01*
X115775615Y-71028295D01*
X115688261Y-70911739D01*
X115571705Y-70824385D01*
X115435316Y-70773255D01*
X115373134Y-70766500D01*
X113576866Y-70766500D01*
X113514684Y-70773255D01*
X113378295Y-70824385D01*
X113261739Y-70911739D01*
X113174385Y-71028295D01*
X113123255Y-71164684D01*
X113116500Y-71226866D01*
X113116500Y-73023134D01*
X104426494Y-73023134D01*
X103394361Y-64250000D01*
X122236654Y-64250000D01*
X122256017Y-64545426D01*
X122313776Y-64835797D01*
X122408941Y-65116145D01*
X122539885Y-65381673D01*
X122704367Y-65627838D01*
X122707081Y-65630932D01*
X122707085Y-65630938D01*
X122896864Y-65847338D01*
X122899573Y-65850427D01*
X122902662Y-65853136D01*
X123119062Y-66042915D01*
X123119068Y-66042919D01*
X123122162Y-66045633D01*
X123125588Y-66047922D01*
X123125593Y-66047926D01*
X123309405Y-66170744D01*
X123368327Y-66210115D01*
X123372026Y-66211939D01*
X123372031Y-66211942D01*
X123508313Y-66279148D01*
X123633855Y-66341059D01*
X123637760Y-66342384D01*
X123637761Y-66342385D01*
X123910290Y-66434896D01*
X123910294Y-66434897D01*
X123914203Y-66436224D01*
X123918247Y-66437028D01*
X123918253Y-66437030D01*
X124200535Y-66493180D01*
X124200541Y-66493181D01*
X124204574Y-66493983D01*
X124208679Y-66494252D01*
X124208686Y-66494253D01*
X124495881Y-66513076D01*
X124500000Y-66513346D01*
X124504119Y-66513076D01*
X124791314Y-66494253D01*
X124791321Y-66494252D01*
X124795426Y-66493983D01*
X124799459Y-66493181D01*
X124799465Y-66493180D01*
X125081747Y-66437030D01*
X125081753Y-66437028D01*
X125085797Y-66436224D01*
X125089706Y-66434897D01*
X125089710Y-66434896D01*
X125362239Y-66342385D01*
X125362240Y-66342384D01*
X125366145Y-66341059D01*
X125491687Y-66279148D01*
X125627969Y-66211942D01*
X125627974Y-66211939D01*
X125631673Y-66210115D01*
X125690595Y-66170744D01*
X125874407Y-66047926D01*
X125874412Y-66047922D01*
X125877838Y-66045633D01*
X125880932Y-66042919D01*
X125880938Y-66042915D01*
X126097338Y-65853136D01*
X126100427Y-65850427D01*
X126103136Y-65847338D01*
X126292915Y-65630938D01*
X126292919Y-65630932D01*
X126295633Y-65627838D01*
X126460115Y-65381673D01*
X126591059Y-65116145D01*
X126686224Y-64835797D01*
X126743983Y-64545426D01*
X126763346Y-64250000D01*
X126743983Y-63954574D01*
X126686224Y-63664203D01*
X126591059Y-63383855D01*
X126460115Y-63118327D01*
X126295633Y-62872162D01*
X126292919Y-62869068D01*
X126292915Y-62869062D01*
X126103136Y-62652662D01*
X126100427Y-62649573D01*
X126097338Y-62646864D01*
X125880938Y-62457085D01*
X125880932Y-62457081D01*
X125877838Y-62454367D01*
X125874412Y-62452078D01*
X125874407Y-62452074D01*
X125635106Y-62292179D01*
X125631673Y-62289885D01*
X125627974Y-62288061D01*
X125627969Y-62288058D01*
X125491687Y-62220852D01*
X125366145Y-62158941D01*
X125362239Y-62157615D01*
X125089710Y-62065104D01*
X125089706Y-62065103D01*
X125085797Y-62063776D01*
X125081753Y-62062972D01*
X125081747Y-62062970D01*
X124799465Y-62006820D01*
X124799459Y-62006819D01*
X124795426Y-62006017D01*
X124791321Y-62005748D01*
X124791314Y-62005747D01*
X124504119Y-61986924D01*
X124500000Y-61986654D01*
X124495881Y-61986924D01*
X124208686Y-62005747D01*
X124208679Y-62005748D01*
X124204574Y-62006017D01*
X124200541Y-62006819D01*
X124200535Y-62006820D01*
X123918253Y-62062970D01*
X123918247Y-62062972D01*
X123914203Y-62063776D01*
X123910294Y-62065103D01*
X123910290Y-62065104D01*
X123637761Y-62157615D01*
X123633855Y-62158941D01*
X123508313Y-62220852D01*
X123372031Y-62288058D01*
X123372026Y-62288061D01*
X123368327Y-62289885D01*
X123364894Y-62292179D01*
X123125593Y-62452074D01*
X123125588Y-62452078D01*
X123122162Y-62454367D01*
X123119068Y-62457081D01*
X123119062Y-62457085D01*
X122902662Y-62646864D01*
X122899573Y-62649573D01*
X122896864Y-62652662D01*
X122707085Y-62869062D01*
X122707081Y-62869068D01*
X122704367Y-62872162D01*
X122539885Y-63118327D01*
X122408941Y-63383855D01*
X122313776Y-63664203D01*
X122256017Y-63954574D01*
X122236654Y-64250000D01*
X103394361Y-64250000D01*
X103088387Y-61649222D01*
X103100293Y-61579231D01*
X103148149Y-61526787D01*
X103213524Y-61508500D01*
X138894072Y-61508500D01*
X138962193Y-61528502D01*
G37*
G04 #@! TD.AperFunction*
M02*
