G04 #@! TF.GenerationSoftware,KiCad,Pcbnew,6.0.11-2627ca5db0~126~ubuntu22.04.1*
G04 #@! TF.CreationDate,2023-10-21T17:03:14+02:00*
G04 #@! TF.ProjectId,CC_LED_Driver,43435f4c-4544-45f4-9472-697665722e6b,rev?*
G04 #@! TF.SameCoordinates,Original*
G04 #@! TF.FileFunction,Copper,L1,Top*
G04 #@! TF.FilePolarity,Positive*
%FSLAX46Y46*%
G04 Gerber Fmt 4.6, Leading zero omitted, Abs format (unit mm)*
G04 Created by KiCad (PCBNEW 6.0.11-2627ca5db0~126~ubuntu22.04.1) date 2023-10-21 17:03:14*
%MOMM*%
%LPD*%
G01*
G04 APERTURE LIST*
G04 Aperture macros list*
%AMRoundRect*
0 Rectangle with rounded corners*
0 $1 Rounding radius*
0 $2 $3 $4 $5 $6 $7 $8 $9 X,Y pos of 4 corners*
0 Add a 4 corners polygon primitive as box body*
4,1,4,$2,$3,$4,$5,$6,$7,$8,$9,$2,$3,0*
0 Add four circle primitives for the rounded corners*
1,1,$1+$1,$2,$3*
1,1,$1+$1,$4,$5*
1,1,$1+$1,$6,$7*
1,1,$1+$1,$8,$9*
0 Add four rect primitives between the rounded corners*
20,1,$1+$1,$2,$3,$4,$5,0*
20,1,$1+$1,$4,$5,$6,$7,0*
20,1,$1+$1,$6,$7,$8,$9,0*
20,1,$1+$1,$8,$9,$2,$3,0*%
%AMFreePoly0*
4,1,22,0.500000,-0.750000,0.000000,-0.750000,0.000000,-0.745033,-0.079941,-0.743568,-0.215256,-0.701293,-0.333266,-0.622738,-0.424486,-0.514219,-0.481581,-0.384460,-0.499164,-0.250000,-0.500000,-0.250000,-0.500000,0.250000,-0.499164,0.250000,-0.499963,0.256109,-0.478152,0.396186,-0.417904,0.524511,-0.324060,0.630769,-0.204165,0.706417,-0.067858,0.745374,0.000000,0.744959,0.000000,0.750000,
0.500000,0.750000,0.500000,-0.750000,0.500000,-0.750000,$1*%
%AMFreePoly1*
4,1,20,0.000000,0.744959,0.073905,0.744508,0.209726,0.703889,0.328688,0.626782,0.421226,0.519385,0.479903,0.390333,0.500000,0.250000,0.500000,-0.250000,0.499851,-0.262216,0.476331,-0.402017,0.414519,-0.529596,0.319384,-0.634700,0.198574,-0.708877,0.061801,-0.746166,0.000000,-0.745033,0.000000,-0.750000,-0.500000,-0.750000,-0.500000,0.750000,0.000000,0.750000,0.000000,0.744959,
0.000000,0.744959,$1*%
G04 Aperture macros list end*
G04 #@! TA.AperFunction,SMDPad,CuDef*
%ADD10RoundRect,0.250000X-0.625000X0.400000X-0.625000X-0.400000X0.625000X-0.400000X0.625000X0.400000X0*%
G04 #@! TD*
G04 #@! TA.AperFunction,ComponentPad*
%ADD11R,1.700000X1.700000*%
G04 #@! TD*
G04 #@! TA.AperFunction,ComponentPad*
%ADD12O,1.700000X1.700000*%
G04 #@! TD*
G04 #@! TA.AperFunction,SMDPad,CuDef*
%ADD13FreePoly0,90.000000*%
G04 #@! TD*
G04 #@! TA.AperFunction,SMDPad,CuDef*
%ADD14FreePoly1,90.000000*%
G04 #@! TD*
G04 #@! TA.AperFunction,SMDPad,CuDef*
%ADD15R,1.900000X0.800000*%
G04 #@! TD*
G04 #@! TA.AperFunction,SMDPad,CuDef*
%ADD16R,2.200000X3.000000*%
G04 #@! TD*
G04 #@! TA.AperFunction,SMDPad,CuDef*
%ADD17R,2.200000X2.050000*%
G04 #@! TD*
G04 #@! TA.AperFunction,SMDPad,CuDef*
%ADD18R,2.600000X1.500000*%
G04 #@! TD*
G04 #@! TA.AperFunction,SMDPad,CuDef*
%ADD19R,1.200000X1.000000*%
G04 #@! TD*
G04 #@! TA.AperFunction,ViaPad*
%ADD20C,0.800000*%
G04 #@! TD*
G04 #@! TA.AperFunction,Conductor*
%ADD21C,0.500000*%
G04 #@! TD*
G04 APERTURE END LIST*
G36*
X126400000Y-73100001D02*
G01*
X126000000Y-73100001D01*
X126000000Y-72600001D01*
X126400000Y-72600001D01*
X126400000Y-73100001D01*
G37*
G36*
X127200000Y-73100001D02*
G01*
X126800000Y-73100001D01*
X126800000Y-72600001D01*
X127200000Y-72600001D01*
X127200000Y-73100001D01*
G37*
G36*
X133300000Y-126250000D02*
G01*
X132900000Y-126250000D01*
X132900000Y-125750000D01*
X133300000Y-125750000D01*
X133300000Y-126250000D01*
G37*
G36*
X132500000Y-126250000D02*
G01*
X132100000Y-126250000D01*
X132100000Y-125750000D01*
X132500000Y-125750000D01*
X132500000Y-126250000D01*
G37*
D10*
X128900000Y-138150000D03*
X128900000Y-141250000D03*
D11*
X135600000Y-112025000D03*
D12*
X135600000Y-114565000D03*
D11*
X114475000Y-72125000D03*
D12*
X117015000Y-72125000D03*
D13*
X126600000Y-73500001D03*
D14*
X126600000Y-72200001D03*
D15*
X129600000Y-130650000D03*
X129600000Y-132550000D03*
X132600000Y-131600000D03*
D16*
X126500000Y-125075000D03*
D17*
X126500000Y-122000000D03*
D16*
X126500000Y-104175000D03*
D17*
X126500000Y-101100000D03*
D18*
X122250000Y-83350000D03*
X122250000Y-80250000D03*
D10*
X131700000Y-138150000D03*
X131700000Y-141250000D03*
D18*
X122250000Y-104550000D03*
X122250000Y-101450000D03*
D11*
X117025000Y-134875000D03*
D12*
X114485000Y-134875000D03*
D18*
X122300000Y-125500000D03*
X122300000Y-122400000D03*
D16*
X126500000Y-83175000D03*
D17*
X126500000Y-80100000D03*
D19*
X124500000Y-131500000D03*
X124500000Y-134900000D03*
D13*
X132700000Y-126650000D03*
D14*
X132700000Y-125350000D03*
D10*
X134600000Y-138150000D03*
X134600000Y-141250000D03*
X116600000Y-122350000D03*
X116600000Y-125450000D03*
D11*
X135600000Y-71525000D03*
D12*
X135600000Y-74065000D03*
D11*
X135600000Y-99425000D03*
D12*
X135600000Y-101965000D03*
D20*
X131750000Y-142750000D03*
X124500000Y-136750000D03*
X129000000Y-142750000D03*
X134500000Y-142750000D03*
D21*
X122250000Y-83350000D02*
X122250000Y-101450000D01*
X122250000Y-104550000D02*
X122250000Y-122350000D01*
X122250000Y-122350000D02*
X122300000Y-122400000D01*
X125562500Y-130650000D02*
X124500000Y-131712500D01*
X121712500Y-131712500D02*
X124500000Y-131712500D01*
X116600000Y-125450000D02*
X116600000Y-126600000D01*
X130162500Y-130650000D02*
X125562500Y-130650000D01*
X116600000Y-126600000D02*
X121712500Y-131712500D01*
X128900000Y-141250000D02*
X128900000Y-142650000D01*
X131700000Y-142700000D02*
X131750000Y-142750000D01*
X124500000Y-134687500D02*
X124500000Y-136750000D01*
X128900000Y-141250000D02*
X131700000Y-141250000D01*
X134600000Y-141250000D02*
X134600000Y-142650000D01*
X134600000Y-142650000D02*
X134500000Y-142750000D01*
X131700000Y-141250000D02*
X131700000Y-142700000D01*
X134600000Y-141250000D02*
X131700000Y-141250000D01*
X128900000Y-142650000D02*
X129000000Y-142750000D01*
X126500000Y-73600001D02*
X126600000Y-73500001D01*
X126500000Y-80000000D02*
X122500000Y-80000000D01*
X135600000Y-74065000D02*
X127164999Y-74065000D01*
X116600000Y-122350000D02*
X119000000Y-119950000D01*
X122500000Y-80000000D02*
X122250000Y-80250000D01*
X119000000Y-119950000D02*
X119000000Y-83500000D01*
X127164999Y-74065000D02*
X126600000Y-73500001D01*
X126500000Y-80000000D02*
X126500000Y-73600001D01*
X119000000Y-83500000D02*
X122250000Y-80250000D01*
X134300000Y-115103478D02*
X135800000Y-116603478D01*
X135800000Y-116603478D02*
X135800000Y-124950000D01*
X126500000Y-125175000D02*
X122625000Y-125175000D01*
X135600000Y-112025000D02*
X134300000Y-113325000D01*
X135400000Y-125350000D02*
X132700000Y-125350000D01*
X135800000Y-124950000D02*
X135400000Y-125350000D01*
X132525000Y-125175000D02*
X132700000Y-125350000D01*
X134300000Y-113325000D02*
X134300000Y-115103478D01*
X126500000Y-125175000D02*
X132525000Y-125175000D01*
X122625000Y-125175000D02*
X122300000Y-125500000D01*
X135000000Y-126750000D02*
X132800000Y-126750000D01*
X135600000Y-114565000D02*
X136500000Y-115465000D01*
X132800000Y-126750000D02*
X132700000Y-126650000D01*
X132700000Y-126650000D02*
X132750000Y-126700000D01*
X132700000Y-131500000D02*
X132600000Y-131600000D01*
X136500000Y-115465000D02*
X136500000Y-125250000D01*
X132700000Y-126650000D02*
X132700000Y-131500000D01*
X136500000Y-125250000D02*
X135000000Y-126750000D01*
X128500000Y-134212500D02*
X128500000Y-137750000D01*
X130162500Y-132550000D02*
X128500000Y-134212500D01*
X131700000Y-138150000D02*
X134600000Y-138150000D01*
X128500000Y-137750000D02*
X128900000Y-138150000D01*
X128900000Y-138150000D02*
X131700000Y-138150000D01*
X126500000Y-83275000D02*
X126500000Y-101000000D01*
X126500000Y-104275000D02*
X126500000Y-121900000D01*
G04 #@! TA.AperFunction,Conductor*
G36*
X147837753Y-61528502D02*
G01*
X147884246Y-61582158D01*
X147894395Y-61652114D01*
X146317521Y-72821638D01*
X136125751Y-145013346D01*
X136073548Y-145383114D01*
X136044220Y-145447769D01*
X135984591Y-145486305D01*
X135948785Y-145491500D01*
X113064229Y-145491500D01*
X112996108Y-145471498D01*
X112949615Y-145417842D01*
X112939092Y-145380222D01*
X112895931Y-145013346D01*
X112629655Y-142750000D01*
X122236654Y-142750000D01*
X122256017Y-143045426D01*
X122256819Y-143049459D01*
X122256820Y-143049465D01*
X122312970Y-143331747D01*
X122313776Y-143335797D01*
X122315103Y-143339706D01*
X122315104Y-143339710D01*
X122382155Y-143537237D01*
X122408941Y-143616145D01*
X122539885Y-143881673D01*
X122704367Y-144127838D01*
X122707081Y-144130932D01*
X122707085Y-144130938D01*
X122896864Y-144347338D01*
X122899573Y-144350427D01*
X122902662Y-144353136D01*
X123119062Y-144542915D01*
X123119068Y-144542919D01*
X123122162Y-144545633D01*
X123125588Y-144547922D01*
X123125593Y-144547926D01*
X123309405Y-144670744D01*
X123368327Y-144710115D01*
X123372026Y-144711939D01*
X123372031Y-144711942D01*
X123508313Y-144779148D01*
X123633855Y-144841059D01*
X123637760Y-144842384D01*
X123637761Y-144842385D01*
X123910290Y-144934896D01*
X123910294Y-144934897D01*
X123914203Y-144936224D01*
X123918247Y-144937028D01*
X123918253Y-144937030D01*
X124200535Y-144993180D01*
X124200541Y-144993181D01*
X124204574Y-144993983D01*
X124208679Y-144994252D01*
X124208686Y-144994253D01*
X124495881Y-145013076D01*
X124500000Y-145013346D01*
X124504119Y-145013076D01*
X124791314Y-144994253D01*
X124791321Y-144994252D01*
X124795426Y-144993983D01*
X124799459Y-144993181D01*
X124799465Y-144993180D01*
X125081747Y-144937030D01*
X125081753Y-144937028D01*
X125085797Y-144936224D01*
X125089706Y-144934897D01*
X125089710Y-144934896D01*
X125362239Y-144842385D01*
X125362240Y-144842384D01*
X125366145Y-144841059D01*
X125491687Y-144779148D01*
X125627969Y-144711942D01*
X125627974Y-144711939D01*
X125631673Y-144710115D01*
X125690595Y-144670744D01*
X125874407Y-144547926D01*
X125874412Y-144547922D01*
X125877838Y-144545633D01*
X125880932Y-144542919D01*
X125880938Y-144542915D01*
X126097338Y-144353136D01*
X126100427Y-144350427D01*
X126103136Y-144347338D01*
X126292915Y-144130938D01*
X126292919Y-144130932D01*
X126295633Y-144127838D01*
X126460115Y-143881673D01*
X126591059Y-143616145D01*
X126617845Y-143537237D01*
X126684896Y-143339710D01*
X126684897Y-143339706D01*
X126686224Y-143335797D01*
X126687030Y-143331747D01*
X126743180Y-143049465D01*
X126743181Y-143049459D01*
X126743983Y-143045426D01*
X126763346Y-142750000D01*
X126761992Y-142729340D01*
X126744253Y-142458686D01*
X126744252Y-142458679D01*
X126743983Y-142454574D01*
X126742915Y-142449201D01*
X126687030Y-142168253D01*
X126687028Y-142168247D01*
X126686224Y-142164203D01*
X126672341Y-142123303D01*
X126592385Y-141887761D01*
X126592384Y-141887760D01*
X126591059Y-141883855D01*
X126500589Y-141700400D01*
X127516500Y-141700400D01*
X127516837Y-141703646D01*
X127516837Y-141703650D01*
X127526726Y-141798956D01*
X127527474Y-141806166D01*
X127583450Y-141973946D01*
X127676522Y-142124348D01*
X127801697Y-142249305D01*
X127807927Y-142253145D01*
X127807928Y-142253146D01*
X127945090Y-142337694D01*
X127952262Y-142342115D01*
X128036522Y-142370063D01*
X128094881Y-142410492D01*
X128122118Y-142476056D01*
X128116687Y-142528590D01*
X128106458Y-142560072D01*
X128086496Y-142750000D01*
X128106458Y-142939928D01*
X128165473Y-143121556D01*
X128260960Y-143286944D01*
X128388747Y-143428866D01*
X128543248Y-143541118D01*
X128549276Y-143543802D01*
X128549278Y-143543803D01*
X128558752Y-143548021D01*
X128717712Y-143618794D01*
X128811112Y-143638647D01*
X128898056Y-143657128D01*
X128898061Y-143657128D01*
X128904513Y-143658500D01*
X129095487Y-143658500D01*
X129101939Y-143657128D01*
X129101944Y-143657128D01*
X129188888Y-143638647D01*
X129282288Y-143618794D01*
X129441248Y-143548021D01*
X129450722Y-143543803D01*
X129450724Y-143543802D01*
X129456752Y-143541118D01*
X129611253Y-143428866D01*
X129739040Y-143286944D01*
X129834527Y-143121556D01*
X129893542Y-142939928D01*
X129913504Y-142750000D01*
X129893542Y-142560072D01*
X129857517Y-142449199D01*
X129855489Y-142378233D01*
X129892152Y-142317435D01*
X129911036Y-142303128D01*
X129999348Y-142248478D01*
X130124305Y-142123303D01*
X130128146Y-142117072D01*
X130128148Y-142117070D01*
X130158159Y-142068383D01*
X130210931Y-142020890D01*
X130265418Y-142008500D01*
X130334631Y-142008500D01*
X130402752Y-142028502D01*
X130441772Y-142068193D01*
X130476522Y-142124348D01*
X130601697Y-142249305D01*
X130607927Y-142253145D01*
X130607928Y-142253146D01*
X130745090Y-142337694D01*
X130752262Y-142342115D01*
X130791387Y-142355092D01*
X130849744Y-142395520D01*
X130876982Y-142461084D01*
X130871551Y-142513620D01*
X130856458Y-142560072D01*
X130836496Y-142750000D01*
X130856458Y-142939928D01*
X130915473Y-143121556D01*
X131010960Y-143286944D01*
X131138747Y-143428866D01*
X131293248Y-143541118D01*
X131299276Y-143543802D01*
X131299278Y-143543803D01*
X131308752Y-143548021D01*
X131467712Y-143618794D01*
X131561112Y-143638647D01*
X131648056Y-143657128D01*
X131648061Y-143657128D01*
X131654513Y-143658500D01*
X131845487Y-143658500D01*
X131851939Y-143657128D01*
X131851944Y-143657128D01*
X131938888Y-143638647D01*
X132032288Y-143618794D01*
X132191248Y-143548021D01*
X132200722Y-143543803D01*
X132200724Y-143543802D01*
X132206752Y-143541118D01*
X132361253Y-143428866D01*
X132489040Y-143286944D01*
X132584527Y-143121556D01*
X132643542Y-142939928D01*
X132663504Y-142750000D01*
X132643542Y-142560072D01*
X132615888Y-142474962D01*
X132613860Y-142403995D01*
X132650523Y-142343197D01*
X132669418Y-142328882D01*
X132793120Y-142252332D01*
X132799348Y-142248478D01*
X132924305Y-142123303D01*
X132928146Y-142117072D01*
X132928148Y-142117070D01*
X132958159Y-142068383D01*
X133010931Y-142020890D01*
X133065418Y-142008500D01*
X133234631Y-142008500D01*
X133302752Y-142028502D01*
X133341772Y-142068193D01*
X133376522Y-142124348D01*
X133501697Y-142249305D01*
X133507927Y-142253145D01*
X133507928Y-142253146D01*
X133588774Y-142302980D01*
X133636267Y-142355752D01*
X133647691Y-142425824D01*
X133642493Y-142449170D01*
X133606458Y-142560072D01*
X133586496Y-142750000D01*
X133606458Y-142939928D01*
X133665473Y-143121556D01*
X133760960Y-143286944D01*
X133888747Y-143428866D01*
X134043248Y-143541118D01*
X134049276Y-143543802D01*
X134049278Y-143543803D01*
X134058752Y-143548021D01*
X134217712Y-143618794D01*
X134311112Y-143638647D01*
X134398056Y-143657128D01*
X134398061Y-143657128D01*
X134404513Y-143658500D01*
X134595487Y-143658500D01*
X134601939Y-143657128D01*
X134601944Y-143657128D01*
X134688888Y-143638647D01*
X134782288Y-143618794D01*
X134941248Y-143548021D01*
X134950722Y-143543803D01*
X134950724Y-143543802D01*
X134956752Y-143541118D01*
X135111253Y-143428866D01*
X135239040Y-143286944D01*
X135334527Y-143121556D01*
X135393542Y-142939928D01*
X135413504Y-142750000D01*
X135393542Y-142560072D01*
X135383314Y-142528593D01*
X135381286Y-142457626D01*
X135417948Y-142396828D01*
X135463269Y-142370134D01*
X135548946Y-142341550D01*
X135699348Y-142248478D01*
X135824305Y-142123303D01*
X135858273Y-142068197D01*
X135913275Y-141978968D01*
X135913276Y-141978966D01*
X135917115Y-141972738D01*
X135972797Y-141804861D01*
X135983500Y-141700400D01*
X135983500Y-140799600D01*
X135982492Y-140789885D01*
X135973238Y-140700692D01*
X135973237Y-140700688D01*
X135972526Y-140693834D01*
X135960443Y-140657615D01*
X135918868Y-140533002D01*
X135916550Y-140526054D01*
X135823478Y-140375652D01*
X135698303Y-140250695D01*
X135692072Y-140246854D01*
X135553968Y-140161725D01*
X135553966Y-140161724D01*
X135547738Y-140157885D01*
X135387254Y-140104655D01*
X135386389Y-140104368D01*
X135386387Y-140104368D01*
X135379861Y-140102203D01*
X135373025Y-140101503D01*
X135373022Y-140101502D01*
X135329969Y-140097091D01*
X135275400Y-140091500D01*
X133924600Y-140091500D01*
X133921354Y-140091837D01*
X133921350Y-140091837D01*
X133825692Y-140101762D01*
X133825688Y-140101763D01*
X133818834Y-140102474D01*
X133812298Y-140104655D01*
X133812296Y-140104655D01*
X133680194Y-140148728D01*
X133651054Y-140158450D01*
X133500652Y-140251522D01*
X133375695Y-140376697D01*
X133371856Y-140382925D01*
X133371852Y-140382930D01*
X133341841Y-140431617D01*
X133289069Y-140479110D01*
X133234582Y-140491500D01*
X133065369Y-140491500D01*
X132997248Y-140471498D01*
X132958228Y-140431807D01*
X132923478Y-140375652D01*
X132798303Y-140250695D01*
X132792072Y-140246854D01*
X132653968Y-140161725D01*
X132653966Y-140161724D01*
X132647738Y-140157885D01*
X132487254Y-140104655D01*
X132486389Y-140104368D01*
X132486387Y-140104368D01*
X132479861Y-140102203D01*
X132473025Y-140101503D01*
X132473022Y-140101502D01*
X132429969Y-140097091D01*
X132375400Y-140091500D01*
X131024600Y-140091500D01*
X131021354Y-140091837D01*
X131021350Y-140091837D01*
X130925692Y-140101762D01*
X130925688Y-140101763D01*
X130918834Y-140102474D01*
X130912298Y-140104655D01*
X130912296Y-140104655D01*
X130780194Y-140148728D01*
X130751054Y-140158450D01*
X130600652Y-140251522D01*
X130475695Y-140376697D01*
X130471856Y-140382925D01*
X130471852Y-140382930D01*
X130441841Y-140431617D01*
X130389069Y-140479110D01*
X130334582Y-140491500D01*
X130265369Y-140491500D01*
X130197248Y-140471498D01*
X130158228Y-140431807D01*
X130123478Y-140375652D01*
X129998303Y-140250695D01*
X129992072Y-140246854D01*
X129853968Y-140161725D01*
X129853966Y-140161724D01*
X129847738Y-140157885D01*
X129687254Y-140104655D01*
X129686389Y-140104368D01*
X129686387Y-140104368D01*
X129679861Y-140102203D01*
X129673025Y-140101503D01*
X129673022Y-140101502D01*
X129629969Y-140097091D01*
X129575400Y-140091500D01*
X128224600Y-140091500D01*
X128221354Y-140091837D01*
X128221350Y-140091837D01*
X128125692Y-140101762D01*
X128125688Y-140101763D01*
X128118834Y-140102474D01*
X128112298Y-140104655D01*
X128112296Y-140104655D01*
X127980194Y-140148728D01*
X127951054Y-140158450D01*
X127800652Y-140251522D01*
X127675695Y-140376697D01*
X127671855Y-140382927D01*
X127671854Y-140382928D01*
X127595486Y-140506820D01*
X127582885Y-140527262D01*
X127527203Y-140695139D01*
X127516500Y-140799600D01*
X127516500Y-141700400D01*
X126500589Y-141700400D01*
X126461942Y-141622031D01*
X126461939Y-141622026D01*
X126460115Y-141618327D01*
X126295633Y-141372162D01*
X126292919Y-141369068D01*
X126292915Y-141369062D01*
X126103136Y-141152662D01*
X126100427Y-141149573D01*
X126097338Y-141146864D01*
X125880938Y-140957085D01*
X125880932Y-140957081D01*
X125877838Y-140954367D01*
X125874412Y-140952078D01*
X125874407Y-140952074D01*
X125651027Y-140802817D01*
X125631673Y-140789885D01*
X125627974Y-140788061D01*
X125627969Y-140788058D01*
X125453415Y-140701978D01*
X125366145Y-140658941D01*
X125362239Y-140657615D01*
X125089710Y-140565104D01*
X125089706Y-140565103D01*
X125085797Y-140563776D01*
X125081753Y-140562972D01*
X125081747Y-140562970D01*
X124799465Y-140506820D01*
X124799459Y-140506819D01*
X124795426Y-140506017D01*
X124791321Y-140505748D01*
X124791314Y-140505747D01*
X124504119Y-140486924D01*
X124500000Y-140486654D01*
X124495881Y-140486924D01*
X124208686Y-140505747D01*
X124208679Y-140505748D01*
X124204574Y-140506017D01*
X124200541Y-140506819D01*
X124200535Y-140506820D01*
X123918253Y-140562970D01*
X123918247Y-140562972D01*
X123914203Y-140563776D01*
X123910294Y-140565103D01*
X123910290Y-140565104D01*
X123637761Y-140657615D01*
X123633855Y-140658941D01*
X123546585Y-140701978D01*
X123372031Y-140788058D01*
X123372026Y-140788061D01*
X123368327Y-140789885D01*
X123348973Y-140802817D01*
X123125593Y-140952074D01*
X123125588Y-140952078D01*
X123122162Y-140954367D01*
X123119068Y-140957081D01*
X123119062Y-140957085D01*
X122902662Y-141146864D01*
X122899573Y-141149573D01*
X122896864Y-141152662D01*
X122707085Y-141369062D01*
X122707081Y-141369068D01*
X122704367Y-141372162D01*
X122539885Y-141618327D01*
X122538061Y-141622026D01*
X122538058Y-141622031D01*
X122499411Y-141700400D01*
X122408941Y-141883855D01*
X122407616Y-141887760D01*
X122407615Y-141887761D01*
X122327660Y-142123303D01*
X122313776Y-142164203D01*
X122312972Y-142168247D01*
X122312970Y-142168253D01*
X122257086Y-142449201D01*
X122256017Y-142454574D01*
X122255748Y-142458679D01*
X122255747Y-142458686D01*
X122238008Y-142729340D01*
X122236654Y-142750000D01*
X112629655Y-142750000D01*
X111699266Y-134841695D01*
X113122251Y-134841695D01*
X113135110Y-135064715D01*
X113136247Y-135069761D01*
X113136248Y-135069767D01*
X113150606Y-135133475D01*
X113184222Y-135282639D01*
X113268266Y-135489616D01*
X113270965Y-135494020D01*
X113368934Y-135653891D01*
X113384987Y-135680088D01*
X113531250Y-135848938D01*
X113703126Y-135991632D01*
X113896000Y-136104338D01*
X114104692Y-136184030D01*
X114109760Y-136185061D01*
X114109763Y-136185062D01*
X114217017Y-136206883D01*
X114323597Y-136228567D01*
X114328772Y-136228757D01*
X114328774Y-136228757D01*
X114541673Y-136236564D01*
X114541677Y-136236564D01*
X114546837Y-136236753D01*
X114551957Y-136236097D01*
X114551959Y-136236097D01*
X114763288Y-136209025D01*
X114763289Y-136209025D01*
X114768416Y-136208368D01*
X114773366Y-136206883D01*
X114977429Y-136145661D01*
X114977434Y-136145659D01*
X114982384Y-136144174D01*
X115182994Y-136045896D01*
X115364860Y-135916173D01*
X115423160Y-135858077D01*
X115473479Y-135807933D01*
X115535851Y-135774017D01*
X115606658Y-135779205D01*
X115663419Y-135821851D01*
X115680401Y-135852954D01*
X115721676Y-135963054D01*
X115730214Y-135978649D01*
X115806715Y-136080724D01*
X115819276Y-136093285D01*
X115921351Y-136169786D01*
X115936946Y-136178324D01*
X116057394Y-136223478D01*
X116072649Y-136227105D01*
X116123514Y-136232631D01*
X116130328Y-136233000D01*
X116752885Y-136233000D01*
X116768124Y-136228525D01*
X116769329Y-136227135D01*
X116771000Y-136219452D01*
X116771000Y-136214884D01*
X117279000Y-136214884D01*
X117283475Y-136230123D01*
X117284865Y-136231328D01*
X117292548Y-136232999D01*
X117919669Y-136232999D01*
X117926490Y-136232629D01*
X117977352Y-136227105D01*
X117992604Y-136223479D01*
X118113054Y-136178324D01*
X118128649Y-136169786D01*
X118230724Y-136093285D01*
X118243285Y-136080724D01*
X118319786Y-135978649D01*
X118328324Y-135963054D01*
X118373478Y-135842606D01*
X118377105Y-135827351D01*
X118382631Y-135776486D01*
X118383000Y-135769672D01*
X118383000Y-135448134D01*
X123391500Y-135448134D01*
X123398255Y-135510316D01*
X123449385Y-135646705D01*
X123536739Y-135763261D01*
X123653295Y-135850615D01*
X123661704Y-135853767D01*
X123669575Y-135858077D01*
X123668664Y-135859741D01*
X123716490Y-135895663D01*
X123741193Y-135962224D01*
X123741500Y-135971009D01*
X123741500Y-136213001D01*
X123724619Y-136276000D01*
X123665473Y-136378444D01*
X123606458Y-136560072D01*
X123586496Y-136750000D01*
X123606458Y-136939928D01*
X123665473Y-137121556D01*
X123760960Y-137286944D01*
X123765378Y-137291851D01*
X123765379Y-137291852D01*
X123881693Y-137421032D01*
X123888747Y-137428866D01*
X124043248Y-137541118D01*
X124049276Y-137543802D01*
X124049278Y-137543803D01*
X124177054Y-137600692D01*
X124217712Y-137618794D01*
X124311112Y-137638647D01*
X124398056Y-137657128D01*
X124398061Y-137657128D01*
X124404513Y-137658500D01*
X124595487Y-137658500D01*
X124601939Y-137657128D01*
X124601944Y-137657128D01*
X124688888Y-137638647D01*
X124782288Y-137618794D01*
X124822946Y-137600692D01*
X124950722Y-137543803D01*
X124950724Y-137543802D01*
X124956752Y-137541118D01*
X125111253Y-137428866D01*
X125118307Y-137421032D01*
X125234621Y-137291852D01*
X125234622Y-137291851D01*
X125239040Y-137286944D01*
X125334527Y-137121556D01*
X125393542Y-136939928D01*
X125413504Y-136750000D01*
X125393542Y-136560072D01*
X125334527Y-136378444D01*
X125275381Y-136276000D01*
X125258500Y-136213001D01*
X125258500Y-135971009D01*
X125278502Y-135902888D01*
X125332158Y-135856395D01*
X125337694Y-135854097D01*
X125338296Y-135853768D01*
X125346705Y-135850615D01*
X125463261Y-135763261D01*
X125550615Y-135646705D01*
X125601745Y-135510316D01*
X125608500Y-135448134D01*
X125608500Y-134351866D01*
X125601745Y-134289684D01*
X125550615Y-134153295D01*
X125463261Y-134036739D01*
X125346705Y-133949385D01*
X125210316Y-133898255D01*
X125148134Y-133891500D01*
X123851866Y-133891500D01*
X123789684Y-133898255D01*
X123653295Y-133949385D01*
X123536739Y-134036739D01*
X123449385Y-134153295D01*
X123398255Y-134289684D01*
X123391500Y-134351866D01*
X123391500Y-135448134D01*
X118383000Y-135448134D01*
X118383000Y-135147115D01*
X118378525Y-135131876D01*
X118377135Y-135130671D01*
X118369452Y-135129000D01*
X117297115Y-135129000D01*
X117281876Y-135133475D01*
X117280671Y-135134865D01*
X117279000Y-135142548D01*
X117279000Y-136214884D01*
X116771000Y-136214884D01*
X116771000Y-134602885D01*
X117279000Y-134602885D01*
X117283475Y-134618124D01*
X117284865Y-134619329D01*
X117292548Y-134621000D01*
X118364884Y-134621000D01*
X118380123Y-134616525D01*
X118381328Y-134615135D01*
X118382999Y-134607452D01*
X118382999Y-133980331D01*
X118382629Y-133973510D01*
X118377105Y-133922648D01*
X118373479Y-133907396D01*
X118328324Y-133786946D01*
X118319786Y-133771351D01*
X118243285Y-133669276D01*
X118230724Y-133656715D01*
X118128649Y-133580214D01*
X118113054Y-133571676D01*
X117992606Y-133526522D01*
X117977351Y-133522895D01*
X117926486Y-133517369D01*
X117919672Y-133517000D01*
X117297115Y-133517000D01*
X117281876Y-133521475D01*
X117280671Y-133522865D01*
X117279000Y-133530548D01*
X117279000Y-134602885D01*
X116771000Y-134602885D01*
X116771000Y-133535116D01*
X116766525Y-133519877D01*
X116765135Y-133518672D01*
X116757452Y-133517001D01*
X116130331Y-133517001D01*
X116123510Y-133517371D01*
X116072648Y-133522895D01*
X116057396Y-133526521D01*
X115936946Y-133571676D01*
X115921351Y-133580214D01*
X115819276Y-133656715D01*
X115806715Y-133669276D01*
X115730214Y-133771351D01*
X115721676Y-133786946D01*
X115680297Y-133897322D01*
X115637655Y-133954087D01*
X115571093Y-133978786D01*
X115501744Y-133963578D01*
X115469121Y-133937891D01*
X115418151Y-133881876D01*
X115418148Y-133881873D01*
X115414670Y-133878051D01*
X115410619Y-133874852D01*
X115410615Y-133874848D01*
X115243414Y-133742800D01*
X115243410Y-133742798D01*
X115239359Y-133739598D01*
X115227688Y-133733155D01*
X115164299Y-133698163D01*
X115043789Y-133631638D01*
X115038920Y-133629914D01*
X115038916Y-133629912D01*
X114838087Y-133558795D01*
X114838083Y-133558794D01*
X114833212Y-133557069D01*
X114828119Y-133556162D01*
X114828116Y-133556161D01*
X114618373Y-133518800D01*
X114618367Y-133518799D01*
X114613284Y-133517894D01*
X114539452Y-133516992D01*
X114395081Y-133515228D01*
X114395079Y-133515228D01*
X114389911Y-133515165D01*
X114169091Y-133548955D01*
X113956756Y-133618357D01*
X113896645Y-133649649D01*
X113810933Y-133694268D01*
X113758607Y-133721507D01*
X113754474Y-133724610D01*
X113754471Y-133724612D01*
X113584100Y-133852530D01*
X113579965Y-133855635D01*
X113539236Y-133898255D01*
X113469290Y-133971450D01*
X113425629Y-134017138D01*
X113299743Y-134201680D01*
X113205688Y-134404305D01*
X113145989Y-134619570D01*
X113122251Y-134841695D01*
X111699266Y-134841695D01*
X110647349Y-125900400D01*
X115216500Y-125900400D01*
X115216837Y-125903646D01*
X115216837Y-125903650D01*
X115225940Y-125991379D01*
X115227474Y-126006166D01*
X115283450Y-126173946D01*
X115376522Y-126324348D01*
X115501697Y-126449305D01*
X115507927Y-126453145D01*
X115507928Y-126453146D01*
X115578594Y-126496705D01*
X115652262Y-126542115D01*
X115719290Y-126564347D01*
X115760150Y-126577900D01*
X115818510Y-126618331D01*
X115846068Y-126687277D01*
X115847153Y-126700615D01*
X115848719Y-126719867D01*
X115851140Y-126749637D01*
X115853396Y-126756601D01*
X115854587Y-126762560D01*
X115855971Y-126768415D01*
X115856818Y-126775681D01*
X115881735Y-126844327D01*
X115883152Y-126848455D01*
X115905649Y-126917899D01*
X115909445Y-126924154D01*
X115911951Y-126929628D01*
X115914670Y-126935058D01*
X115917167Y-126941937D01*
X115921180Y-126948057D01*
X115921180Y-126948058D01*
X115957186Y-127002976D01*
X115959523Y-127006680D01*
X115997405Y-127069107D01*
X116001121Y-127073315D01*
X116001122Y-127073316D01*
X116004803Y-127077484D01*
X116004776Y-127077508D01*
X116007429Y-127080500D01*
X116010132Y-127083733D01*
X116014144Y-127089852D01*
X116019456Y-127094884D01*
X116070383Y-127143128D01*
X116072825Y-127145506D01*
X121128727Y-132201407D01*
X121141113Y-132215819D01*
X121149649Y-132227417D01*
X121153992Y-132233318D01*
X121159570Y-132238057D01*
X121159573Y-132238060D01*
X121194275Y-132267541D01*
X121201791Y-132274471D01*
X121207480Y-132280160D01*
X121210334Y-132282418D01*
X121210344Y-132282427D01*
X121229742Y-132297774D01*
X121233142Y-132300562D01*
X121283207Y-132343095D01*
X121283211Y-132343098D01*
X121288785Y-132347833D01*
X121295300Y-132351160D01*
X121300337Y-132354519D01*
X121305475Y-132357692D01*
X121311216Y-132362234D01*
X121377375Y-132393155D01*
X121381269Y-132395058D01*
X121446308Y-132428269D01*
X121453417Y-132430008D01*
X121459051Y-132432104D01*
X121464821Y-132434023D01*
X121471450Y-132437122D01*
X121478613Y-132438612D01*
X121478616Y-132438613D01*
X121529330Y-132449161D01*
X121542935Y-132451991D01*
X121547201Y-132452957D01*
X121618110Y-132470308D01*
X121623712Y-132470656D01*
X121623715Y-132470656D01*
X121629264Y-132471000D01*
X121629262Y-132471035D01*
X121633234Y-132471275D01*
X121637455Y-132471652D01*
X121644615Y-132473141D01*
X121722042Y-132471046D01*
X121725450Y-132471000D01*
X123684830Y-132471000D01*
X123729060Y-132479018D01*
X123789684Y-132501745D01*
X123851866Y-132508500D01*
X125148134Y-132508500D01*
X125210316Y-132501745D01*
X125346705Y-132450615D01*
X125463261Y-132363261D01*
X125550615Y-132246705D01*
X125601745Y-132110316D01*
X125608500Y-132048134D01*
X125608500Y-131728871D01*
X125628502Y-131660750D01*
X125645405Y-131639776D01*
X125839776Y-131445405D01*
X125902088Y-131411379D01*
X125928871Y-131408500D01*
X128238411Y-131408500D01*
X128306532Y-131428502D01*
X128313976Y-131433674D01*
X128401372Y-131499174D01*
X128443887Y-131556033D01*
X128448913Y-131626852D01*
X128414853Y-131689145D01*
X128401372Y-131700826D01*
X128286739Y-131786739D01*
X128199385Y-131903295D01*
X128148255Y-132039684D01*
X128141500Y-132101866D01*
X128141500Y-132998134D01*
X128148255Y-133060316D01*
X128199385Y-133196705D01*
X128238285Y-133248608D01*
X128263131Y-133315114D01*
X128248078Y-133384496D01*
X128226552Y-133413267D01*
X128011089Y-133628730D01*
X127996677Y-133641116D01*
X127985082Y-133649649D01*
X127985077Y-133649654D01*
X127979182Y-133653992D01*
X127974443Y-133659570D01*
X127974440Y-133659573D01*
X127944965Y-133694268D01*
X127938035Y-133701784D01*
X127932340Y-133707479D01*
X127930060Y-133710361D01*
X127914719Y-133729751D01*
X127911928Y-133733155D01*
X127879478Y-133771351D01*
X127864667Y-133788785D01*
X127861339Y-133795301D01*
X127857972Y-133800350D01*
X127854805Y-133805479D01*
X127850266Y-133811216D01*
X127819345Y-133877375D01*
X127817442Y-133881269D01*
X127784231Y-133946308D01*
X127782492Y-133953416D01*
X127780393Y-133959059D01*
X127778476Y-133964822D01*
X127775378Y-133971450D01*
X127773888Y-133978612D01*
X127773888Y-133978613D01*
X127760514Y-134042912D01*
X127759544Y-134047196D01*
X127742192Y-134118110D01*
X127741500Y-134129264D01*
X127741464Y-134129262D01*
X127741225Y-134133255D01*
X127740851Y-134137447D01*
X127739360Y-134144615D01*
X127739558Y-134151932D01*
X127741454Y-134222021D01*
X127741500Y-134225428D01*
X127741500Y-137158650D01*
X127721498Y-137226771D01*
X127704674Y-137247667D01*
X127675695Y-137276697D01*
X127671855Y-137282927D01*
X127671854Y-137282928D01*
X127617259Y-137371498D01*
X127582885Y-137427262D01*
X127527203Y-137595139D01*
X127516500Y-137699600D01*
X127516500Y-138600400D01*
X127527474Y-138706166D01*
X127583450Y-138873946D01*
X127676522Y-139024348D01*
X127801697Y-139149305D01*
X127807927Y-139153145D01*
X127807928Y-139153146D01*
X127945090Y-139237694D01*
X127952262Y-139242115D01*
X128032005Y-139268564D01*
X128113611Y-139295632D01*
X128113613Y-139295632D01*
X128120139Y-139297797D01*
X128126975Y-139298497D01*
X128126978Y-139298498D01*
X128170031Y-139302909D01*
X128224600Y-139308500D01*
X129575400Y-139308500D01*
X129578646Y-139308163D01*
X129578650Y-139308163D01*
X129674308Y-139298238D01*
X129674312Y-139298237D01*
X129681166Y-139297526D01*
X129687702Y-139295345D01*
X129687704Y-139295345D01*
X129819806Y-139251272D01*
X129848946Y-139241550D01*
X129999348Y-139148478D01*
X130124305Y-139023303D01*
X130128146Y-139017072D01*
X130128148Y-139017070D01*
X130158159Y-138968383D01*
X130210931Y-138920890D01*
X130265418Y-138908500D01*
X130334631Y-138908500D01*
X130402752Y-138928502D01*
X130441772Y-138968193D01*
X130476522Y-139024348D01*
X130601697Y-139149305D01*
X130607927Y-139153145D01*
X130607928Y-139153146D01*
X130745090Y-139237694D01*
X130752262Y-139242115D01*
X130832005Y-139268564D01*
X130913611Y-139295632D01*
X130913613Y-139295632D01*
X130920139Y-139297797D01*
X130926975Y-139298497D01*
X130926978Y-139298498D01*
X130970031Y-139302909D01*
X131024600Y-139308500D01*
X132375400Y-139308500D01*
X132378646Y-139308163D01*
X132378650Y-139308163D01*
X132474308Y-139298238D01*
X132474312Y-139298237D01*
X132481166Y-139297526D01*
X132487702Y-139295345D01*
X132487704Y-139295345D01*
X132619806Y-139251272D01*
X132648946Y-139241550D01*
X132799348Y-139148478D01*
X132924305Y-139023303D01*
X132928146Y-139017072D01*
X132928148Y-139017070D01*
X132958159Y-138968383D01*
X133010931Y-138920890D01*
X133065418Y-138908500D01*
X133234631Y-138908500D01*
X133302752Y-138928502D01*
X133341772Y-138968193D01*
X133376522Y-139024348D01*
X133501697Y-139149305D01*
X133507927Y-139153145D01*
X133507928Y-139153146D01*
X133645090Y-139237694D01*
X133652262Y-139242115D01*
X133732005Y-139268564D01*
X133813611Y-139295632D01*
X133813613Y-139295632D01*
X133820139Y-139297797D01*
X133826975Y-139298497D01*
X133826978Y-139298498D01*
X133870031Y-139302909D01*
X133924600Y-139308500D01*
X135275400Y-139308500D01*
X135278646Y-139308163D01*
X135278650Y-139308163D01*
X135374308Y-139298238D01*
X135374312Y-139298237D01*
X135381166Y-139297526D01*
X135387702Y-139295345D01*
X135387704Y-139295345D01*
X135519806Y-139251272D01*
X135548946Y-139241550D01*
X135699348Y-139148478D01*
X135824305Y-139023303D01*
X135858273Y-138968197D01*
X135913275Y-138878968D01*
X135913276Y-138878966D01*
X135917115Y-138872738D01*
X135972797Y-138704861D01*
X135983500Y-138600400D01*
X135983500Y-137699600D01*
X135979236Y-137658500D01*
X135973238Y-137600692D01*
X135973237Y-137600688D01*
X135972526Y-137593834D01*
X135954939Y-137541118D01*
X135918868Y-137433002D01*
X135916550Y-137426054D01*
X135823478Y-137275652D01*
X135698303Y-137150695D01*
X135692072Y-137146854D01*
X135553968Y-137061725D01*
X135553966Y-137061724D01*
X135547738Y-137057885D01*
X135387254Y-137004655D01*
X135386389Y-137004368D01*
X135386387Y-137004368D01*
X135379861Y-137002203D01*
X135373025Y-137001503D01*
X135373022Y-137001502D01*
X135329969Y-136997091D01*
X135275400Y-136991500D01*
X133924600Y-136991500D01*
X133921354Y-136991837D01*
X133921350Y-136991837D01*
X133825692Y-137001762D01*
X133825688Y-137001763D01*
X133818834Y-137002474D01*
X133812298Y-137004655D01*
X133812296Y-137004655D01*
X133680194Y-137048728D01*
X133651054Y-137058450D01*
X133500652Y-137151522D01*
X133375695Y-137276697D01*
X133371856Y-137282925D01*
X133371852Y-137282930D01*
X133341841Y-137331617D01*
X133289069Y-137379110D01*
X133234582Y-137391500D01*
X133065369Y-137391500D01*
X132997248Y-137371498D01*
X132958228Y-137331807D01*
X132923478Y-137275652D01*
X132798303Y-137150695D01*
X132792072Y-137146854D01*
X132653968Y-137061725D01*
X132653966Y-137061724D01*
X132647738Y-137057885D01*
X132487254Y-137004655D01*
X132486389Y-137004368D01*
X132486387Y-137004368D01*
X132479861Y-137002203D01*
X132473025Y-137001503D01*
X132473022Y-137001502D01*
X132429969Y-136997091D01*
X132375400Y-136991500D01*
X131024600Y-136991500D01*
X131021354Y-136991837D01*
X131021350Y-136991837D01*
X130925692Y-137001762D01*
X130925688Y-137001763D01*
X130918834Y-137002474D01*
X130912298Y-137004655D01*
X130912296Y-137004655D01*
X130780194Y-137048728D01*
X130751054Y-137058450D01*
X130600652Y-137151522D01*
X130475695Y-137276697D01*
X130471856Y-137282925D01*
X130471852Y-137282930D01*
X130441841Y-137331617D01*
X130389069Y-137379110D01*
X130334582Y-137391500D01*
X130265369Y-137391500D01*
X130197248Y-137371498D01*
X130158228Y-137331807D01*
X130123478Y-137275652D01*
X129998303Y-137150695D01*
X129992072Y-137146854D01*
X129853968Y-137061725D01*
X129853966Y-137061724D01*
X129847738Y-137057885D01*
X129687254Y-137004655D01*
X129686389Y-137004368D01*
X129686387Y-137004368D01*
X129679861Y-137002203D01*
X129673025Y-137001503D01*
X129673022Y-137001502D01*
X129629969Y-136997091D01*
X129575400Y-136991500D01*
X129384500Y-136991500D01*
X129316379Y-136971498D01*
X129269886Y-136917842D01*
X129258500Y-136865500D01*
X129258500Y-134578871D01*
X129278502Y-134510750D01*
X129295405Y-134489776D01*
X130289776Y-133495405D01*
X130352088Y-133461379D01*
X130378871Y-133458500D01*
X130598134Y-133458500D01*
X130660316Y-133451745D01*
X130796705Y-133400615D01*
X130913261Y-133313261D01*
X131000615Y-133196705D01*
X131051745Y-133060316D01*
X131058500Y-132998134D01*
X131058500Y-132436941D01*
X131078502Y-132368820D01*
X131132158Y-132322327D01*
X131202432Y-132312223D01*
X131267012Y-132341717D01*
X131274734Y-132350005D01*
X131275008Y-132349731D01*
X131281358Y-132356081D01*
X131286739Y-132363261D01*
X131403295Y-132450615D01*
X131539684Y-132501745D01*
X131601866Y-132508500D01*
X133598134Y-132508500D01*
X133660316Y-132501745D01*
X133796705Y-132450615D01*
X133913261Y-132363261D01*
X134000615Y-132246705D01*
X134051745Y-132110316D01*
X134058500Y-132048134D01*
X134058500Y-131151866D01*
X134051745Y-131089684D01*
X134000615Y-130953295D01*
X133913261Y-130836739D01*
X133796705Y-130749385D01*
X133660316Y-130698255D01*
X133598134Y-130691500D01*
X133584500Y-130691500D01*
X133516379Y-130671498D01*
X133469886Y-130617842D01*
X133458500Y-130565500D01*
X133458500Y-127634500D01*
X133478502Y-127566379D01*
X133532158Y-127519886D01*
X133584500Y-127508500D01*
X134932930Y-127508500D01*
X134951880Y-127509933D01*
X134966115Y-127512099D01*
X134966119Y-127512099D01*
X134973349Y-127513199D01*
X134980641Y-127512606D01*
X134980644Y-127512606D01*
X135026018Y-127508915D01*
X135036233Y-127508500D01*
X135044293Y-127508500D01*
X135057583Y-127506951D01*
X135072507Y-127505211D01*
X135076882Y-127504778D01*
X135142339Y-127499454D01*
X135142342Y-127499453D01*
X135149637Y-127498860D01*
X135156601Y-127496604D01*
X135162560Y-127495413D01*
X135168415Y-127494029D01*
X135175681Y-127493182D01*
X135244327Y-127468265D01*
X135248455Y-127466848D01*
X135310936Y-127446607D01*
X135310938Y-127446606D01*
X135317899Y-127444351D01*
X135324154Y-127440555D01*
X135329628Y-127438049D01*
X135335058Y-127435330D01*
X135341937Y-127432833D01*
X135402976Y-127392814D01*
X135406680Y-127390477D01*
X135469107Y-127352595D01*
X135477484Y-127345197D01*
X135477508Y-127345224D01*
X135480500Y-127342571D01*
X135483733Y-127339868D01*
X135489852Y-127335856D01*
X135543128Y-127279617D01*
X135545506Y-127277175D01*
X136988911Y-125833770D01*
X137003323Y-125821384D01*
X137014918Y-125812851D01*
X137014923Y-125812846D01*
X137020818Y-125808508D01*
X137025557Y-125802930D01*
X137025560Y-125802927D01*
X137055035Y-125768232D01*
X137061965Y-125760716D01*
X137067660Y-125755021D01*
X137085281Y-125732749D01*
X137088072Y-125729345D01*
X137130591Y-125679297D01*
X137130592Y-125679295D01*
X137135333Y-125673715D01*
X137138661Y-125667199D01*
X137142028Y-125662150D01*
X137145195Y-125657021D01*
X137149734Y-125651284D01*
X137180655Y-125585125D01*
X137182561Y-125581225D01*
X137215769Y-125516192D01*
X137217508Y-125509084D01*
X137219607Y-125503441D01*
X137221524Y-125497678D01*
X137224622Y-125491050D01*
X137239487Y-125419583D01*
X137240457Y-125415299D01*
X137256473Y-125349845D01*
X137257808Y-125344390D01*
X137258500Y-125333236D01*
X137258536Y-125333238D01*
X137258775Y-125329245D01*
X137259149Y-125325053D01*
X137260640Y-125317885D01*
X137258546Y-125240479D01*
X137258500Y-125237072D01*
X137258500Y-115532069D01*
X137259933Y-115513118D01*
X137262099Y-115498883D01*
X137262099Y-115498881D01*
X137263199Y-115491651D01*
X137258915Y-115438982D01*
X137258500Y-115428767D01*
X137258500Y-115420707D01*
X137255211Y-115392493D01*
X137254778Y-115388118D01*
X137249454Y-115322661D01*
X137249453Y-115322658D01*
X137248860Y-115315363D01*
X137246604Y-115308399D01*
X137245413Y-115302440D01*
X137244029Y-115296585D01*
X137243182Y-115289319D01*
X137218265Y-115220673D01*
X137216848Y-115216545D01*
X137196607Y-115154064D01*
X137196606Y-115154062D01*
X137194351Y-115147101D01*
X137190555Y-115140846D01*
X137188049Y-115135372D01*
X137185330Y-115129942D01*
X137182833Y-115123063D01*
X137142809Y-115062016D01*
X137140472Y-115058312D01*
X137105509Y-115000693D01*
X137105505Y-115000688D01*
X137102595Y-114995892D01*
X137095197Y-114987516D01*
X137095223Y-114987493D01*
X137092574Y-114984503D01*
X137089866Y-114981264D01*
X137085856Y-114975148D01*
X137080549Y-114970121D01*
X137080546Y-114970117D01*
X137029617Y-114921872D01*
X137027175Y-114919494D01*
X136979609Y-114871928D01*
X136945583Y-114809616D01*
X136943782Y-114766389D01*
X136961529Y-114631590D01*
X136963156Y-114565000D01*
X136944852Y-114342361D01*
X136890431Y-114125702D01*
X136801354Y-113920840D01*
X136680014Y-113733277D01*
X136676532Y-113729450D01*
X136532798Y-113571488D01*
X136501746Y-113507642D01*
X136510141Y-113437143D01*
X136555317Y-113382375D01*
X136581761Y-113368706D01*
X136688297Y-113328767D01*
X136696705Y-113325615D01*
X136813261Y-113238261D01*
X136900615Y-113121705D01*
X136951745Y-112985316D01*
X136958500Y-112923134D01*
X136958500Y-111126866D01*
X136951745Y-111064684D01*
X136900615Y-110928295D01*
X136813261Y-110811739D01*
X136696705Y-110724385D01*
X136560316Y-110673255D01*
X136498134Y-110666500D01*
X134701866Y-110666500D01*
X134639684Y-110673255D01*
X134503295Y-110724385D01*
X134386739Y-110811739D01*
X134299385Y-110928295D01*
X134248255Y-111064684D01*
X134241500Y-111126866D01*
X134241500Y-112258629D01*
X134221498Y-112326750D01*
X134204595Y-112347724D01*
X133811089Y-112741230D01*
X133796677Y-112753616D01*
X133785082Y-112762149D01*
X133785077Y-112762154D01*
X133779182Y-112766492D01*
X133774443Y-112772070D01*
X133774440Y-112772073D01*
X133744965Y-112806768D01*
X133738035Y-112814284D01*
X133732340Y-112819979D01*
X133730060Y-112822861D01*
X133714719Y-112842251D01*
X133711928Y-112845655D01*
X133669409Y-112895703D01*
X133664667Y-112901285D01*
X133661339Y-112907801D01*
X133657972Y-112912850D01*
X133654805Y-112917979D01*
X133650266Y-112923716D01*
X133619345Y-112989875D01*
X133617442Y-112993769D01*
X133584231Y-113058808D01*
X133582492Y-113065916D01*
X133580393Y-113071559D01*
X133578476Y-113077322D01*
X133575378Y-113083950D01*
X133573888Y-113091112D01*
X133573888Y-113091113D01*
X133560514Y-113155412D01*
X133559544Y-113159696D01*
X133542192Y-113230610D01*
X133541500Y-113241764D01*
X133541464Y-113241762D01*
X133541225Y-113245755D01*
X133540851Y-113249947D01*
X133539360Y-113257115D01*
X133539558Y-113264432D01*
X133541454Y-113334521D01*
X133541500Y-113337928D01*
X133541500Y-115036408D01*
X133540067Y-115055358D01*
X133539052Y-115062032D01*
X133536801Y-115076827D01*
X133537394Y-115084119D01*
X133537394Y-115084122D01*
X133541085Y-115129496D01*
X133541500Y-115139711D01*
X133541500Y-115147771D01*
X133541925Y-115151415D01*
X133544789Y-115175985D01*
X133545222Y-115180360D01*
X133548336Y-115218638D01*
X133551140Y-115253115D01*
X133553396Y-115260079D01*
X133554587Y-115266038D01*
X133555971Y-115271893D01*
X133556818Y-115279159D01*
X133581735Y-115347805D01*
X133583152Y-115351933D01*
X133605649Y-115421377D01*
X133609445Y-115427632D01*
X133611951Y-115433106D01*
X133614670Y-115438536D01*
X133617167Y-115445415D01*
X133621180Y-115451535D01*
X133621180Y-115451536D01*
X133657186Y-115506454D01*
X133659523Y-115510158D01*
X133697405Y-115572585D01*
X133701121Y-115576793D01*
X133701122Y-115576794D01*
X133704803Y-115580962D01*
X133704776Y-115580986D01*
X133707429Y-115583978D01*
X133710132Y-115587211D01*
X133714144Y-115593330D01*
X133719456Y-115598362D01*
X133770383Y-115646606D01*
X133772825Y-115648984D01*
X135004595Y-116880754D01*
X135038621Y-116943066D01*
X135041500Y-116969849D01*
X135041500Y-124465500D01*
X135021498Y-124533621D01*
X134967842Y-124580114D01*
X134915500Y-124591500D01*
X133671247Y-124591500D01*
X133603126Y-124571498D01*
X133586692Y-124558916D01*
X133580547Y-124553354D01*
X133577224Y-124550346D01*
X133519933Y-124511703D01*
X133460183Y-124471401D01*
X133460178Y-124471398D01*
X133456464Y-124468893D01*
X133327572Y-124406446D01*
X133188812Y-124362162D01*
X133047574Y-124338400D01*
X132968627Y-124331318D01*
X132966205Y-124331288D01*
X132966198Y-124331288D01*
X132962884Y-124331248D01*
X132956285Y-124331167D01*
X132885620Y-124335767D01*
X132881964Y-124336005D01*
X132873779Y-124336271D01*
X132529481Y-124336271D01*
X132518223Y-124335767D01*
X132514249Y-124335411D01*
X132468627Y-124331318D01*
X132466205Y-124331288D01*
X132466198Y-124331288D01*
X132462884Y-124331248D01*
X132456285Y-124331167D01*
X132419993Y-124333529D01*
X132379592Y-124336159D01*
X132379582Y-124336160D01*
X132377171Y-124336317D01*
X132374762Y-124336662D01*
X132239839Y-124355984D01*
X132239833Y-124355985D01*
X132235394Y-124356621D01*
X132231089Y-124357880D01*
X132231084Y-124357881D01*
X132107846Y-124393919D01*
X132095590Y-124397503D01*
X132091517Y-124399355D01*
X132091514Y-124399356D01*
X132078659Y-124405201D01*
X132026508Y-124416500D01*
X128234500Y-124416500D01*
X128166379Y-124396498D01*
X128119886Y-124342842D01*
X128108500Y-124290500D01*
X128108500Y-123526866D01*
X128101745Y-123464684D01*
X128098973Y-123457288D01*
X128098971Y-123457282D01*
X128056589Y-123344229D01*
X128051406Y-123273422D01*
X128056589Y-123255771D01*
X128098971Y-123142718D01*
X128098973Y-123142712D01*
X128101745Y-123135316D01*
X128108500Y-123073134D01*
X128108500Y-120926866D01*
X128101745Y-120864684D01*
X128050615Y-120728295D01*
X127963261Y-120611739D01*
X127846705Y-120524385D01*
X127710316Y-120473255D01*
X127648134Y-120466500D01*
X127384500Y-120466500D01*
X127316379Y-120446498D01*
X127269886Y-120392842D01*
X127258500Y-120340500D01*
X127258500Y-106309500D01*
X127278502Y-106241379D01*
X127332158Y-106194886D01*
X127384500Y-106183500D01*
X127648134Y-106183500D01*
X127710316Y-106176745D01*
X127846705Y-106125615D01*
X127963261Y-106038261D01*
X128050615Y-105921705D01*
X128101745Y-105785316D01*
X128108500Y-105723134D01*
X128108500Y-102626866D01*
X128101745Y-102564684D01*
X128098973Y-102557288D01*
X128098971Y-102557282D01*
X128056589Y-102444229D01*
X128051406Y-102373422D01*
X128056589Y-102355771D01*
X128098971Y-102242718D01*
X128098973Y-102242712D01*
X128101745Y-102235316D01*
X128108500Y-102173134D01*
X128108500Y-101931695D01*
X134237251Y-101931695D01*
X134237548Y-101936848D01*
X134237548Y-101936851D01*
X134243011Y-102031590D01*
X134250110Y-102154715D01*
X134251247Y-102159761D01*
X134251248Y-102159767D01*
X134270393Y-102244717D01*
X134299222Y-102372639D01*
X134337461Y-102466811D01*
X134373710Y-102556081D01*
X134383266Y-102579616D01*
X134385965Y-102584020D01*
X134456407Y-102698971D01*
X134499987Y-102770088D01*
X134646250Y-102938938D01*
X134818126Y-103081632D01*
X135011000Y-103194338D01*
X135219692Y-103274030D01*
X135224760Y-103275061D01*
X135224763Y-103275062D01*
X135305559Y-103291500D01*
X135438597Y-103318567D01*
X135443772Y-103318757D01*
X135443774Y-103318757D01*
X135656673Y-103326564D01*
X135656677Y-103326564D01*
X135661837Y-103326753D01*
X135666957Y-103326097D01*
X135666959Y-103326097D01*
X135878288Y-103299025D01*
X135878289Y-103299025D01*
X135883416Y-103298368D01*
X135906308Y-103291500D01*
X136092429Y-103235661D01*
X136092434Y-103235659D01*
X136097384Y-103234174D01*
X136297994Y-103135896D01*
X136479860Y-103006173D01*
X136638096Y-102848489D01*
X136697594Y-102765689D01*
X136765435Y-102671277D01*
X136768453Y-102667077D01*
X136788327Y-102626866D01*
X136865136Y-102471453D01*
X136865137Y-102471451D01*
X136867430Y-102466811D01*
X136932370Y-102253069D01*
X136961529Y-102031590D01*
X136963156Y-101965000D01*
X136944852Y-101742361D01*
X136890431Y-101525702D01*
X136801354Y-101320840D01*
X136680014Y-101133277D01*
X136676532Y-101129450D01*
X136532798Y-100971488D01*
X136501746Y-100907642D01*
X136510141Y-100837143D01*
X136555317Y-100782375D01*
X136581761Y-100768706D01*
X136688297Y-100728767D01*
X136696705Y-100725615D01*
X136813261Y-100638261D01*
X136900615Y-100521705D01*
X136951745Y-100385316D01*
X136958500Y-100323134D01*
X136958500Y-98526866D01*
X136951745Y-98464684D01*
X136900615Y-98328295D01*
X136813261Y-98211739D01*
X136696705Y-98124385D01*
X136560316Y-98073255D01*
X136498134Y-98066500D01*
X134701866Y-98066500D01*
X134639684Y-98073255D01*
X134503295Y-98124385D01*
X134386739Y-98211739D01*
X134299385Y-98328295D01*
X134248255Y-98464684D01*
X134241500Y-98526866D01*
X134241500Y-100323134D01*
X134248255Y-100385316D01*
X134299385Y-100521705D01*
X134386739Y-100638261D01*
X134503295Y-100725615D01*
X134511704Y-100728767D01*
X134511705Y-100728768D01*
X134620451Y-100769535D01*
X134677216Y-100812176D01*
X134701916Y-100878738D01*
X134686709Y-100948087D01*
X134667316Y-100974568D01*
X134540629Y-101107138D01*
X134414743Y-101291680D01*
X134320688Y-101494305D01*
X134260989Y-101709570D01*
X134237251Y-101931695D01*
X128108500Y-101931695D01*
X128108500Y-100026866D01*
X128101745Y-99964684D01*
X128050615Y-99828295D01*
X127963261Y-99711739D01*
X127846705Y-99624385D01*
X127710316Y-99573255D01*
X127648134Y-99566500D01*
X127384500Y-99566500D01*
X127316379Y-99546498D01*
X127269886Y-99492842D01*
X127258500Y-99440500D01*
X127258500Y-85309500D01*
X127278502Y-85241379D01*
X127332158Y-85194886D01*
X127384500Y-85183500D01*
X127648134Y-85183500D01*
X127710316Y-85176745D01*
X127846705Y-85125615D01*
X127963261Y-85038261D01*
X128050615Y-84921705D01*
X128101745Y-84785316D01*
X128108500Y-84723134D01*
X128108500Y-81626866D01*
X128101745Y-81564684D01*
X128098973Y-81557288D01*
X128098971Y-81557282D01*
X128056589Y-81444229D01*
X128051406Y-81373422D01*
X128056589Y-81355771D01*
X128098971Y-81242718D01*
X128098973Y-81242712D01*
X128101745Y-81235316D01*
X128108500Y-81173134D01*
X128108500Y-79026866D01*
X128101745Y-78964684D01*
X128050615Y-78828295D01*
X127963261Y-78711739D01*
X127846705Y-78624385D01*
X127710316Y-78573255D01*
X127648134Y-78566500D01*
X127384500Y-78566500D01*
X127316379Y-78546498D01*
X127269886Y-78492842D01*
X127258500Y-78440500D01*
X127258500Y-74949500D01*
X127278502Y-74881379D01*
X127332158Y-74834886D01*
X127384500Y-74823500D01*
X134402491Y-74823500D01*
X134470612Y-74843502D01*
X134499402Y-74870595D01*
X134499987Y-74870088D01*
X134646250Y-75038938D01*
X134818126Y-75181632D01*
X135011000Y-75294338D01*
X135219692Y-75374030D01*
X135224760Y-75375061D01*
X135224763Y-75375062D01*
X135332017Y-75396883D01*
X135438597Y-75418567D01*
X135443772Y-75418757D01*
X135443774Y-75418757D01*
X135656673Y-75426564D01*
X135656677Y-75426564D01*
X135661837Y-75426753D01*
X135666957Y-75426097D01*
X135666959Y-75426097D01*
X135878288Y-75399025D01*
X135878289Y-75399025D01*
X135883416Y-75398368D01*
X135888366Y-75396883D01*
X136092429Y-75335661D01*
X136092434Y-75335659D01*
X136097384Y-75334174D01*
X136297994Y-75235896D01*
X136479860Y-75106173D01*
X136638096Y-74948489D01*
X136768453Y-74767077D01*
X136867430Y-74566811D01*
X136932370Y-74353069D01*
X136961529Y-74131590D01*
X136963156Y-74065000D01*
X136944852Y-73842361D01*
X136890431Y-73625702D01*
X136801354Y-73420840D01*
X136721997Y-73298173D01*
X136682822Y-73237617D01*
X136682820Y-73237614D01*
X136680014Y-73233277D01*
X136676540Y-73229459D01*
X136676533Y-73229450D01*
X136532435Y-73071088D01*
X136501383Y-73007242D01*
X136509779Y-72936744D01*
X136554956Y-72881976D01*
X136581400Y-72868307D01*
X136688052Y-72828325D01*
X136703649Y-72819786D01*
X136805724Y-72743285D01*
X136818285Y-72730724D01*
X136894786Y-72628649D01*
X136903324Y-72613054D01*
X136948478Y-72492606D01*
X136952105Y-72477351D01*
X136957631Y-72426486D01*
X136958000Y-72419672D01*
X136958000Y-71797115D01*
X136953525Y-71781876D01*
X136952135Y-71780671D01*
X136944452Y-71779000D01*
X134260116Y-71779000D01*
X134244877Y-71783475D01*
X134243672Y-71784865D01*
X134242001Y-71792548D01*
X134242001Y-72419669D01*
X134242371Y-72426490D01*
X134247895Y-72477352D01*
X134251521Y-72492604D01*
X134296676Y-72613054D01*
X134305214Y-72628649D01*
X134381715Y-72730724D01*
X134394276Y-72743285D01*
X134496351Y-72819786D01*
X134511946Y-72828324D01*
X134620827Y-72869142D01*
X134677591Y-72911784D01*
X134702291Y-72978345D01*
X134687083Y-73047694D01*
X134667691Y-73074175D01*
X134583258Y-73162529D01*
X134540629Y-73207138D01*
X134510363Y-73251507D01*
X134455455Y-73296507D01*
X134406277Y-73306500D01*
X127989729Y-73306500D01*
X127921608Y-73286498D01*
X127875115Y-73232842D01*
X127863729Y-73180500D01*
X127863729Y-73000001D01*
X127858500Y-72926890D01*
X127827051Y-72819786D01*
X127819843Y-72795236D01*
X127819842Y-72795234D01*
X127817304Y-72786590D01*
X127791905Y-72747069D01*
X127743122Y-72671160D01*
X127743120Y-72671157D01*
X127738250Y-72663580D01*
X127697938Y-72628649D01*
X127634555Y-72573727D01*
X127634552Y-72573725D01*
X127627743Y-72567825D01*
X127494734Y-72507082D01*
X127350000Y-72486272D01*
X126929481Y-72486272D01*
X126918223Y-72485768D01*
X126914249Y-72485412D01*
X126868627Y-72481319D01*
X126866205Y-72481289D01*
X126866198Y-72481289D01*
X126862884Y-72481249D01*
X126856285Y-72481168D01*
X126785620Y-72485768D01*
X126781964Y-72486006D01*
X126773779Y-72486272D01*
X126429481Y-72486272D01*
X126418223Y-72485768D01*
X126414249Y-72485412D01*
X126368627Y-72481319D01*
X126366205Y-72481289D01*
X126366198Y-72481289D01*
X126362884Y-72481249D01*
X126356285Y-72481168D01*
X126285620Y-72485768D01*
X126281964Y-72486006D01*
X126273779Y-72486272D01*
X125850000Y-72486272D01*
X125841024Y-72486914D01*
X125783627Y-72491019D01*
X125783626Y-72491019D01*
X125776889Y-72491501D01*
X125697382Y-72514846D01*
X125645235Y-72530158D01*
X125645233Y-72530159D01*
X125636589Y-72532697D01*
X125629010Y-72537568D01*
X125521159Y-72606879D01*
X125521156Y-72606881D01*
X125513579Y-72611751D01*
X125507678Y-72618561D01*
X125423726Y-72715446D01*
X125423724Y-72715449D01*
X125417824Y-72722258D01*
X125357081Y-72855267D01*
X125336271Y-73000001D01*
X125336271Y-73490009D01*
X125336269Y-73490779D01*
X125335813Y-73565418D01*
X125355580Y-73709728D01*
X125394937Y-73847437D01*
X125454414Y-73980399D01*
X125456800Y-73984181D01*
X125456804Y-73984188D01*
X125505677Y-74061646D01*
X125530840Y-74101527D01*
X125625246Y-74212453D01*
X125628610Y-74215424D01*
X125698907Y-74277507D01*
X125736726Y-74337592D01*
X125741500Y-74371949D01*
X125741500Y-78440500D01*
X125721498Y-78508621D01*
X125667842Y-78555114D01*
X125615500Y-78566500D01*
X125351866Y-78566500D01*
X125289684Y-78573255D01*
X125153295Y-78624385D01*
X125036739Y-78711739D01*
X124949385Y-78828295D01*
X124898255Y-78964684D01*
X124891500Y-79026866D01*
X124891500Y-79115500D01*
X124871498Y-79183621D01*
X124817842Y-79230114D01*
X124765500Y-79241500D01*
X124054802Y-79241500D01*
X123986681Y-79221498D01*
X123953976Y-79191065D01*
X123918642Y-79143919D01*
X123913261Y-79136739D01*
X123796705Y-79049385D01*
X123660316Y-78998255D01*
X123598134Y-78991500D01*
X120901866Y-78991500D01*
X120839684Y-78998255D01*
X120703295Y-79049385D01*
X120586739Y-79136739D01*
X120499385Y-79253295D01*
X120448255Y-79389684D01*
X120441500Y-79451866D01*
X120441500Y-80933629D01*
X120421498Y-81001750D01*
X120404595Y-81022724D01*
X118511089Y-82916230D01*
X118496677Y-82928616D01*
X118485082Y-82937149D01*
X118485077Y-82937154D01*
X118479182Y-82941492D01*
X118474443Y-82947070D01*
X118474440Y-82947073D01*
X118444965Y-82981768D01*
X118438035Y-82989284D01*
X118432340Y-82994979D01*
X118430060Y-82997861D01*
X118414719Y-83017251D01*
X118411928Y-83020655D01*
X118369409Y-83070703D01*
X118364667Y-83076285D01*
X118361339Y-83082801D01*
X118357972Y-83087850D01*
X118354805Y-83092979D01*
X118350266Y-83098716D01*
X118319345Y-83164875D01*
X118317442Y-83168769D01*
X118284231Y-83233808D01*
X118282492Y-83240916D01*
X118280393Y-83246559D01*
X118278476Y-83252322D01*
X118275378Y-83258950D01*
X118273888Y-83266112D01*
X118273888Y-83266113D01*
X118260514Y-83330412D01*
X118259544Y-83334696D01*
X118242192Y-83405610D01*
X118241500Y-83416764D01*
X118241464Y-83416762D01*
X118241225Y-83420755D01*
X118240851Y-83424947D01*
X118239360Y-83432115D01*
X118239558Y-83439432D01*
X118241454Y-83509521D01*
X118241500Y-83512928D01*
X118241500Y-119583629D01*
X118221498Y-119651750D01*
X118204595Y-119672724D01*
X116722724Y-121154595D01*
X116660412Y-121188621D01*
X116633629Y-121191500D01*
X115924600Y-121191500D01*
X115921354Y-121191837D01*
X115921350Y-121191837D01*
X115825692Y-121201762D01*
X115825688Y-121201763D01*
X115818834Y-121202474D01*
X115812298Y-121204655D01*
X115812296Y-121204655D01*
X115680194Y-121248728D01*
X115651054Y-121258450D01*
X115500652Y-121351522D01*
X115375695Y-121476697D01*
X115371855Y-121482927D01*
X115371854Y-121482928D01*
X115332027Y-121547540D01*
X115282885Y-121627262D01*
X115227203Y-121795139D01*
X115216500Y-121899600D01*
X115216500Y-122800400D01*
X115227474Y-122906166D01*
X115283450Y-123073946D01*
X115376522Y-123224348D01*
X115501697Y-123349305D01*
X115507927Y-123353145D01*
X115507928Y-123353146D01*
X115645090Y-123437694D01*
X115652262Y-123442115D01*
X115720306Y-123464684D01*
X115813611Y-123495632D01*
X115813613Y-123495632D01*
X115820139Y-123497797D01*
X115826975Y-123498497D01*
X115826978Y-123498498D01*
X115870031Y-123502909D01*
X115924600Y-123508500D01*
X117275400Y-123508500D01*
X117278646Y-123508163D01*
X117278650Y-123508163D01*
X117374308Y-123498238D01*
X117374312Y-123498237D01*
X117381166Y-123497526D01*
X117387702Y-123495345D01*
X117387704Y-123495345D01*
X117519806Y-123451272D01*
X117548946Y-123441550D01*
X117699348Y-123348478D01*
X117824305Y-123223303D01*
X117837726Y-123201531D01*
X117913275Y-123078968D01*
X117913276Y-123078966D01*
X117917115Y-123072738D01*
X117972797Y-122904861D01*
X117983500Y-122800400D01*
X117983500Y-122091371D01*
X118003502Y-122023250D01*
X118020405Y-122002276D01*
X119488911Y-120533770D01*
X119503323Y-120521384D01*
X119514918Y-120512851D01*
X119514923Y-120512846D01*
X119520818Y-120508508D01*
X119525557Y-120502930D01*
X119525560Y-120502927D01*
X119555035Y-120468232D01*
X119561965Y-120460716D01*
X119567661Y-120455020D01*
X119569924Y-120452159D01*
X119569929Y-120452154D01*
X119585293Y-120432734D01*
X119588082Y-120429333D01*
X119630592Y-120379296D01*
X119630594Y-120379294D01*
X119635333Y-120373715D01*
X119638662Y-120367195D01*
X119642028Y-120362148D01*
X119645193Y-120357024D01*
X119649735Y-120351283D01*
X119680637Y-120285164D01*
X119682565Y-120281218D01*
X119712442Y-120222708D01*
X119712443Y-120222706D01*
X119715769Y-120216192D01*
X119717508Y-120209086D01*
X119719609Y-120203436D01*
X119721524Y-120197679D01*
X119724622Y-120191050D01*
X119739491Y-120119565D01*
X119740461Y-120115282D01*
X119756473Y-120049844D01*
X119757808Y-120044390D01*
X119758500Y-120033236D01*
X119758535Y-120033238D01*
X119758775Y-120029266D01*
X119759152Y-120025045D01*
X119760641Y-120017885D01*
X119758546Y-119940458D01*
X119758500Y-119937050D01*
X119758500Y-105348134D01*
X120441500Y-105348134D01*
X120448255Y-105410316D01*
X120499385Y-105546705D01*
X120586739Y-105663261D01*
X120703295Y-105750615D01*
X120839684Y-105801745D01*
X120901866Y-105808500D01*
X121365500Y-105808500D01*
X121433621Y-105828502D01*
X121480114Y-105882158D01*
X121491500Y-105934500D01*
X121491500Y-121015500D01*
X121471498Y-121083621D01*
X121417842Y-121130114D01*
X121365500Y-121141500D01*
X120951866Y-121141500D01*
X120889684Y-121148255D01*
X120753295Y-121199385D01*
X120636739Y-121286739D01*
X120549385Y-121403295D01*
X120498255Y-121539684D01*
X120491500Y-121601866D01*
X120491500Y-123198134D01*
X120498255Y-123260316D01*
X120549385Y-123396705D01*
X120636739Y-123513261D01*
X120753295Y-123600615D01*
X120889684Y-123651745D01*
X120951866Y-123658500D01*
X123648134Y-123658500D01*
X123710316Y-123651745D01*
X123846705Y-123600615D01*
X123963261Y-123513261D01*
X124050615Y-123396705D01*
X124101745Y-123260316D01*
X124108500Y-123198134D01*
X124108500Y-121601866D01*
X124101745Y-121539684D01*
X124050615Y-121403295D01*
X123963261Y-121286739D01*
X123846705Y-121199385D01*
X123710316Y-121148255D01*
X123648134Y-121141500D01*
X123134500Y-121141500D01*
X123066379Y-121121498D01*
X123019886Y-121067842D01*
X123008500Y-121015500D01*
X123008500Y-105934500D01*
X123028502Y-105866379D01*
X123082158Y-105819886D01*
X123134500Y-105808500D01*
X123598134Y-105808500D01*
X123660316Y-105801745D01*
X123796705Y-105750615D01*
X123913261Y-105663261D01*
X124000615Y-105546705D01*
X124051745Y-105410316D01*
X124058500Y-105348134D01*
X124058500Y-103751866D01*
X124051745Y-103689684D01*
X124000615Y-103553295D01*
X123913261Y-103436739D01*
X123796705Y-103349385D01*
X123660316Y-103298255D01*
X123598134Y-103291500D01*
X120901866Y-103291500D01*
X120839684Y-103298255D01*
X120703295Y-103349385D01*
X120586739Y-103436739D01*
X120499385Y-103553295D01*
X120448255Y-103689684D01*
X120441500Y-103751866D01*
X120441500Y-105348134D01*
X119758500Y-105348134D01*
X119758500Y-83866371D01*
X119778502Y-83798250D01*
X119795405Y-83777276D01*
X120226405Y-83346276D01*
X120288717Y-83312250D01*
X120359532Y-83317315D01*
X120416368Y-83359862D01*
X120441179Y-83426382D01*
X120441500Y-83435371D01*
X120441500Y-84148134D01*
X120448255Y-84210316D01*
X120499385Y-84346705D01*
X120586739Y-84463261D01*
X120703295Y-84550615D01*
X120839684Y-84601745D01*
X120901866Y-84608500D01*
X121365500Y-84608500D01*
X121433621Y-84628502D01*
X121480114Y-84682158D01*
X121491500Y-84734500D01*
X121491500Y-100065500D01*
X121471498Y-100133621D01*
X121417842Y-100180114D01*
X121365500Y-100191500D01*
X120901866Y-100191500D01*
X120839684Y-100198255D01*
X120703295Y-100249385D01*
X120586739Y-100336739D01*
X120499385Y-100453295D01*
X120448255Y-100589684D01*
X120441500Y-100651866D01*
X120441500Y-102248134D01*
X120448255Y-102310316D01*
X120499385Y-102446705D01*
X120586739Y-102563261D01*
X120703295Y-102650615D01*
X120839684Y-102701745D01*
X120901866Y-102708500D01*
X123598134Y-102708500D01*
X123660316Y-102701745D01*
X123796705Y-102650615D01*
X123913261Y-102563261D01*
X124000615Y-102446705D01*
X124051745Y-102310316D01*
X124058500Y-102248134D01*
X124058500Y-100651866D01*
X124051745Y-100589684D01*
X124000615Y-100453295D01*
X123913261Y-100336739D01*
X123796705Y-100249385D01*
X123660316Y-100198255D01*
X123598134Y-100191500D01*
X123134500Y-100191500D01*
X123066379Y-100171498D01*
X123019886Y-100117842D01*
X123008500Y-100065500D01*
X123008500Y-84734500D01*
X123028502Y-84666379D01*
X123082158Y-84619886D01*
X123134500Y-84608500D01*
X123598134Y-84608500D01*
X123660316Y-84601745D01*
X123796705Y-84550615D01*
X123913261Y-84463261D01*
X124000615Y-84346705D01*
X124051745Y-84210316D01*
X124058500Y-84148134D01*
X124058500Y-82551866D01*
X124051745Y-82489684D01*
X124000615Y-82353295D01*
X123913261Y-82236739D01*
X123796705Y-82149385D01*
X123660316Y-82098255D01*
X123598134Y-82091500D01*
X121785371Y-82091500D01*
X121717250Y-82071498D01*
X121670757Y-82017842D01*
X121660653Y-81947568D01*
X121690147Y-81882988D01*
X121696276Y-81876405D01*
X122027276Y-81545405D01*
X122089588Y-81511379D01*
X122116371Y-81508500D01*
X123598134Y-81508500D01*
X123660316Y-81501745D01*
X123796705Y-81450615D01*
X123913261Y-81363261D01*
X124000615Y-81246705D01*
X124051745Y-81110316D01*
X124058500Y-81048134D01*
X124058500Y-80884500D01*
X124078502Y-80816379D01*
X124132158Y-80769886D01*
X124184500Y-80758500D01*
X124765500Y-80758500D01*
X124833621Y-80778502D01*
X124880114Y-80832158D01*
X124891500Y-80884500D01*
X124891500Y-81173134D01*
X124898255Y-81235316D01*
X124901027Y-81242712D01*
X124901029Y-81242718D01*
X124943411Y-81355771D01*
X124948594Y-81426578D01*
X124943411Y-81444229D01*
X124901029Y-81557282D01*
X124901027Y-81557288D01*
X124898255Y-81564684D01*
X124891500Y-81626866D01*
X124891500Y-84723134D01*
X124898255Y-84785316D01*
X124949385Y-84921705D01*
X125036739Y-85038261D01*
X125153295Y-85125615D01*
X125289684Y-85176745D01*
X125351866Y-85183500D01*
X125615500Y-85183500D01*
X125683621Y-85203502D01*
X125730114Y-85257158D01*
X125741500Y-85309500D01*
X125741500Y-99440500D01*
X125721498Y-99508621D01*
X125667842Y-99555114D01*
X125615500Y-99566500D01*
X125351866Y-99566500D01*
X125289684Y-99573255D01*
X125153295Y-99624385D01*
X125036739Y-99711739D01*
X124949385Y-99828295D01*
X124898255Y-99964684D01*
X124891500Y-100026866D01*
X124891500Y-102173134D01*
X124898255Y-102235316D01*
X124901027Y-102242712D01*
X124901029Y-102242718D01*
X124943411Y-102355771D01*
X124948594Y-102426578D01*
X124943411Y-102444229D01*
X124901029Y-102557282D01*
X124901027Y-102557288D01*
X124898255Y-102564684D01*
X124891500Y-102626866D01*
X124891500Y-105723134D01*
X124898255Y-105785316D01*
X124949385Y-105921705D01*
X125036739Y-106038261D01*
X125153295Y-106125615D01*
X125289684Y-106176745D01*
X125351866Y-106183500D01*
X125615500Y-106183500D01*
X125683621Y-106203502D01*
X125730114Y-106257158D01*
X125741500Y-106309500D01*
X125741500Y-120340500D01*
X125721498Y-120408621D01*
X125667842Y-120455114D01*
X125615500Y-120466500D01*
X125351866Y-120466500D01*
X125289684Y-120473255D01*
X125153295Y-120524385D01*
X125036739Y-120611739D01*
X124949385Y-120728295D01*
X124898255Y-120864684D01*
X124891500Y-120926866D01*
X124891500Y-123073134D01*
X124898255Y-123135316D01*
X124901027Y-123142712D01*
X124901029Y-123142718D01*
X124943411Y-123255771D01*
X124948594Y-123326578D01*
X124943411Y-123344229D01*
X124901029Y-123457282D01*
X124901027Y-123457288D01*
X124898255Y-123464684D01*
X124891500Y-123526866D01*
X124891500Y-124290500D01*
X124871498Y-124358621D01*
X124817842Y-124405114D01*
X124765500Y-124416500D01*
X124043413Y-124416500D01*
X123975292Y-124396498D01*
X123963380Y-124386898D01*
X123963261Y-124386739D01*
X123956082Y-124381358D01*
X123899303Y-124338805D01*
X123846705Y-124299385D01*
X123710316Y-124248255D01*
X123648134Y-124241500D01*
X120951866Y-124241500D01*
X120889684Y-124248255D01*
X120753295Y-124299385D01*
X120636739Y-124386739D01*
X120549385Y-124503295D01*
X120498255Y-124639684D01*
X120491500Y-124701866D01*
X120491500Y-126298134D01*
X120498255Y-126360316D01*
X120549385Y-126496705D01*
X120636739Y-126613261D01*
X120753295Y-126700615D01*
X120889684Y-126751745D01*
X120951866Y-126758500D01*
X123648134Y-126758500D01*
X123710316Y-126751745D01*
X123846705Y-126700615D01*
X123963261Y-126613261D01*
X124050615Y-126496705D01*
X124101745Y-126360316D01*
X124108500Y-126298134D01*
X124108500Y-126059500D01*
X124128502Y-125991379D01*
X124182158Y-125944886D01*
X124234500Y-125933500D01*
X124765500Y-125933500D01*
X124833621Y-125953502D01*
X124880114Y-126007158D01*
X124891500Y-126059500D01*
X124891500Y-126623134D01*
X124898255Y-126685316D01*
X124949385Y-126821705D01*
X125036739Y-126938261D01*
X125153295Y-127025615D01*
X125289684Y-127076745D01*
X125351866Y-127083500D01*
X127648134Y-127083500D01*
X127710316Y-127076745D01*
X127846705Y-127025615D01*
X127963261Y-126938261D01*
X128050615Y-126821705D01*
X128101745Y-126685316D01*
X128108500Y-126623134D01*
X128108500Y-126059500D01*
X128128502Y-125991379D01*
X128182158Y-125944886D01*
X128234500Y-125933500D01*
X131321988Y-125933500D01*
X131390109Y-125953502D01*
X131436602Y-126007158D01*
X131446705Y-126077432D01*
X131436271Y-126150000D01*
X131436271Y-126640008D01*
X131436269Y-126640778D01*
X131435952Y-126692715D01*
X131435813Y-126715417D01*
X131455580Y-126859727D01*
X131494937Y-126997436D01*
X131554414Y-127130398D01*
X131556800Y-127134180D01*
X131556804Y-127134187D01*
X131563172Y-127144279D01*
X131630840Y-127251526D01*
X131725246Y-127362452D01*
X131832597Y-127457260D01*
X131836334Y-127459715D01*
X131836337Y-127459717D01*
X131884677Y-127491470D01*
X131930631Y-127545588D01*
X131941500Y-127596782D01*
X131941500Y-130565500D01*
X131921498Y-130633621D01*
X131867842Y-130680114D01*
X131815500Y-130691500D01*
X131601866Y-130691500D01*
X131539684Y-130698255D01*
X131403295Y-130749385D01*
X131286739Y-130836739D01*
X131281358Y-130843919D01*
X131275008Y-130850269D01*
X131272761Y-130848022D01*
X131228456Y-130881143D01*
X131157637Y-130886162D01*
X131095347Y-130852097D01*
X131061362Y-130789762D01*
X131058500Y-130763059D01*
X131058500Y-130201866D01*
X131051745Y-130139684D01*
X131000615Y-130003295D01*
X130913261Y-129886739D01*
X130796705Y-129799385D01*
X130660316Y-129748255D01*
X130598134Y-129741500D01*
X128601866Y-129741500D01*
X128539684Y-129748255D01*
X128403295Y-129799385D01*
X128313976Y-129866326D01*
X128247470Y-129891174D01*
X128238411Y-129891500D01*
X125629570Y-129891500D01*
X125610620Y-129890067D01*
X125596385Y-129887901D01*
X125596381Y-129887901D01*
X125589151Y-129886801D01*
X125581859Y-129887394D01*
X125581856Y-129887394D01*
X125536482Y-129891085D01*
X125526267Y-129891500D01*
X125518207Y-129891500D01*
X125514573Y-129891924D01*
X125514567Y-129891924D01*
X125501542Y-129893443D01*
X125489980Y-129894791D01*
X125485632Y-129895221D01*
X125412864Y-129901140D01*
X125405903Y-129903395D01*
X125399963Y-129904582D01*
X125394088Y-129905971D01*
X125386819Y-129906818D01*
X125318170Y-129931736D01*
X125314042Y-129933153D01*
X125251564Y-129953393D01*
X125251562Y-129953394D01*
X125244601Y-129955649D01*
X125238346Y-129959445D01*
X125232872Y-129961951D01*
X125227442Y-129964670D01*
X125220563Y-129967167D01*
X125214443Y-129971180D01*
X125214442Y-129971180D01*
X125159524Y-130007186D01*
X125155820Y-130009523D01*
X125093393Y-130047405D01*
X125085016Y-130054803D01*
X125084992Y-130054776D01*
X125082000Y-130057429D01*
X125078767Y-130060132D01*
X125072648Y-130064144D01*
X125067616Y-130069456D01*
X125019372Y-130120383D01*
X125016994Y-130122825D01*
X124685224Y-130454595D01*
X124622912Y-130488621D01*
X124596129Y-130491500D01*
X123851866Y-130491500D01*
X123789684Y-130498255D01*
X123653295Y-130549385D01*
X123536739Y-130636739D01*
X123449385Y-130753295D01*
X123446233Y-130761703D01*
X123404798Y-130872230D01*
X123362156Y-130928994D01*
X123295595Y-130953694D01*
X123286816Y-130954000D01*
X122078871Y-130954000D01*
X122010750Y-130933998D01*
X121989776Y-130917095D01*
X117699340Y-126626659D01*
X117665314Y-126564347D01*
X117670379Y-126493532D01*
X117701570Y-126450696D01*
X117699348Y-126448478D01*
X117819134Y-126328483D01*
X117824305Y-126323303D01*
X117837726Y-126301531D01*
X117913275Y-126178968D01*
X117913276Y-126178966D01*
X117917115Y-126172738D01*
X117972797Y-126004861D01*
X117974179Y-125991379D01*
X117978942Y-125944886D01*
X117983500Y-125900400D01*
X117983500Y-124999600D01*
X117972526Y-124893834D01*
X117916550Y-124726054D01*
X117823478Y-124575652D01*
X117698303Y-124450695D01*
X117626518Y-124406446D01*
X117553968Y-124361725D01*
X117553966Y-124361724D01*
X117547738Y-124357885D01*
X117467185Y-124331167D01*
X117386389Y-124304368D01*
X117386387Y-124304368D01*
X117379861Y-124302203D01*
X117373025Y-124301503D01*
X117373022Y-124301502D01*
X117329969Y-124297091D01*
X117275400Y-124291500D01*
X115924600Y-124291500D01*
X115921354Y-124291837D01*
X115921350Y-124291837D01*
X115825692Y-124301762D01*
X115825688Y-124301763D01*
X115818834Y-124302474D01*
X115812298Y-124304655D01*
X115812296Y-124304655D01*
X115717868Y-124336159D01*
X115651054Y-124358450D01*
X115500652Y-124451522D01*
X115375695Y-124576697D01*
X115371855Y-124582927D01*
X115371854Y-124582928D01*
X115332027Y-124647540D01*
X115282885Y-124727262D01*
X115227203Y-124895139D01*
X115216500Y-124999600D01*
X115216500Y-125900400D01*
X110647349Y-125900400D01*
X107993917Y-103346233D01*
X104426087Y-73019669D01*
X113117001Y-73019669D01*
X113117371Y-73026490D01*
X113122895Y-73077352D01*
X113126521Y-73092604D01*
X113171676Y-73213054D01*
X113180214Y-73228649D01*
X113256715Y-73330724D01*
X113269276Y-73343285D01*
X113371351Y-73419786D01*
X113386946Y-73428324D01*
X113507394Y-73473478D01*
X113522649Y-73477105D01*
X113573514Y-73482631D01*
X113580328Y-73483000D01*
X114202885Y-73483000D01*
X114218124Y-73478525D01*
X114219329Y-73477135D01*
X114221000Y-73469452D01*
X114221000Y-73464884D01*
X114729000Y-73464884D01*
X114733475Y-73480123D01*
X114734865Y-73481328D01*
X114742548Y-73482999D01*
X115369669Y-73482999D01*
X115376490Y-73482629D01*
X115427352Y-73477105D01*
X115442604Y-73473479D01*
X115563054Y-73428324D01*
X115578649Y-73419786D01*
X115680724Y-73343285D01*
X115693285Y-73330724D01*
X115769786Y-73228649D01*
X115778324Y-73213054D01*
X115819225Y-73103952D01*
X115861867Y-73047188D01*
X115928428Y-73022488D01*
X115997777Y-73037696D01*
X116032444Y-73065684D01*
X116057865Y-73095031D01*
X116057869Y-73095035D01*
X116061250Y-73098938D01*
X116233126Y-73241632D01*
X116426000Y-73354338D01*
X116634692Y-73434030D01*
X116639760Y-73435061D01*
X116639763Y-73435062D01*
X116747017Y-73456883D01*
X116853597Y-73478567D01*
X116858772Y-73478757D01*
X116858774Y-73478757D01*
X117071673Y-73486564D01*
X117071677Y-73486564D01*
X117076837Y-73486753D01*
X117081957Y-73486097D01*
X117081959Y-73486097D01*
X117293288Y-73459025D01*
X117293289Y-73459025D01*
X117298416Y-73458368D01*
X117303366Y-73456883D01*
X117507429Y-73395661D01*
X117507434Y-73395659D01*
X117512384Y-73394174D01*
X117712994Y-73295896D01*
X117894860Y-73166173D01*
X118053096Y-73008489D01*
X118057574Y-73002258D01*
X118180435Y-72831277D01*
X118183453Y-72827077D01*
X118187057Y-72819786D01*
X118280136Y-72631453D01*
X118280137Y-72631451D01*
X118282430Y-72626811D01*
X118327840Y-72477351D01*
X118345865Y-72418023D01*
X118345865Y-72418021D01*
X118347370Y-72413069D01*
X118376529Y-72191590D01*
X118378156Y-72125000D01*
X118359852Y-71902361D01*
X118305431Y-71685702D01*
X118216354Y-71480840D01*
X118095014Y-71293277D01*
X118058260Y-71252885D01*
X134242000Y-71252885D01*
X134246475Y-71268124D01*
X134247865Y-71269329D01*
X134255548Y-71271000D01*
X135327885Y-71271000D01*
X135343124Y-71266525D01*
X135344329Y-71265135D01*
X135346000Y-71257452D01*
X135346000Y-71252885D01*
X135854000Y-71252885D01*
X135858475Y-71268124D01*
X135859865Y-71269329D01*
X135867548Y-71271000D01*
X136939884Y-71271000D01*
X136955123Y-71266525D01*
X136956328Y-71265135D01*
X136957999Y-71257452D01*
X136957999Y-70630331D01*
X136957629Y-70623510D01*
X136952105Y-70572648D01*
X136948479Y-70557396D01*
X136903324Y-70436946D01*
X136894786Y-70421351D01*
X136818285Y-70319276D01*
X136805724Y-70306715D01*
X136703649Y-70230214D01*
X136688054Y-70221676D01*
X136567606Y-70176522D01*
X136552351Y-70172895D01*
X136501486Y-70167369D01*
X136494672Y-70167000D01*
X135872115Y-70167000D01*
X135856876Y-70171475D01*
X135855671Y-70172865D01*
X135854000Y-70180548D01*
X135854000Y-71252885D01*
X135346000Y-71252885D01*
X135346000Y-70185116D01*
X135341525Y-70169877D01*
X135340135Y-70168672D01*
X135332452Y-70167001D01*
X134705331Y-70167001D01*
X134698510Y-70167371D01*
X134647648Y-70172895D01*
X134632396Y-70176521D01*
X134511946Y-70221676D01*
X134496351Y-70230214D01*
X134394276Y-70306715D01*
X134381715Y-70319276D01*
X134305214Y-70421351D01*
X134296676Y-70436946D01*
X134251522Y-70557394D01*
X134247895Y-70572649D01*
X134242369Y-70623514D01*
X134242000Y-70630328D01*
X134242000Y-71252885D01*
X118058260Y-71252885D01*
X117944670Y-71128051D01*
X117940619Y-71124852D01*
X117940615Y-71124848D01*
X117773414Y-70992800D01*
X117773410Y-70992798D01*
X117769359Y-70989598D01*
X117573789Y-70881638D01*
X117568920Y-70879914D01*
X117568916Y-70879912D01*
X117368087Y-70808795D01*
X117368083Y-70808794D01*
X117363212Y-70807069D01*
X117358119Y-70806162D01*
X117358116Y-70806161D01*
X117148373Y-70768800D01*
X117148367Y-70768799D01*
X117143284Y-70767894D01*
X117069452Y-70766992D01*
X116925081Y-70765228D01*
X116925079Y-70765228D01*
X116919911Y-70765165D01*
X116699091Y-70798955D01*
X116486756Y-70868357D01*
X116288607Y-70971507D01*
X116284474Y-70974610D01*
X116284471Y-70974612D01*
X116201450Y-71036946D01*
X116109965Y-71105635D01*
X116106393Y-71109373D01*
X116028898Y-71190466D01*
X115967374Y-71225895D01*
X115896462Y-71222438D01*
X115838676Y-71181192D01*
X115819823Y-71147644D01*
X115778324Y-71036946D01*
X115769786Y-71021351D01*
X115693285Y-70919276D01*
X115680724Y-70906715D01*
X115578649Y-70830214D01*
X115563054Y-70821676D01*
X115442606Y-70776522D01*
X115427351Y-70772895D01*
X115376486Y-70767369D01*
X115369672Y-70767000D01*
X114747115Y-70767000D01*
X114731876Y-70771475D01*
X114730671Y-70772865D01*
X114729000Y-70780548D01*
X114729000Y-73464884D01*
X114221000Y-73464884D01*
X114221000Y-72397115D01*
X114216525Y-72381876D01*
X114215135Y-72380671D01*
X114207452Y-72379000D01*
X113135116Y-72379000D01*
X113119877Y-72383475D01*
X113118672Y-72384865D01*
X113117001Y-72392548D01*
X113117001Y-73019669D01*
X104426087Y-73019669D01*
X104288818Y-71852885D01*
X113117000Y-71852885D01*
X113121475Y-71868124D01*
X113122865Y-71869329D01*
X113130548Y-71871000D01*
X114202885Y-71871000D01*
X114218124Y-71866525D01*
X114219329Y-71865135D01*
X114221000Y-71857452D01*
X114221000Y-70785116D01*
X114216525Y-70769877D01*
X114215135Y-70768672D01*
X114207452Y-70767001D01*
X113580331Y-70767001D01*
X113573510Y-70767371D01*
X113522648Y-70772895D01*
X113507396Y-70776521D01*
X113386946Y-70821676D01*
X113371351Y-70830214D01*
X113269276Y-70906715D01*
X113256715Y-70919276D01*
X113180214Y-71021351D01*
X113171676Y-71036946D01*
X113126522Y-71157394D01*
X113122895Y-71172649D01*
X113117369Y-71223514D01*
X113117000Y-71230328D01*
X113117000Y-71852885D01*
X104288818Y-71852885D01*
X103394361Y-64250000D01*
X122236654Y-64250000D01*
X122256017Y-64545426D01*
X122313776Y-64835797D01*
X122408941Y-65116145D01*
X122539885Y-65381673D01*
X122704367Y-65627838D01*
X122707081Y-65630932D01*
X122707085Y-65630938D01*
X122896864Y-65847338D01*
X122899573Y-65850427D01*
X122902662Y-65853136D01*
X123119062Y-66042915D01*
X123119068Y-66042919D01*
X123122162Y-66045633D01*
X123125588Y-66047922D01*
X123125593Y-66047926D01*
X123309405Y-66170744D01*
X123368327Y-66210115D01*
X123372026Y-66211939D01*
X123372031Y-66211942D01*
X123508313Y-66279148D01*
X123633855Y-66341059D01*
X123637760Y-66342384D01*
X123637761Y-66342385D01*
X123910290Y-66434896D01*
X123910294Y-66434897D01*
X123914203Y-66436224D01*
X123918247Y-66437028D01*
X123918253Y-66437030D01*
X124200535Y-66493180D01*
X124200541Y-66493181D01*
X124204574Y-66493983D01*
X124208679Y-66494252D01*
X124208686Y-66494253D01*
X124495881Y-66513076D01*
X124500000Y-66513346D01*
X124504119Y-66513076D01*
X124791314Y-66494253D01*
X124791321Y-66494252D01*
X124795426Y-66493983D01*
X124799459Y-66493181D01*
X124799465Y-66493180D01*
X125081747Y-66437030D01*
X125081753Y-66437028D01*
X125085797Y-66436224D01*
X125089706Y-66434897D01*
X125089710Y-66434896D01*
X125362239Y-66342385D01*
X125362240Y-66342384D01*
X125366145Y-66341059D01*
X125491687Y-66279148D01*
X125627969Y-66211942D01*
X125627974Y-66211939D01*
X125631673Y-66210115D01*
X125690595Y-66170744D01*
X125874407Y-66047926D01*
X125874412Y-66047922D01*
X125877838Y-66045633D01*
X125880932Y-66042919D01*
X125880938Y-66042915D01*
X126097338Y-65853136D01*
X126100427Y-65850427D01*
X126103136Y-65847338D01*
X126292915Y-65630938D01*
X126292919Y-65630932D01*
X126295633Y-65627838D01*
X126460115Y-65381673D01*
X126591059Y-65116145D01*
X126686224Y-64835797D01*
X126743983Y-64545426D01*
X126763346Y-64250000D01*
X126743983Y-63954574D01*
X126686224Y-63664203D01*
X126591059Y-63383855D01*
X126460115Y-63118327D01*
X126295633Y-62872162D01*
X126292919Y-62869068D01*
X126292915Y-62869062D01*
X126103136Y-62652662D01*
X126100427Y-62649573D01*
X126097338Y-62646864D01*
X125880938Y-62457085D01*
X125880932Y-62457081D01*
X125877838Y-62454367D01*
X125874412Y-62452078D01*
X125874407Y-62452074D01*
X125635106Y-62292179D01*
X125631673Y-62289885D01*
X125627974Y-62288061D01*
X125627969Y-62288058D01*
X125491687Y-62220852D01*
X125366145Y-62158941D01*
X125362239Y-62157615D01*
X125089710Y-62065104D01*
X125089706Y-62065103D01*
X125085797Y-62063776D01*
X125081753Y-62062972D01*
X125081747Y-62062970D01*
X124799465Y-62006820D01*
X124799459Y-62006819D01*
X124795426Y-62006017D01*
X124791321Y-62005748D01*
X124791314Y-62005747D01*
X124504119Y-61986924D01*
X124500000Y-61986654D01*
X124495881Y-61986924D01*
X124208686Y-62005747D01*
X124208679Y-62005748D01*
X124204574Y-62006017D01*
X124200541Y-62006819D01*
X124200535Y-62006820D01*
X123918253Y-62062970D01*
X123918247Y-62062972D01*
X123914203Y-62063776D01*
X123910294Y-62065103D01*
X123910290Y-62065104D01*
X123637761Y-62157615D01*
X123633855Y-62158941D01*
X123508313Y-62220852D01*
X123372031Y-62288058D01*
X123372026Y-62288061D01*
X123368327Y-62289885D01*
X123364894Y-62292179D01*
X123125593Y-62452074D01*
X123125588Y-62452078D01*
X123122162Y-62454367D01*
X123119068Y-62457081D01*
X123119062Y-62457085D01*
X122902662Y-62646864D01*
X122899573Y-62649573D01*
X122896864Y-62652662D01*
X122707085Y-62869062D01*
X122707081Y-62869068D01*
X122704367Y-62872162D01*
X122539885Y-63118327D01*
X122408941Y-63383855D01*
X122313776Y-63664203D01*
X122256017Y-63954574D01*
X122236654Y-64250000D01*
X103394361Y-64250000D01*
X103088387Y-61649222D01*
X103100293Y-61579231D01*
X103148149Y-61526787D01*
X103213524Y-61508500D01*
X147769632Y-61508500D01*
X147837753Y-61528502D01*
G37*
G04 #@! TD.AperFunction*
M02*
