G04 #@! TF.GenerationSoftware,KiCad,Pcbnew,6.0.11-2627ca5db0~126~ubuntu22.04.1*
G04 #@! TF.CreationDate,2023-11-05T13:22:14+01:00*
G04 #@! TF.ProjectId,powerBase,706f7765-7242-4617-9365-2e6b69636164,rev?*
G04 #@! TF.SameCoordinates,Original*
G04 #@! TF.FileFunction,Legend,Top*
G04 #@! TF.FilePolarity,Positive*
%FSLAX46Y46*%
G04 Gerber Fmt 4.6, Leading zero omitted, Abs format (unit mm)*
G04 Created by KiCad (PCBNEW 6.0.11-2627ca5db0~126~ubuntu22.04.1) date 2023-11-05 13:22:14*
%MOMM*%
%LPD*%
G01*
G04 APERTURE LIST*
%ADD10C,0.150000*%
%ADD11C,0.120000*%
%ADD12R,1.700000X1.700000*%
%ADD13O,1.700000X1.700000*%
G04 APERTURE END LIST*
D10*
X131238095Y-81890000D02*
X131142857Y-81842380D01*
X131000000Y-81842380D01*
X130857142Y-81890000D01*
X130761904Y-81985238D01*
X130714285Y-82080476D01*
X130666666Y-82270952D01*
X130666666Y-82413809D01*
X130714285Y-82604285D01*
X130761904Y-82699523D01*
X130857142Y-82794761D01*
X131000000Y-82842380D01*
X131095238Y-82842380D01*
X131238095Y-82794761D01*
X131285714Y-82747142D01*
X131285714Y-82413809D01*
X131095238Y-82413809D01*
X131714285Y-82842380D02*
X131714285Y-81842380D01*
X132285714Y-82842380D01*
X132285714Y-81842380D01*
X132761904Y-82842380D02*
X132761904Y-81842380D01*
X133000000Y-81842380D01*
X133142857Y-81890000D01*
X133238095Y-81985238D01*
X133285714Y-82080476D01*
X133333333Y-82270952D01*
X133333333Y-82413809D01*
X133285714Y-82604285D01*
X133238095Y-82699523D01*
X133142857Y-82794761D01*
X133000000Y-82842380D01*
X132761904Y-82842380D01*
X130809523Y-85062380D02*
X131142857Y-86062380D01*
X131476190Y-85062380D01*
X132238095Y-86014761D02*
X132142857Y-86062380D01*
X131952380Y-86062380D01*
X131857142Y-86014761D01*
X131809523Y-85967142D01*
X131761904Y-85871904D01*
X131761904Y-85586190D01*
X131809523Y-85490952D01*
X131857142Y-85443333D01*
X131952380Y-85395714D01*
X132142857Y-85395714D01*
X132238095Y-85443333D01*
X133095238Y-86014761D02*
X133000000Y-86062380D01*
X132809523Y-86062380D01*
X132714285Y-86014761D01*
X132666666Y-85967142D01*
X132619047Y-85871904D01*
X132619047Y-85586190D01*
X132666666Y-85490952D01*
X132714285Y-85443333D01*
X132809523Y-85395714D01*
X133000000Y-85395714D01*
X133095238Y-85443333D01*
X114809523Y-67842380D02*
X115142857Y-68842380D01*
X115476190Y-67842380D01*
X116238095Y-68794761D02*
X116142857Y-68842380D01*
X115952380Y-68842380D01*
X115857142Y-68794761D01*
X115809523Y-68747142D01*
X115761904Y-68651904D01*
X115761904Y-68366190D01*
X115809523Y-68270952D01*
X115857142Y-68223333D01*
X115952380Y-68175714D01*
X116142857Y-68175714D01*
X116238095Y-68223333D01*
X117095238Y-68794761D02*
X117000000Y-68842380D01*
X116809523Y-68842380D01*
X116714285Y-68794761D01*
X116666666Y-68747142D01*
X116619047Y-68651904D01*
X116619047Y-68366190D01*
X116666666Y-68270952D01*
X116714285Y-68223333D01*
X116809523Y-68175714D01*
X117000000Y-68175714D01*
X117095238Y-68223333D01*
X115238095Y-71110000D02*
X115142857Y-71062380D01*
X115000000Y-71062380D01*
X114857142Y-71110000D01*
X114761904Y-71205238D01*
X114714285Y-71300476D01*
X114666666Y-71490952D01*
X114666666Y-71633809D01*
X114714285Y-71824285D01*
X114761904Y-71919523D01*
X114857142Y-72014761D01*
X115000000Y-72062380D01*
X115095238Y-72062380D01*
X115238095Y-72014761D01*
X115285714Y-71967142D01*
X115285714Y-71633809D01*
X115095238Y-71633809D01*
X115714285Y-72062380D02*
X115714285Y-71062380D01*
X116285714Y-72062380D01*
X116285714Y-71062380D01*
X116761904Y-72062380D02*
X116761904Y-71062380D01*
X117000000Y-71062380D01*
X117142857Y-71110000D01*
X117238095Y-71205238D01*
X117285714Y-71300476D01*
X117333333Y-71490952D01*
X117333333Y-71633809D01*
X117285714Y-71824285D01*
X117238095Y-71919523D01*
X117142857Y-72014761D01*
X117000000Y-72062380D01*
X116761904Y-72062380D01*
X133809523Y-67697380D02*
X134142857Y-68697380D01*
X134476190Y-67697380D01*
X135238095Y-68649761D02*
X135142857Y-68697380D01*
X134952380Y-68697380D01*
X134857142Y-68649761D01*
X134809523Y-68602142D01*
X134761904Y-68506904D01*
X134761904Y-68221190D01*
X134809523Y-68125952D01*
X134857142Y-68078333D01*
X134952380Y-68030714D01*
X135142857Y-68030714D01*
X135238095Y-68078333D01*
X136095238Y-68649761D02*
X136000000Y-68697380D01*
X135809523Y-68697380D01*
X135714285Y-68649761D01*
X135666666Y-68602142D01*
X135619047Y-68506904D01*
X135619047Y-68221190D01*
X135666666Y-68125952D01*
X135714285Y-68078333D01*
X135809523Y-68030714D01*
X136000000Y-68030714D01*
X136095238Y-68078333D01*
X134238095Y-70965000D02*
X134142857Y-70917380D01*
X134000000Y-70917380D01*
X133857142Y-70965000D01*
X133761904Y-71060238D01*
X133714285Y-71155476D01*
X133666666Y-71345952D01*
X133666666Y-71488809D01*
X133714285Y-71679285D01*
X133761904Y-71774523D01*
X133857142Y-71869761D01*
X134000000Y-71917380D01*
X134095238Y-71917380D01*
X134238095Y-71869761D01*
X134285714Y-71822142D01*
X134285714Y-71488809D01*
X134095238Y-71488809D01*
X134714285Y-71917380D02*
X134714285Y-70917380D01*
X135285714Y-71917380D01*
X135285714Y-70917380D01*
X135761904Y-71917380D02*
X135761904Y-70917380D01*
X136000000Y-70917380D01*
X136142857Y-70965000D01*
X136238095Y-71060238D01*
X136285714Y-71155476D01*
X136333333Y-71345952D01*
X136333333Y-71488809D01*
X136285714Y-71679285D01*
X136238095Y-71774523D01*
X136142857Y-71869761D01*
X136000000Y-71917380D01*
X135761904Y-71917380D01*
X130857142Y-62647380D02*
X130857142Y-61647380D01*
X131238095Y-61647380D01*
X131333333Y-61695000D01*
X131380952Y-61742619D01*
X131428571Y-61837857D01*
X131428571Y-61980714D01*
X131380952Y-62075952D01*
X131333333Y-62123571D01*
X131238095Y-62171190D01*
X130857142Y-62171190D01*
X132000000Y-62647380D02*
X131904761Y-62599761D01*
X131857142Y-62552142D01*
X131809523Y-62456904D01*
X131809523Y-62171190D01*
X131857142Y-62075952D01*
X131904761Y-62028333D01*
X132000000Y-61980714D01*
X132142857Y-61980714D01*
X132238095Y-62028333D01*
X132285714Y-62075952D01*
X132333333Y-62171190D01*
X132333333Y-62456904D01*
X132285714Y-62552142D01*
X132238095Y-62599761D01*
X132142857Y-62647380D01*
X132000000Y-62647380D01*
X132666666Y-61980714D02*
X132857142Y-62647380D01*
X133047619Y-62171190D01*
X133238095Y-62647380D01*
X133428571Y-61980714D01*
X134190476Y-62599761D02*
X134095238Y-62647380D01*
X133904761Y-62647380D01*
X133809523Y-62599761D01*
X133761904Y-62504523D01*
X133761904Y-62123571D01*
X133809523Y-62028333D01*
X133904761Y-61980714D01*
X134095238Y-61980714D01*
X134190476Y-62028333D01*
X134238095Y-62123571D01*
X134238095Y-62218809D01*
X133761904Y-62314047D01*
X134666666Y-62647380D02*
X134666666Y-61980714D01*
X134666666Y-62171190D02*
X134714285Y-62075952D01*
X134761904Y-62028333D01*
X134857142Y-61980714D01*
X134952380Y-61980714D01*
X136380952Y-62123571D02*
X136523809Y-62171190D01*
X136571428Y-62218809D01*
X136619047Y-62314047D01*
X136619047Y-62456904D01*
X136571428Y-62552142D01*
X136523809Y-62599761D01*
X136428571Y-62647380D01*
X136047619Y-62647380D01*
X136047619Y-61647380D01*
X136380952Y-61647380D01*
X136476190Y-61695000D01*
X136523809Y-61742619D01*
X136571428Y-61837857D01*
X136571428Y-61933095D01*
X136523809Y-62028333D01*
X136476190Y-62075952D01*
X136380952Y-62123571D01*
X136047619Y-62123571D01*
X137476190Y-62647380D02*
X137476190Y-62123571D01*
X137428571Y-62028333D01*
X137333333Y-61980714D01*
X137142857Y-61980714D01*
X137047619Y-62028333D01*
X137476190Y-62599761D02*
X137380952Y-62647380D01*
X137142857Y-62647380D01*
X137047619Y-62599761D01*
X137000000Y-62504523D01*
X137000000Y-62409285D01*
X137047619Y-62314047D01*
X137142857Y-62266428D01*
X137380952Y-62266428D01*
X137476190Y-62218809D01*
X137904761Y-62599761D02*
X138000000Y-62647380D01*
X138190476Y-62647380D01*
X138285714Y-62599761D01*
X138333333Y-62504523D01*
X138333333Y-62456904D01*
X138285714Y-62361666D01*
X138190476Y-62314047D01*
X138047619Y-62314047D01*
X137952380Y-62266428D01*
X137904761Y-62171190D01*
X137904761Y-62123571D01*
X137952380Y-62028333D01*
X138047619Y-61980714D01*
X138190476Y-61980714D01*
X138285714Y-62028333D01*
X139142857Y-62599761D02*
X139047619Y-62647380D01*
X138857142Y-62647380D01*
X138761904Y-62599761D01*
X138714285Y-62504523D01*
X138714285Y-62123571D01*
X138761904Y-62028333D01*
X138857142Y-61980714D01*
X139047619Y-61980714D01*
X139142857Y-62028333D01*
X139190476Y-62123571D01*
X139190476Y-62218809D01*
X138714285Y-62314047D01*
X132690476Y-64257380D02*
X132357142Y-63781190D01*
X132119047Y-64257380D02*
X132119047Y-63257380D01*
X132500000Y-63257380D01*
X132595238Y-63305000D01*
X132642857Y-63352619D01*
X132690476Y-63447857D01*
X132690476Y-63590714D01*
X132642857Y-63685952D01*
X132595238Y-63733571D01*
X132500000Y-63781190D01*
X132119047Y-63781190D01*
X133500000Y-64209761D02*
X133404761Y-64257380D01*
X133214285Y-64257380D01*
X133119047Y-64209761D01*
X133071428Y-64114523D01*
X133071428Y-63733571D01*
X133119047Y-63638333D01*
X133214285Y-63590714D01*
X133404761Y-63590714D01*
X133500000Y-63638333D01*
X133547619Y-63733571D01*
X133547619Y-63828809D01*
X133071428Y-63924047D01*
X133880952Y-63590714D02*
X134119047Y-64257380D01*
X134357142Y-63590714D01*
X134738095Y-64162142D02*
X134785714Y-64209761D01*
X134738095Y-64257380D01*
X134690476Y-64209761D01*
X134738095Y-64162142D01*
X134738095Y-64257380D01*
X136166666Y-63257380D02*
X136261904Y-63257380D01*
X136357142Y-63305000D01*
X136404761Y-63352619D01*
X136452380Y-63447857D01*
X136500000Y-63638333D01*
X136500000Y-63876428D01*
X136452380Y-64066904D01*
X136404761Y-64162142D01*
X136357142Y-64209761D01*
X136261904Y-64257380D01*
X136166666Y-64257380D01*
X136071428Y-64209761D01*
X136023809Y-64162142D01*
X135976190Y-64066904D01*
X135928571Y-63876428D01*
X135928571Y-63638333D01*
X135976190Y-63447857D01*
X136023809Y-63352619D01*
X136071428Y-63305000D01*
X136166666Y-63257380D01*
X136928571Y-64162142D02*
X136976190Y-64209761D01*
X136928571Y-64257380D01*
X136880952Y-64209761D01*
X136928571Y-64162142D01*
X136928571Y-64257380D01*
X137928571Y-64257380D02*
X137357142Y-64257380D01*
X137642857Y-64257380D02*
X137642857Y-63257380D01*
X137547619Y-63400238D01*
X137452380Y-63495476D01*
X137357142Y-63543095D01*
X118238095Y-81890000D02*
X118142857Y-81842380D01*
X118000000Y-81842380D01*
X117857142Y-81890000D01*
X117761904Y-81985238D01*
X117714285Y-82080476D01*
X117666666Y-82270952D01*
X117666666Y-82413809D01*
X117714285Y-82604285D01*
X117761904Y-82699523D01*
X117857142Y-82794761D01*
X118000000Y-82842380D01*
X118095238Y-82842380D01*
X118238095Y-82794761D01*
X118285714Y-82747142D01*
X118285714Y-82413809D01*
X118095238Y-82413809D01*
X118714285Y-82842380D02*
X118714285Y-81842380D01*
X119285714Y-82842380D01*
X119285714Y-81842380D01*
X119761904Y-82842380D02*
X119761904Y-81842380D01*
X120000000Y-81842380D01*
X120142857Y-81890000D01*
X120238095Y-81985238D01*
X120285714Y-82080476D01*
X120333333Y-82270952D01*
X120333333Y-82413809D01*
X120285714Y-82604285D01*
X120238095Y-82699523D01*
X120142857Y-82794761D01*
X120000000Y-82842380D01*
X119761904Y-82842380D01*
X117809523Y-85062380D02*
X118142857Y-86062380D01*
X118476190Y-85062380D01*
X119238095Y-86014761D02*
X119142857Y-86062380D01*
X118952380Y-86062380D01*
X118857142Y-86014761D01*
X118809523Y-85967142D01*
X118761904Y-85871904D01*
X118761904Y-85586190D01*
X118809523Y-85490952D01*
X118857142Y-85443333D01*
X118952380Y-85395714D01*
X119142857Y-85395714D01*
X119238095Y-85443333D01*
X120095238Y-86014761D02*
X120000000Y-86062380D01*
X119809523Y-86062380D01*
X119714285Y-86014761D01*
X119666666Y-85967142D01*
X119619047Y-85871904D01*
X119619047Y-85586190D01*
X119666666Y-85490952D01*
X119714285Y-85443333D01*
X119809523Y-85395714D01*
X120000000Y-85395714D01*
X120095238Y-85443333D01*
X122666666Y-85322380D02*
X122666666Y-86036666D01*
X122619047Y-86179523D01*
X122523809Y-86274761D01*
X122380952Y-86322380D01*
X122285714Y-86322380D01*
X123047619Y-85322380D02*
X123666666Y-85322380D01*
X123333333Y-85703333D01*
X123476190Y-85703333D01*
X123571428Y-85750952D01*
X123619047Y-85798571D01*
X123666666Y-85893809D01*
X123666666Y-86131904D01*
X123619047Y-86227142D01*
X123571428Y-86274761D01*
X123476190Y-86322380D01*
X123190476Y-86322380D01*
X123095238Y-86274761D01*
X123047619Y-86227142D01*
X119691666Y-65707380D02*
X119691666Y-66421666D01*
X119644047Y-66564523D01*
X119548809Y-66659761D01*
X119405952Y-66707380D01*
X119310714Y-66707380D01*
X120691666Y-66707380D02*
X120120238Y-66707380D01*
X120405952Y-66707380D02*
X120405952Y-65707380D01*
X120310714Y-65850238D01*
X120215476Y-65945476D01*
X120120238Y-65993095D01*
X131336666Y-65707380D02*
X131336666Y-66421666D01*
X131289047Y-66564523D01*
X131193809Y-66659761D01*
X131050952Y-66707380D01*
X130955714Y-66707380D01*
X132241428Y-66040714D02*
X132241428Y-66707380D01*
X132003333Y-65659761D02*
X131765238Y-66374047D01*
X132384285Y-66374047D01*
X127741666Y-85322380D02*
X127741666Y-86036666D01*
X127694047Y-86179523D01*
X127598809Y-86274761D01*
X127455952Y-86322380D01*
X127360714Y-86322380D01*
X128170238Y-85417619D02*
X128217857Y-85370000D01*
X128313095Y-85322380D01*
X128551190Y-85322380D01*
X128646428Y-85370000D01*
X128694047Y-85417619D01*
X128741666Y-85512857D01*
X128741666Y-85608095D01*
X128694047Y-85750952D01*
X128122619Y-86322380D01*
X128741666Y-86322380D01*
D11*
X124330000Y-82270000D02*
X121670000Y-82270000D01*
X124330000Y-83540000D02*
X124330000Y-84870000D01*
X124330000Y-82270000D02*
X124330000Y-79670000D01*
X124330000Y-84870000D02*
X123000000Y-84870000D01*
X121670000Y-82270000D02*
X121670000Y-79670000D01*
X124330000Y-79670000D02*
X121670000Y-79670000D01*
X121355000Y-69855000D02*
X121355000Y-72455000D01*
X118695000Y-67255000D02*
X120025000Y-67255000D01*
X118695000Y-69855000D02*
X118695000Y-72455000D01*
X118695000Y-68585000D02*
X118695000Y-67255000D01*
X118695000Y-72455000D02*
X121355000Y-72455000D01*
X118695000Y-69855000D02*
X121355000Y-69855000D01*
X130340000Y-72455000D02*
X133000000Y-72455000D01*
X130340000Y-67255000D02*
X131670000Y-67255000D01*
X130340000Y-68585000D02*
X130340000Y-67255000D01*
X133000000Y-69855000D02*
X133000000Y-72455000D01*
X130340000Y-69855000D02*
X130340000Y-72455000D01*
X130340000Y-69855000D02*
X133000000Y-69855000D01*
X129405000Y-83540000D02*
X129405000Y-84870000D01*
X129405000Y-82270000D02*
X129405000Y-79670000D01*
X129405000Y-79670000D02*
X126745000Y-79670000D01*
X129405000Y-82270000D02*
X126745000Y-82270000D01*
X126745000Y-82270000D02*
X126745000Y-79670000D01*
X129405000Y-84870000D02*
X128075000Y-84870000D01*
%LPC*%
D12*
X123000000Y-83540000D03*
D13*
X123000000Y-81000000D03*
D12*
X120025000Y-68585000D03*
D13*
X120025000Y-71125000D03*
D12*
X131670000Y-68585000D03*
D13*
X131670000Y-71125000D03*
D12*
X128075000Y-83540000D03*
D13*
X128075000Y-81000000D03*
M02*
