%TF.GenerationSoftware,KiCad,Pcbnew,6.0.11-2627ca5db0~126~ubuntu22.04.1*%
%TF.CreationDate,2023-11-05T13:23:17+01:00*%
%TF.ProjectId,powerBase,706f7765-7242-4617-9365-2e6b69636164,rev?*%
%TF.SameCoordinates,Original*%
%TF.FileFunction,Drillmap*%
%TF.FilePolarity,Positive*%
%FSLAX45Y45*%
G04 Gerber Fmt 4.5, Leading zero omitted, Abs format (unit mm)*
G04 Created by KiCad (PCBNEW 6.0.11-2627ca5db0~126~ubuntu22.04.1) date 2023-11-05 13:23:17*
%MOMM*%
%LPD*%
G01*
G04 APERTURE LIST*
%ADD10C,0.100000*%
%ADD11C,0.200000*%
G04 APERTURE END LIST*
D10*
X12725000Y-6425000D02*
G75*
G03*
X12725000Y-6425000I-175000J0D01*
G01*
X13585000Y-7925000D02*
G75*
G03*
X13585000Y-7925000I-175000J0D01*
G01*
X12725000Y-7427500D02*
G75*
G03*
X12725000Y-7427500I-175000J0D01*
G01*
X14850000Y-6100000D02*
X10250000Y-6100000D01*
X12550000Y-10085000D02*
X10250000Y-6100000D01*
X11865000Y-7925000D02*
G75*
G03*
X11865000Y-7925000I-175000J0D01*
G01*
X14850000Y-6100000D02*
X12550000Y-10085000D01*
D11*
D10*
X11952500Y-6808500D02*
X12052500Y-6908500D01*
X12052500Y-6808500D02*
X11952500Y-6908500D01*
X11952500Y-7062500D02*
X12052500Y-7162500D01*
X12052500Y-7062500D02*
X11952500Y-7162500D01*
X12250000Y-8050000D02*
X12350000Y-8150000D01*
X12350000Y-8050000D02*
X12250000Y-8150000D01*
X12250000Y-8304000D02*
X12350000Y-8404000D01*
X12350000Y-8304000D02*
X12250000Y-8404000D01*
X12757500Y-8050000D02*
X12857500Y-8150000D01*
X12857500Y-8050000D02*
X12757500Y-8150000D01*
X12757500Y-8304000D02*
X12857500Y-8404000D01*
X12857500Y-8304000D02*
X12757500Y-8404000D01*
X13117000Y-6808500D02*
X13217000Y-6908500D01*
X13217000Y-6808500D02*
X13117000Y-6908500D01*
X13117000Y-7062500D02*
X13217000Y-7162500D01*
X13217000Y-7062500D02*
X13117000Y-7162500D01*
D11*
X10502619Y-10400476D02*
X10502619Y-10200476D01*
X10550238Y-10200476D01*
X10578810Y-10210000D01*
X10597857Y-10229048D01*
X10607381Y-10248095D01*
X10616905Y-10286190D01*
X10616905Y-10314762D01*
X10607381Y-10352857D01*
X10597857Y-10371905D01*
X10578810Y-10390952D01*
X10550238Y-10400476D01*
X10502619Y-10400476D01*
X10702619Y-10400476D02*
X10702619Y-10267143D01*
X10702619Y-10305238D02*
X10712143Y-10286190D01*
X10721667Y-10276667D01*
X10740714Y-10267143D01*
X10759762Y-10267143D01*
X10826429Y-10400476D02*
X10826429Y-10267143D01*
X10826429Y-10200476D02*
X10816905Y-10210000D01*
X10826429Y-10219524D01*
X10835952Y-10210000D01*
X10826429Y-10200476D01*
X10826429Y-10219524D01*
X10950238Y-10400476D02*
X10931190Y-10390952D01*
X10921667Y-10371905D01*
X10921667Y-10200476D01*
X11055000Y-10400476D02*
X11035952Y-10390952D01*
X11026429Y-10371905D01*
X11026429Y-10200476D01*
X11283571Y-10400476D02*
X11283571Y-10200476D01*
X11350238Y-10343333D01*
X11416905Y-10200476D01*
X11416905Y-10400476D01*
X11597857Y-10400476D02*
X11597857Y-10295714D01*
X11588333Y-10276667D01*
X11569286Y-10267143D01*
X11531190Y-10267143D01*
X11512143Y-10276667D01*
X11597857Y-10390952D02*
X11578809Y-10400476D01*
X11531190Y-10400476D01*
X11512143Y-10390952D01*
X11502619Y-10371905D01*
X11502619Y-10352857D01*
X11512143Y-10333810D01*
X11531190Y-10324286D01*
X11578809Y-10324286D01*
X11597857Y-10314762D01*
X11693095Y-10267143D02*
X11693095Y-10467143D01*
X11693095Y-10276667D02*
X11712143Y-10267143D01*
X11750238Y-10267143D01*
X11769286Y-10276667D01*
X11778809Y-10286190D01*
X11788333Y-10305238D01*
X11788333Y-10362381D01*
X11778809Y-10381429D01*
X11769286Y-10390952D01*
X11750238Y-10400476D01*
X11712143Y-10400476D01*
X11693095Y-10390952D01*
X11874048Y-10381429D02*
X11883571Y-10390952D01*
X11874048Y-10400476D01*
X11864524Y-10390952D01*
X11874048Y-10381429D01*
X11874048Y-10400476D01*
X11874048Y-10276667D02*
X11883571Y-10286190D01*
X11874048Y-10295714D01*
X11864524Y-10286190D01*
X11874048Y-10276667D01*
X11874048Y-10295714D01*
D10*
X10145000Y-10680000D02*
X10245000Y-10780000D01*
X10245000Y-10680000D02*
X10145000Y-10780000D01*
D11*
X10607381Y-10820476D02*
X10493095Y-10820476D01*
X10550238Y-10820476D02*
X10550238Y-10620476D01*
X10531190Y-10649048D01*
X10512143Y-10668095D01*
X10493095Y-10677619D01*
X10693095Y-10801429D02*
X10702619Y-10810952D01*
X10693095Y-10820476D01*
X10683571Y-10810952D01*
X10693095Y-10801429D01*
X10693095Y-10820476D01*
X10826429Y-10620476D02*
X10845476Y-10620476D01*
X10864524Y-10630000D01*
X10874048Y-10639524D01*
X10883571Y-10658571D01*
X10893095Y-10696667D01*
X10893095Y-10744286D01*
X10883571Y-10782381D01*
X10874048Y-10801429D01*
X10864524Y-10810952D01*
X10845476Y-10820476D01*
X10826429Y-10820476D01*
X10807381Y-10810952D01*
X10797857Y-10801429D01*
X10788333Y-10782381D01*
X10778810Y-10744286D01*
X10778810Y-10696667D01*
X10788333Y-10658571D01*
X10797857Y-10639524D01*
X10807381Y-10630000D01*
X10826429Y-10620476D01*
X11016905Y-10620476D02*
X11035952Y-10620476D01*
X11055000Y-10630000D01*
X11064524Y-10639524D01*
X11074048Y-10658571D01*
X11083571Y-10696667D01*
X11083571Y-10744286D01*
X11074048Y-10782381D01*
X11064524Y-10801429D01*
X11055000Y-10810952D01*
X11035952Y-10820476D01*
X11016905Y-10820476D01*
X10997857Y-10810952D01*
X10988333Y-10801429D01*
X10978810Y-10782381D01*
X10969286Y-10744286D01*
X10969286Y-10696667D01*
X10978810Y-10658571D01*
X10988333Y-10639524D01*
X10997857Y-10630000D01*
X11016905Y-10620476D01*
X11207381Y-10620476D02*
X11226428Y-10620476D01*
X11245476Y-10630000D01*
X11255000Y-10639524D01*
X11264524Y-10658571D01*
X11274048Y-10696667D01*
X11274048Y-10744286D01*
X11264524Y-10782381D01*
X11255000Y-10801429D01*
X11245476Y-10810952D01*
X11226428Y-10820476D01*
X11207381Y-10820476D01*
X11188333Y-10810952D01*
X11178810Y-10801429D01*
X11169286Y-10782381D01*
X11159762Y-10744286D01*
X11159762Y-10696667D01*
X11169286Y-10658571D01*
X11178810Y-10639524D01*
X11188333Y-10630000D01*
X11207381Y-10620476D01*
X11359762Y-10820476D02*
X11359762Y-10687143D01*
X11359762Y-10706190D02*
X11369286Y-10696667D01*
X11388333Y-10687143D01*
X11416905Y-10687143D01*
X11435952Y-10696667D01*
X11445476Y-10715714D01*
X11445476Y-10820476D01*
X11445476Y-10715714D02*
X11455000Y-10696667D01*
X11474048Y-10687143D01*
X11502619Y-10687143D01*
X11521667Y-10696667D01*
X11531190Y-10715714D01*
X11531190Y-10820476D01*
X11626428Y-10820476D02*
X11626428Y-10687143D01*
X11626428Y-10706190D02*
X11635952Y-10696667D01*
X11655000Y-10687143D01*
X11683571Y-10687143D01*
X11702619Y-10696667D01*
X11712143Y-10715714D01*
X11712143Y-10820476D01*
X11712143Y-10715714D02*
X11721667Y-10696667D01*
X11740714Y-10687143D01*
X11769286Y-10687143D01*
X11788333Y-10696667D01*
X11797857Y-10715714D01*
X11797857Y-10820476D01*
X12188333Y-10610952D02*
X12016905Y-10868095D01*
X12445476Y-10620476D02*
X12464524Y-10620476D01*
X12483571Y-10630000D01*
X12493095Y-10639524D01*
X12502619Y-10658571D01*
X12512143Y-10696667D01*
X12512143Y-10744286D01*
X12502619Y-10782381D01*
X12493095Y-10801429D01*
X12483571Y-10810952D01*
X12464524Y-10820476D01*
X12445476Y-10820476D01*
X12426428Y-10810952D01*
X12416905Y-10801429D01*
X12407381Y-10782381D01*
X12397857Y-10744286D01*
X12397857Y-10696667D01*
X12407381Y-10658571D01*
X12416905Y-10639524D01*
X12426428Y-10630000D01*
X12445476Y-10620476D01*
X12597857Y-10801429D02*
X12607381Y-10810952D01*
X12597857Y-10820476D01*
X12588333Y-10810952D01*
X12597857Y-10801429D01*
X12597857Y-10820476D01*
X12731190Y-10620476D02*
X12750238Y-10620476D01*
X12769286Y-10630000D01*
X12778809Y-10639524D01*
X12788333Y-10658571D01*
X12797857Y-10696667D01*
X12797857Y-10744286D01*
X12788333Y-10782381D01*
X12778809Y-10801429D01*
X12769286Y-10810952D01*
X12750238Y-10820476D01*
X12731190Y-10820476D01*
X12712143Y-10810952D01*
X12702619Y-10801429D01*
X12693095Y-10782381D01*
X12683571Y-10744286D01*
X12683571Y-10696667D01*
X12693095Y-10658571D01*
X12702619Y-10639524D01*
X12712143Y-10630000D01*
X12731190Y-10620476D01*
X12864524Y-10620476D02*
X12988333Y-10620476D01*
X12921667Y-10696667D01*
X12950238Y-10696667D01*
X12969286Y-10706190D01*
X12978809Y-10715714D01*
X12988333Y-10734762D01*
X12988333Y-10782381D01*
X12978809Y-10801429D01*
X12969286Y-10810952D01*
X12950238Y-10820476D01*
X12893095Y-10820476D01*
X12874048Y-10810952D01*
X12864524Y-10801429D01*
X13083571Y-10820476D02*
X13121667Y-10820476D01*
X13140714Y-10810952D01*
X13150238Y-10801429D01*
X13169286Y-10772857D01*
X13178809Y-10734762D01*
X13178809Y-10658571D01*
X13169286Y-10639524D01*
X13159762Y-10630000D01*
X13140714Y-10620476D01*
X13102619Y-10620476D01*
X13083571Y-10630000D01*
X13074048Y-10639524D01*
X13064524Y-10658571D01*
X13064524Y-10706190D01*
X13074048Y-10725238D01*
X13083571Y-10734762D01*
X13102619Y-10744286D01*
X13140714Y-10744286D01*
X13159762Y-10734762D01*
X13169286Y-10725238D01*
X13178809Y-10706190D01*
X13350238Y-10687143D02*
X13350238Y-10820476D01*
X13302619Y-10610952D02*
X13255000Y-10753810D01*
X13378809Y-10753810D01*
X13445476Y-10620476D02*
X13445476Y-10658571D01*
X13521667Y-10620476D02*
X13521667Y-10658571D01*
X13816905Y-10896667D02*
X13807381Y-10887143D01*
X13788333Y-10858571D01*
X13778809Y-10839524D01*
X13769286Y-10810952D01*
X13759762Y-10763333D01*
X13759762Y-10725238D01*
X13769286Y-10677619D01*
X13778809Y-10649048D01*
X13788333Y-10630000D01*
X13807381Y-10601429D01*
X13816905Y-10591905D01*
X13921667Y-10706190D02*
X13902619Y-10696667D01*
X13893095Y-10687143D01*
X13883571Y-10668095D01*
X13883571Y-10658571D01*
X13893095Y-10639524D01*
X13902619Y-10630000D01*
X13921667Y-10620476D01*
X13959762Y-10620476D01*
X13978809Y-10630000D01*
X13988333Y-10639524D01*
X13997857Y-10658571D01*
X13997857Y-10668095D01*
X13988333Y-10687143D01*
X13978809Y-10696667D01*
X13959762Y-10706190D01*
X13921667Y-10706190D01*
X13902619Y-10715714D01*
X13893095Y-10725238D01*
X13883571Y-10744286D01*
X13883571Y-10782381D01*
X13893095Y-10801429D01*
X13902619Y-10810952D01*
X13921667Y-10820476D01*
X13959762Y-10820476D01*
X13978809Y-10810952D01*
X13988333Y-10801429D01*
X13997857Y-10782381D01*
X13997857Y-10744286D01*
X13988333Y-10725238D01*
X13978809Y-10715714D01*
X13959762Y-10706190D01*
X14235952Y-10820476D02*
X14235952Y-10620476D01*
X14321667Y-10820476D02*
X14321667Y-10715714D01*
X14312143Y-10696667D01*
X14293095Y-10687143D01*
X14264524Y-10687143D01*
X14245476Y-10696667D01*
X14235952Y-10706190D01*
X14445476Y-10820476D02*
X14426428Y-10810952D01*
X14416905Y-10801429D01*
X14407381Y-10782381D01*
X14407381Y-10725238D01*
X14416905Y-10706190D01*
X14426428Y-10696667D01*
X14445476Y-10687143D01*
X14474048Y-10687143D01*
X14493095Y-10696667D01*
X14502619Y-10706190D01*
X14512143Y-10725238D01*
X14512143Y-10782381D01*
X14502619Y-10801429D01*
X14493095Y-10810952D01*
X14474048Y-10820476D01*
X14445476Y-10820476D01*
X14626428Y-10820476D02*
X14607381Y-10810952D01*
X14597857Y-10791905D01*
X14597857Y-10620476D01*
X14778809Y-10810952D02*
X14759762Y-10820476D01*
X14721667Y-10820476D01*
X14702619Y-10810952D01*
X14693095Y-10791905D01*
X14693095Y-10715714D01*
X14702619Y-10696667D01*
X14721667Y-10687143D01*
X14759762Y-10687143D01*
X14778809Y-10696667D01*
X14788333Y-10715714D01*
X14788333Y-10734762D01*
X14693095Y-10753810D01*
X14864524Y-10810952D02*
X14883571Y-10820476D01*
X14921667Y-10820476D01*
X14940714Y-10810952D01*
X14950238Y-10791905D01*
X14950238Y-10782381D01*
X14940714Y-10763333D01*
X14921667Y-10753810D01*
X14893095Y-10753810D01*
X14874048Y-10744286D01*
X14864524Y-10725238D01*
X14864524Y-10715714D01*
X14874048Y-10696667D01*
X14893095Y-10687143D01*
X14921667Y-10687143D01*
X14940714Y-10696667D01*
X15016905Y-10896667D02*
X15026428Y-10887143D01*
X15045476Y-10858571D01*
X15055000Y-10839524D01*
X15064524Y-10810952D01*
X15074048Y-10763333D01*
X15074048Y-10725238D01*
X15064524Y-10677619D01*
X15055000Y-10649048D01*
X15045476Y-10630000D01*
X15026428Y-10601429D01*
X15016905Y-10591905D01*
M02*
