G04 #@! TF.GenerationSoftware,KiCad,Pcbnew,6.0.11-2627ca5db0~126~ubuntu22.04.1*
G04 #@! TF.CreationDate,2023-11-05T13:22:14+01:00*
G04 #@! TF.ProjectId,powerBase,706f7765-7242-4617-9365-2e6b69636164,rev?*
G04 #@! TF.SameCoordinates,Original*
G04 #@! TF.FileFunction,Copper,L1,Top*
G04 #@! TF.FilePolarity,Positive*
%FSLAX46Y46*%
G04 Gerber Fmt 4.6, Leading zero omitted, Abs format (unit mm)*
G04 Created by KiCad (PCBNEW 6.0.11-2627ca5db0~126~ubuntu22.04.1) date 2023-11-05 13:22:14*
%MOMM*%
%LPD*%
G01*
G04 APERTURE LIST*
G04 #@! TA.AperFunction,ComponentPad*
%ADD10R,1.700000X1.700000*%
G04 #@! TD*
G04 #@! TA.AperFunction,ComponentPad*
%ADD11O,1.700000X1.700000*%
G04 #@! TD*
G04 APERTURE END LIST*
D10*
X123000000Y-83540000D03*
D11*
X123000000Y-81000000D03*
D10*
X120025000Y-68585000D03*
D11*
X120025000Y-71125000D03*
D10*
X131670000Y-68585000D03*
D11*
X131670000Y-71125000D03*
D10*
X128075000Y-83540000D03*
D11*
X128075000Y-81000000D03*
G04 #@! TA.AperFunction,Conductor*
G36*
X147469312Y-61528502D02*
G01*
X147515805Y-61582158D01*
X147525909Y-61652432D01*
X147510320Y-61697483D01*
X134119808Y-84898000D01*
X125609128Y-99643678D01*
X125557752Y-99692678D01*
X125488040Y-99706124D01*
X125422126Y-99679747D01*
X125390872Y-99643678D01*
X116880192Y-84898000D01*
X116612774Y-84434669D01*
X121642001Y-84434669D01*
X121642371Y-84441490D01*
X121647895Y-84492352D01*
X121651521Y-84507604D01*
X121696676Y-84628054D01*
X121705214Y-84643649D01*
X121781715Y-84745724D01*
X121794276Y-84758285D01*
X121896351Y-84834786D01*
X121911946Y-84843324D01*
X122032394Y-84888478D01*
X122047649Y-84892105D01*
X122098514Y-84897631D01*
X122105328Y-84898000D01*
X122727885Y-84898000D01*
X122743124Y-84893525D01*
X122744329Y-84892135D01*
X122746000Y-84884452D01*
X122746000Y-84879884D01*
X123254000Y-84879884D01*
X123258475Y-84895123D01*
X123259865Y-84896328D01*
X123267548Y-84897999D01*
X123894669Y-84897999D01*
X123901490Y-84897629D01*
X123952352Y-84892105D01*
X123967604Y-84888479D01*
X124088054Y-84843324D01*
X124103649Y-84834786D01*
X124205724Y-84758285D01*
X124218285Y-84745724D01*
X124294786Y-84643649D01*
X124303324Y-84628054D01*
X124348478Y-84507606D01*
X124352105Y-84492351D01*
X124357631Y-84441486D01*
X124358000Y-84434672D01*
X124358000Y-84434669D01*
X126717001Y-84434669D01*
X126717371Y-84441490D01*
X126722895Y-84492352D01*
X126726521Y-84507604D01*
X126771676Y-84628054D01*
X126780214Y-84643649D01*
X126856715Y-84745724D01*
X126869276Y-84758285D01*
X126971351Y-84834786D01*
X126986946Y-84843324D01*
X127107394Y-84888478D01*
X127122649Y-84892105D01*
X127173514Y-84897631D01*
X127180328Y-84898000D01*
X127802885Y-84898000D01*
X127818124Y-84893525D01*
X127819329Y-84892135D01*
X127821000Y-84884452D01*
X127821000Y-84879884D01*
X128329000Y-84879884D01*
X128333475Y-84895123D01*
X128334865Y-84896328D01*
X128342548Y-84897999D01*
X128969669Y-84897999D01*
X128976490Y-84897629D01*
X129027352Y-84892105D01*
X129042604Y-84888479D01*
X129163054Y-84843324D01*
X129178649Y-84834786D01*
X129280724Y-84758285D01*
X129293285Y-84745724D01*
X129369786Y-84643649D01*
X129378324Y-84628054D01*
X129423478Y-84507606D01*
X129427105Y-84492351D01*
X129432631Y-84441486D01*
X129433000Y-84434672D01*
X129433000Y-83812115D01*
X129428525Y-83796876D01*
X129427135Y-83795671D01*
X129419452Y-83794000D01*
X128347115Y-83794000D01*
X128331876Y-83798475D01*
X128330671Y-83799865D01*
X128329000Y-83807548D01*
X128329000Y-84879884D01*
X127821000Y-84879884D01*
X127821000Y-83812115D01*
X127816525Y-83796876D01*
X127815135Y-83795671D01*
X127807452Y-83794000D01*
X126735116Y-83794000D01*
X126719877Y-83798475D01*
X126718672Y-83799865D01*
X126717001Y-83807548D01*
X126717001Y-84434669D01*
X124358000Y-84434669D01*
X124358000Y-83812115D01*
X124353525Y-83796876D01*
X124352135Y-83795671D01*
X124344452Y-83794000D01*
X123272115Y-83794000D01*
X123256876Y-83798475D01*
X123255671Y-83799865D01*
X123254000Y-83807548D01*
X123254000Y-84879884D01*
X122746000Y-84879884D01*
X122746000Y-83812115D01*
X122741525Y-83796876D01*
X122740135Y-83795671D01*
X122732452Y-83794000D01*
X121660116Y-83794000D01*
X121644877Y-83798475D01*
X121643672Y-83799865D01*
X121642001Y-83807548D01*
X121642001Y-84434669D01*
X116612774Y-84434669D01*
X113620368Y-79250000D01*
X114636654Y-79250000D01*
X114656017Y-79545426D01*
X114656819Y-79549459D01*
X114656820Y-79549465D01*
X114698030Y-79756638D01*
X114713776Y-79835797D01*
X114715103Y-79839706D01*
X114715104Y-79839710D01*
X114770551Y-80003051D01*
X114808941Y-80116145D01*
X114823867Y-80146411D01*
X114927146Y-80355840D01*
X114939885Y-80381673D01*
X114942179Y-80385106D01*
X115056336Y-80555954D01*
X115104367Y-80627838D01*
X115107081Y-80630932D01*
X115107085Y-80630938D01*
X115240022Y-80782522D01*
X115299573Y-80850427D01*
X115302662Y-80853136D01*
X115519062Y-81042915D01*
X115519068Y-81042919D01*
X115522162Y-81045633D01*
X115525588Y-81047922D01*
X115525593Y-81047926D01*
X115553526Y-81066590D01*
X115768327Y-81210115D01*
X115772026Y-81211939D01*
X115772031Y-81211942D01*
X115908313Y-81279148D01*
X116033855Y-81341059D01*
X116037760Y-81342384D01*
X116037761Y-81342385D01*
X116310290Y-81434896D01*
X116310294Y-81434897D01*
X116314203Y-81436224D01*
X116318247Y-81437028D01*
X116318253Y-81437030D01*
X116600535Y-81493180D01*
X116600541Y-81493181D01*
X116604574Y-81493983D01*
X116608679Y-81494252D01*
X116608686Y-81494253D01*
X116895881Y-81513076D01*
X116900000Y-81513346D01*
X116904119Y-81513076D01*
X117191314Y-81494253D01*
X117191321Y-81494252D01*
X117195426Y-81493983D01*
X117199459Y-81493181D01*
X117199465Y-81493180D01*
X117481747Y-81437030D01*
X117481753Y-81437028D01*
X117485797Y-81436224D01*
X117489706Y-81434897D01*
X117489710Y-81434896D01*
X117762239Y-81342385D01*
X117762240Y-81342384D01*
X117766145Y-81341059D01*
X117891687Y-81279148D01*
X118027969Y-81211942D01*
X118027974Y-81211939D01*
X118031673Y-81210115D01*
X118246474Y-81066590D01*
X118274407Y-81047926D01*
X118274412Y-81047922D01*
X118277838Y-81045633D01*
X118280932Y-81042919D01*
X118280938Y-81042915D01*
X118367850Y-80966695D01*
X121637251Y-80966695D01*
X121637548Y-80971848D01*
X121637548Y-80971851D01*
X121643011Y-81066590D01*
X121650110Y-81189715D01*
X121651247Y-81194761D01*
X121651248Y-81194767D01*
X121654190Y-81207821D01*
X121699222Y-81407639D01*
X121783266Y-81614616D01*
X121899987Y-81805088D01*
X122046250Y-81973938D01*
X122050225Y-81977238D01*
X122050231Y-81977244D01*
X122055425Y-81981556D01*
X122095059Y-82040460D01*
X122096555Y-82111441D01*
X122059439Y-82171962D01*
X122019168Y-82196480D01*
X121911946Y-82236676D01*
X121896351Y-82245214D01*
X121794276Y-82321715D01*
X121781715Y-82334276D01*
X121705214Y-82436351D01*
X121696676Y-82451946D01*
X121651522Y-82572394D01*
X121647895Y-82587649D01*
X121642369Y-82638514D01*
X121642000Y-82645328D01*
X121642000Y-83267885D01*
X121646475Y-83283124D01*
X121647865Y-83284329D01*
X121655548Y-83286000D01*
X124339884Y-83286000D01*
X124355123Y-83281525D01*
X124356328Y-83280135D01*
X124357999Y-83272452D01*
X124357999Y-82645331D01*
X124357629Y-82638510D01*
X124352105Y-82587648D01*
X124348479Y-82572396D01*
X124303324Y-82451946D01*
X124294786Y-82436351D01*
X124218285Y-82334276D01*
X124205724Y-82321715D01*
X124103649Y-82245214D01*
X124088054Y-82236676D01*
X123977813Y-82195348D01*
X123921049Y-82152706D01*
X123896349Y-82086145D01*
X123911557Y-82016796D01*
X123933104Y-81988115D01*
X124034430Y-81887144D01*
X124034440Y-81887132D01*
X124038096Y-81883489D01*
X124097594Y-81800689D01*
X124165435Y-81706277D01*
X124168453Y-81702077D01*
X124267430Y-81501811D01*
X124299900Y-81394940D01*
X124330865Y-81293023D01*
X124330865Y-81293021D01*
X124332370Y-81288069D01*
X124361529Y-81066590D01*
X124362041Y-81045633D01*
X124363074Y-81003365D01*
X124363074Y-81003361D01*
X124363156Y-81000000D01*
X124360418Y-80966695D01*
X126712251Y-80966695D01*
X126712548Y-80971848D01*
X126712548Y-80971851D01*
X126718011Y-81066590D01*
X126725110Y-81189715D01*
X126726247Y-81194761D01*
X126726248Y-81194767D01*
X126729190Y-81207821D01*
X126774222Y-81407639D01*
X126858266Y-81614616D01*
X126974987Y-81805088D01*
X127121250Y-81973938D01*
X127125225Y-81977238D01*
X127125231Y-81977244D01*
X127130425Y-81981556D01*
X127170059Y-82040460D01*
X127171555Y-82111441D01*
X127134439Y-82171962D01*
X127094168Y-82196480D01*
X126986946Y-82236676D01*
X126971351Y-82245214D01*
X126869276Y-82321715D01*
X126856715Y-82334276D01*
X126780214Y-82436351D01*
X126771676Y-82451946D01*
X126726522Y-82572394D01*
X126722895Y-82587649D01*
X126717369Y-82638514D01*
X126717000Y-82645328D01*
X126717000Y-83267885D01*
X126721475Y-83283124D01*
X126722865Y-83284329D01*
X126730548Y-83286000D01*
X129414884Y-83286000D01*
X129430123Y-83281525D01*
X129431328Y-83280135D01*
X129432999Y-83272452D01*
X129432999Y-82645331D01*
X129432629Y-82638510D01*
X129427105Y-82587648D01*
X129423479Y-82572396D01*
X129378324Y-82451946D01*
X129369786Y-82436351D01*
X129293285Y-82334276D01*
X129280724Y-82321715D01*
X129178649Y-82245214D01*
X129163054Y-82236676D01*
X129052813Y-82195348D01*
X128996049Y-82152706D01*
X128971349Y-82086145D01*
X128986557Y-82016796D01*
X129008104Y-81988115D01*
X129109430Y-81887144D01*
X129109440Y-81887132D01*
X129113096Y-81883489D01*
X129172594Y-81800689D01*
X129240435Y-81706277D01*
X129243453Y-81702077D01*
X129342430Y-81501811D01*
X129374900Y-81394940D01*
X129405865Y-81293023D01*
X129405865Y-81293021D01*
X129407370Y-81288069D01*
X129436529Y-81066590D01*
X129437041Y-81045633D01*
X129438074Y-81003365D01*
X129438074Y-81003361D01*
X129438156Y-81000000D01*
X129419852Y-80777361D01*
X129365431Y-80560702D01*
X129276354Y-80355840D01*
X129155014Y-80168277D01*
X129004670Y-80003051D01*
X129000619Y-79999852D01*
X129000615Y-79999848D01*
X128833414Y-79867800D01*
X128833410Y-79867798D01*
X128829359Y-79864598D01*
X128633789Y-79756638D01*
X128628920Y-79754914D01*
X128628916Y-79754912D01*
X128428087Y-79683795D01*
X128428083Y-79683794D01*
X128423212Y-79682069D01*
X128418119Y-79681162D01*
X128418116Y-79681161D01*
X128208373Y-79643800D01*
X128208367Y-79643799D01*
X128203284Y-79642894D01*
X128129452Y-79641992D01*
X127985081Y-79640228D01*
X127985079Y-79640228D01*
X127979911Y-79640165D01*
X127759091Y-79673955D01*
X127546756Y-79743357D01*
X127516443Y-79759137D01*
X127369181Y-79835797D01*
X127348607Y-79846507D01*
X127344474Y-79849610D01*
X127344471Y-79849612D01*
X127320247Y-79867800D01*
X127169965Y-79980635D01*
X127166393Y-79984373D01*
X127036935Y-80119843D01*
X127015629Y-80142138D01*
X126889743Y-80326680D01*
X126795688Y-80529305D01*
X126735989Y-80744570D01*
X126712251Y-80966695D01*
X124360418Y-80966695D01*
X124344852Y-80777361D01*
X124290431Y-80560702D01*
X124201354Y-80355840D01*
X124080014Y-80168277D01*
X123929670Y-80003051D01*
X123925619Y-79999852D01*
X123925615Y-79999848D01*
X123758414Y-79867800D01*
X123758410Y-79867798D01*
X123754359Y-79864598D01*
X123558789Y-79756638D01*
X123553920Y-79754914D01*
X123553916Y-79754912D01*
X123353087Y-79683795D01*
X123353083Y-79683794D01*
X123348212Y-79682069D01*
X123343119Y-79681162D01*
X123343116Y-79681161D01*
X123133373Y-79643800D01*
X123133367Y-79643799D01*
X123128284Y-79642894D01*
X123054452Y-79641992D01*
X122910081Y-79640228D01*
X122910079Y-79640228D01*
X122904911Y-79640165D01*
X122684091Y-79673955D01*
X122471756Y-79743357D01*
X122441443Y-79759137D01*
X122294181Y-79835797D01*
X122273607Y-79846507D01*
X122269474Y-79849610D01*
X122269471Y-79849612D01*
X122245247Y-79867800D01*
X122094965Y-79980635D01*
X122091393Y-79984373D01*
X121961935Y-80119843D01*
X121940629Y-80142138D01*
X121814743Y-80326680D01*
X121720688Y-80529305D01*
X121660989Y-80744570D01*
X121637251Y-80966695D01*
X118367850Y-80966695D01*
X118497338Y-80853136D01*
X118500427Y-80850427D01*
X118559978Y-80782522D01*
X118692915Y-80630938D01*
X118692919Y-80630932D01*
X118695633Y-80627838D01*
X118743665Y-80555954D01*
X118857821Y-80385106D01*
X118860115Y-80381673D01*
X118872855Y-80355840D01*
X118976133Y-80146411D01*
X118991059Y-80116145D01*
X119029449Y-80003051D01*
X119084896Y-79839710D01*
X119084897Y-79839706D01*
X119086224Y-79835797D01*
X119101970Y-79756638D01*
X119143180Y-79549465D01*
X119143181Y-79549459D01*
X119143983Y-79545426D01*
X119163346Y-79250000D01*
X131836654Y-79250000D01*
X131856017Y-79545426D01*
X131856819Y-79549459D01*
X131856820Y-79549465D01*
X131898030Y-79756638D01*
X131913776Y-79835797D01*
X131915103Y-79839706D01*
X131915104Y-79839710D01*
X131970551Y-80003051D01*
X132008941Y-80116145D01*
X132023867Y-80146411D01*
X132127146Y-80355840D01*
X132139885Y-80381673D01*
X132142179Y-80385106D01*
X132256336Y-80555954D01*
X132304367Y-80627838D01*
X132307081Y-80630932D01*
X132307085Y-80630938D01*
X132440022Y-80782522D01*
X132499573Y-80850427D01*
X132502662Y-80853136D01*
X132719062Y-81042915D01*
X132719068Y-81042919D01*
X132722162Y-81045633D01*
X132725588Y-81047922D01*
X132725593Y-81047926D01*
X132753526Y-81066590D01*
X132968327Y-81210115D01*
X132972026Y-81211939D01*
X132972031Y-81211942D01*
X133108313Y-81279148D01*
X133233855Y-81341059D01*
X133237760Y-81342384D01*
X133237761Y-81342385D01*
X133510290Y-81434896D01*
X133510294Y-81434897D01*
X133514203Y-81436224D01*
X133518247Y-81437028D01*
X133518253Y-81437030D01*
X133800535Y-81493180D01*
X133800541Y-81493181D01*
X133804574Y-81493983D01*
X133808679Y-81494252D01*
X133808686Y-81494253D01*
X134095881Y-81513076D01*
X134100000Y-81513346D01*
X134104119Y-81513076D01*
X134391314Y-81494253D01*
X134391321Y-81494252D01*
X134395426Y-81493983D01*
X134399459Y-81493181D01*
X134399465Y-81493180D01*
X134681747Y-81437030D01*
X134681753Y-81437028D01*
X134685797Y-81436224D01*
X134689706Y-81434897D01*
X134689710Y-81434896D01*
X134962239Y-81342385D01*
X134962240Y-81342384D01*
X134966145Y-81341059D01*
X135091687Y-81279148D01*
X135227969Y-81211942D01*
X135227974Y-81211939D01*
X135231673Y-81210115D01*
X135446474Y-81066590D01*
X135474407Y-81047926D01*
X135474412Y-81047922D01*
X135477838Y-81045633D01*
X135480932Y-81042919D01*
X135480938Y-81042915D01*
X135697338Y-80853136D01*
X135700427Y-80850427D01*
X135759978Y-80782522D01*
X135892915Y-80630938D01*
X135892919Y-80630932D01*
X135895633Y-80627838D01*
X135943665Y-80555954D01*
X136057821Y-80385106D01*
X136060115Y-80381673D01*
X136072855Y-80355840D01*
X136176133Y-80146411D01*
X136191059Y-80116145D01*
X136229449Y-80003051D01*
X136284896Y-79839710D01*
X136284897Y-79839706D01*
X136286224Y-79835797D01*
X136301970Y-79756638D01*
X136343180Y-79549465D01*
X136343181Y-79549459D01*
X136343983Y-79545426D01*
X136363346Y-79250000D01*
X136343983Y-78954574D01*
X136286224Y-78664203D01*
X136191059Y-78383855D01*
X136060115Y-78118327D01*
X135895633Y-77872162D01*
X135892919Y-77869068D01*
X135892915Y-77869062D01*
X135703136Y-77652662D01*
X135700427Y-77649573D01*
X135697338Y-77646864D01*
X135480938Y-77457085D01*
X135480932Y-77457081D01*
X135477838Y-77454367D01*
X135474412Y-77452078D01*
X135474407Y-77452074D01*
X135235106Y-77292179D01*
X135231673Y-77289885D01*
X135227974Y-77288061D01*
X135227969Y-77288058D01*
X135091687Y-77220852D01*
X134966145Y-77158941D01*
X134962239Y-77157615D01*
X134689710Y-77065104D01*
X134689706Y-77065103D01*
X134685797Y-77063776D01*
X134681753Y-77062972D01*
X134681747Y-77062970D01*
X134399465Y-77006820D01*
X134399459Y-77006819D01*
X134395426Y-77006017D01*
X134391321Y-77005748D01*
X134391314Y-77005747D01*
X134104119Y-76986924D01*
X134100000Y-76986654D01*
X134095881Y-76986924D01*
X133808686Y-77005747D01*
X133808679Y-77005748D01*
X133804574Y-77006017D01*
X133800541Y-77006819D01*
X133800535Y-77006820D01*
X133518253Y-77062970D01*
X133518247Y-77062972D01*
X133514203Y-77063776D01*
X133510294Y-77065103D01*
X133510290Y-77065104D01*
X133237761Y-77157615D01*
X133233855Y-77158941D01*
X133108313Y-77220852D01*
X132972031Y-77288058D01*
X132972026Y-77288061D01*
X132968327Y-77289885D01*
X132964894Y-77292179D01*
X132725593Y-77452074D01*
X132725588Y-77452078D01*
X132722162Y-77454367D01*
X132719068Y-77457081D01*
X132719062Y-77457085D01*
X132502662Y-77646864D01*
X132499573Y-77649573D01*
X132496864Y-77652662D01*
X132307085Y-77869062D01*
X132307081Y-77869068D01*
X132304367Y-77872162D01*
X132139885Y-78118327D01*
X132008941Y-78383855D01*
X131913776Y-78664203D01*
X131856017Y-78954574D01*
X131836654Y-79250000D01*
X119163346Y-79250000D01*
X119143983Y-78954574D01*
X119086224Y-78664203D01*
X118991059Y-78383855D01*
X118860115Y-78118327D01*
X118695633Y-77872162D01*
X118692919Y-77869068D01*
X118692915Y-77869062D01*
X118503136Y-77652662D01*
X118500427Y-77649573D01*
X118497338Y-77646864D01*
X118280938Y-77457085D01*
X118280932Y-77457081D01*
X118277838Y-77454367D01*
X118274412Y-77452078D01*
X118274407Y-77452074D01*
X118035106Y-77292179D01*
X118031673Y-77289885D01*
X118027974Y-77288061D01*
X118027969Y-77288058D01*
X117891687Y-77220852D01*
X117766145Y-77158941D01*
X117762239Y-77157615D01*
X117489710Y-77065104D01*
X117489706Y-77065103D01*
X117485797Y-77063776D01*
X117481753Y-77062972D01*
X117481747Y-77062970D01*
X117199465Y-77006820D01*
X117199459Y-77006819D01*
X117195426Y-77006017D01*
X117191321Y-77005748D01*
X117191314Y-77005747D01*
X116904119Y-76986924D01*
X116900000Y-76986654D01*
X116895881Y-76986924D01*
X116608686Y-77005747D01*
X116608679Y-77005748D01*
X116604574Y-77006017D01*
X116600541Y-77006819D01*
X116600535Y-77006820D01*
X116318253Y-77062970D01*
X116318247Y-77062972D01*
X116314203Y-77063776D01*
X116310294Y-77065103D01*
X116310290Y-77065104D01*
X116037761Y-77157615D01*
X116033855Y-77158941D01*
X115908313Y-77220852D01*
X115772031Y-77288058D01*
X115772026Y-77288061D01*
X115768327Y-77289885D01*
X115764894Y-77292179D01*
X115525593Y-77452074D01*
X115525588Y-77452078D01*
X115522162Y-77454367D01*
X115519068Y-77457081D01*
X115519062Y-77457085D01*
X115302662Y-77646864D01*
X115299573Y-77649573D01*
X115296864Y-77652662D01*
X115107085Y-77869062D01*
X115107081Y-77869068D01*
X115104367Y-77872162D01*
X114939885Y-78118327D01*
X114808941Y-78383855D01*
X114713776Y-78664203D01*
X114656017Y-78954574D01*
X114636654Y-79250000D01*
X113620368Y-79250000D01*
X110748975Y-74275000D01*
X123236654Y-74275000D01*
X123256017Y-74570426D01*
X123313776Y-74860797D01*
X123408941Y-75141145D01*
X123539885Y-75406673D01*
X123704367Y-75652838D01*
X123707081Y-75655932D01*
X123707085Y-75655938D01*
X123896864Y-75872338D01*
X123899573Y-75875427D01*
X123902662Y-75878136D01*
X124119062Y-76067915D01*
X124119068Y-76067919D01*
X124122162Y-76070633D01*
X124125588Y-76072922D01*
X124125593Y-76072926D01*
X124309405Y-76195744D01*
X124368327Y-76235115D01*
X124372026Y-76236939D01*
X124372031Y-76236942D01*
X124508313Y-76304148D01*
X124633855Y-76366059D01*
X124637760Y-76367384D01*
X124637761Y-76367385D01*
X124910290Y-76459896D01*
X124910294Y-76459897D01*
X124914203Y-76461224D01*
X124918247Y-76462028D01*
X124918253Y-76462030D01*
X125200535Y-76518180D01*
X125200541Y-76518181D01*
X125204574Y-76518983D01*
X125208679Y-76519252D01*
X125208686Y-76519253D01*
X125495881Y-76538076D01*
X125500000Y-76538346D01*
X125504119Y-76538076D01*
X125791314Y-76519253D01*
X125791321Y-76519252D01*
X125795426Y-76518983D01*
X125799459Y-76518181D01*
X125799465Y-76518180D01*
X126081747Y-76462030D01*
X126081753Y-76462028D01*
X126085797Y-76461224D01*
X126089706Y-76459897D01*
X126089710Y-76459896D01*
X126362239Y-76367385D01*
X126362240Y-76367384D01*
X126366145Y-76366059D01*
X126491687Y-76304148D01*
X126627969Y-76236942D01*
X126627974Y-76236939D01*
X126631673Y-76235115D01*
X126690595Y-76195744D01*
X126874407Y-76072926D01*
X126874412Y-76072922D01*
X126877838Y-76070633D01*
X126880932Y-76067919D01*
X126880938Y-76067915D01*
X127097338Y-75878136D01*
X127100427Y-75875427D01*
X127103136Y-75872338D01*
X127292915Y-75655938D01*
X127292919Y-75655932D01*
X127295633Y-75652838D01*
X127460115Y-75406673D01*
X127591059Y-75141145D01*
X127686224Y-74860797D01*
X127743983Y-74570426D01*
X127763346Y-74275000D01*
X127743983Y-73979574D01*
X127686224Y-73689203D01*
X127591059Y-73408855D01*
X127460115Y-73143327D01*
X127295633Y-72897162D01*
X127292919Y-72894068D01*
X127292915Y-72894062D01*
X127103136Y-72677662D01*
X127100427Y-72674573D01*
X127097338Y-72671864D01*
X126880938Y-72482085D01*
X126880932Y-72482081D01*
X126877838Y-72479367D01*
X126874412Y-72477078D01*
X126874407Y-72477074D01*
X126635106Y-72317179D01*
X126631673Y-72314885D01*
X126627974Y-72313061D01*
X126627969Y-72313058D01*
X126476429Y-72238327D01*
X126366145Y-72183941D01*
X126303067Y-72162529D01*
X126089710Y-72090104D01*
X126089706Y-72090103D01*
X126085797Y-72088776D01*
X126081753Y-72087972D01*
X126081747Y-72087970D01*
X125799465Y-72031820D01*
X125799459Y-72031819D01*
X125795426Y-72031017D01*
X125791321Y-72030748D01*
X125791314Y-72030747D01*
X125504119Y-72011924D01*
X125500000Y-72011654D01*
X125495881Y-72011924D01*
X125208686Y-72030747D01*
X125208679Y-72030748D01*
X125204574Y-72031017D01*
X125200541Y-72031819D01*
X125200535Y-72031820D01*
X124918253Y-72087970D01*
X124918247Y-72087972D01*
X124914203Y-72088776D01*
X124910294Y-72090103D01*
X124910290Y-72090104D01*
X124696933Y-72162529D01*
X124633855Y-72183941D01*
X124523571Y-72238327D01*
X124372031Y-72313058D01*
X124372026Y-72313061D01*
X124368327Y-72314885D01*
X124364894Y-72317179D01*
X124125593Y-72477074D01*
X124125588Y-72477078D01*
X124122162Y-72479367D01*
X124119068Y-72482081D01*
X124119062Y-72482085D01*
X123902662Y-72671864D01*
X123899573Y-72674573D01*
X123896864Y-72677662D01*
X123707085Y-72894062D01*
X123707081Y-72894068D01*
X123704367Y-72897162D01*
X123539885Y-73143327D01*
X123408941Y-73408855D01*
X123313776Y-73689203D01*
X123256017Y-73979574D01*
X123236654Y-74275000D01*
X110748975Y-74275000D01*
X108911685Y-71091695D01*
X118662251Y-71091695D01*
X118662548Y-71096848D01*
X118662548Y-71096851D01*
X118668011Y-71191590D01*
X118675110Y-71314715D01*
X118676247Y-71319761D01*
X118676248Y-71319767D01*
X118696119Y-71407939D01*
X118724222Y-71532639D01*
X118808266Y-71739616D01*
X118924987Y-71930088D01*
X119071250Y-72098938D01*
X119243126Y-72241632D01*
X119436000Y-72354338D01*
X119644692Y-72434030D01*
X119649760Y-72435061D01*
X119649763Y-72435062D01*
X119757017Y-72456883D01*
X119863597Y-72478567D01*
X119868772Y-72478757D01*
X119868774Y-72478757D01*
X120081673Y-72486564D01*
X120081677Y-72486564D01*
X120086837Y-72486753D01*
X120091957Y-72486097D01*
X120091959Y-72486097D01*
X120303288Y-72459025D01*
X120303289Y-72459025D01*
X120308416Y-72458368D01*
X120313366Y-72456883D01*
X120517429Y-72395661D01*
X120517434Y-72395659D01*
X120522384Y-72394174D01*
X120722994Y-72295896D01*
X120904860Y-72166173D01*
X121063096Y-72008489D01*
X121122594Y-71925689D01*
X121190435Y-71831277D01*
X121193453Y-71827077D01*
X121292430Y-71626811D01*
X121357370Y-71413069D01*
X121386529Y-71191590D01*
X121388156Y-71125000D01*
X121385418Y-71091695D01*
X130307251Y-71091695D01*
X130307548Y-71096848D01*
X130307548Y-71096851D01*
X130313011Y-71191590D01*
X130320110Y-71314715D01*
X130321247Y-71319761D01*
X130321248Y-71319767D01*
X130341119Y-71407939D01*
X130369222Y-71532639D01*
X130453266Y-71739616D01*
X130569987Y-71930088D01*
X130716250Y-72098938D01*
X130888126Y-72241632D01*
X131081000Y-72354338D01*
X131289692Y-72434030D01*
X131294760Y-72435061D01*
X131294763Y-72435062D01*
X131402017Y-72456883D01*
X131508597Y-72478567D01*
X131513772Y-72478757D01*
X131513774Y-72478757D01*
X131726673Y-72486564D01*
X131726677Y-72486564D01*
X131731837Y-72486753D01*
X131736957Y-72486097D01*
X131736959Y-72486097D01*
X131948288Y-72459025D01*
X131948289Y-72459025D01*
X131953416Y-72458368D01*
X131958366Y-72456883D01*
X132162429Y-72395661D01*
X132162434Y-72395659D01*
X132167384Y-72394174D01*
X132367994Y-72295896D01*
X132549860Y-72166173D01*
X132708096Y-72008489D01*
X132767594Y-71925689D01*
X132835435Y-71831277D01*
X132838453Y-71827077D01*
X132937430Y-71626811D01*
X133002370Y-71413069D01*
X133031529Y-71191590D01*
X133033156Y-71125000D01*
X133014852Y-70902361D01*
X132960431Y-70685702D01*
X132871354Y-70480840D01*
X132750014Y-70293277D01*
X132746540Y-70289459D01*
X132746533Y-70289450D01*
X132602435Y-70131088D01*
X132571383Y-70067242D01*
X132579779Y-69996744D01*
X132624956Y-69941976D01*
X132651400Y-69928307D01*
X132758052Y-69888325D01*
X132773649Y-69879786D01*
X132875724Y-69803285D01*
X132888285Y-69790724D01*
X132964786Y-69688649D01*
X132973324Y-69673054D01*
X133018478Y-69552606D01*
X133022105Y-69537351D01*
X133027631Y-69486486D01*
X133028000Y-69479672D01*
X133028000Y-68857115D01*
X133023525Y-68841876D01*
X133022135Y-68840671D01*
X133014452Y-68839000D01*
X130330116Y-68839000D01*
X130314877Y-68843475D01*
X130313672Y-68844865D01*
X130312001Y-68852548D01*
X130312001Y-69479669D01*
X130312371Y-69486490D01*
X130317895Y-69537352D01*
X130321521Y-69552604D01*
X130366676Y-69673054D01*
X130375214Y-69688649D01*
X130451715Y-69790724D01*
X130464276Y-69803285D01*
X130566351Y-69879786D01*
X130581946Y-69888324D01*
X130690827Y-69929142D01*
X130747591Y-69971784D01*
X130772291Y-70038345D01*
X130757083Y-70107694D01*
X130737691Y-70134175D01*
X130614200Y-70263401D01*
X130610629Y-70267138D01*
X130484743Y-70451680D01*
X130390688Y-70654305D01*
X130330989Y-70869570D01*
X130307251Y-71091695D01*
X121385418Y-71091695D01*
X121369852Y-70902361D01*
X121315431Y-70685702D01*
X121226354Y-70480840D01*
X121105014Y-70293277D01*
X121101540Y-70289459D01*
X121101533Y-70289450D01*
X120957435Y-70131088D01*
X120926383Y-70067242D01*
X120934779Y-69996744D01*
X120979956Y-69941976D01*
X121006400Y-69928307D01*
X121113052Y-69888325D01*
X121128649Y-69879786D01*
X121230724Y-69803285D01*
X121243285Y-69790724D01*
X121319786Y-69688649D01*
X121328324Y-69673054D01*
X121373478Y-69552606D01*
X121377105Y-69537351D01*
X121382631Y-69486486D01*
X121383000Y-69479672D01*
X121383000Y-68857115D01*
X121378525Y-68841876D01*
X121377135Y-68840671D01*
X121369452Y-68839000D01*
X118685116Y-68839000D01*
X118669877Y-68843475D01*
X118668672Y-68844865D01*
X118667001Y-68852548D01*
X118667001Y-69479669D01*
X118667371Y-69486490D01*
X118672895Y-69537352D01*
X118676521Y-69552604D01*
X118721676Y-69673054D01*
X118730214Y-69688649D01*
X118806715Y-69790724D01*
X118819276Y-69803285D01*
X118921351Y-69879786D01*
X118936946Y-69888324D01*
X119045827Y-69929142D01*
X119102591Y-69971784D01*
X119127291Y-70038345D01*
X119112083Y-70107694D01*
X119092691Y-70134175D01*
X118969200Y-70263401D01*
X118965629Y-70267138D01*
X118839743Y-70451680D01*
X118745688Y-70654305D01*
X118685989Y-70869570D01*
X118662251Y-71091695D01*
X108911685Y-71091695D01*
X107307855Y-68312885D01*
X118667000Y-68312885D01*
X118671475Y-68328124D01*
X118672865Y-68329329D01*
X118680548Y-68331000D01*
X119752885Y-68331000D01*
X119768124Y-68326525D01*
X119769329Y-68325135D01*
X119771000Y-68317452D01*
X119771000Y-68312885D01*
X120279000Y-68312885D01*
X120283475Y-68328124D01*
X120284865Y-68329329D01*
X120292548Y-68331000D01*
X121364884Y-68331000D01*
X121380123Y-68326525D01*
X121381328Y-68325135D01*
X121382999Y-68317452D01*
X121382999Y-68312885D01*
X130312000Y-68312885D01*
X130316475Y-68328124D01*
X130317865Y-68329329D01*
X130325548Y-68331000D01*
X131397885Y-68331000D01*
X131413124Y-68326525D01*
X131414329Y-68325135D01*
X131416000Y-68317452D01*
X131416000Y-68312885D01*
X131924000Y-68312885D01*
X131928475Y-68328124D01*
X131929865Y-68329329D01*
X131937548Y-68331000D01*
X133009884Y-68331000D01*
X133025123Y-68326525D01*
X133026328Y-68325135D01*
X133027999Y-68317452D01*
X133027999Y-67690331D01*
X133027629Y-67683510D01*
X133022105Y-67632648D01*
X133018479Y-67617396D01*
X132973324Y-67496946D01*
X132964786Y-67481351D01*
X132888285Y-67379276D01*
X132875724Y-67366715D01*
X132773649Y-67290214D01*
X132758054Y-67281676D01*
X132637606Y-67236522D01*
X132622351Y-67232895D01*
X132571486Y-67227369D01*
X132564672Y-67227000D01*
X131942115Y-67227000D01*
X131926876Y-67231475D01*
X131925671Y-67232865D01*
X131924000Y-67240548D01*
X131924000Y-68312885D01*
X131416000Y-68312885D01*
X131416000Y-67245116D01*
X131411525Y-67229877D01*
X131410135Y-67228672D01*
X131402452Y-67227001D01*
X130775331Y-67227001D01*
X130768510Y-67227371D01*
X130717648Y-67232895D01*
X130702396Y-67236521D01*
X130581946Y-67281676D01*
X130566351Y-67290214D01*
X130464276Y-67366715D01*
X130451715Y-67379276D01*
X130375214Y-67481351D01*
X130366676Y-67496946D01*
X130321522Y-67617394D01*
X130317895Y-67632649D01*
X130312369Y-67683514D01*
X130312000Y-67690328D01*
X130312000Y-68312885D01*
X121382999Y-68312885D01*
X121382999Y-67690331D01*
X121382629Y-67683510D01*
X121377105Y-67632648D01*
X121373479Y-67617396D01*
X121328324Y-67496946D01*
X121319786Y-67481351D01*
X121243285Y-67379276D01*
X121230724Y-67366715D01*
X121128649Y-67290214D01*
X121113054Y-67281676D01*
X120992606Y-67236522D01*
X120977351Y-67232895D01*
X120926486Y-67227369D01*
X120919672Y-67227000D01*
X120297115Y-67227000D01*
X120281876Y-67231475D01*
X120280671Y-67232865D01*
X120279000Y-67240548D01*
X120279000Y-68312885D01*
X119771000Y-68312885D01*
X119771000Y-67245116D01*
X119766525Y-67229877D01*
X119765135Y-67228672D01*
X119757452Y-67227001D01*
X119130331Y-67227001D01*
X119123510Y-67227371D01*
X119072648Y-67232895D01*
X119057396Y-67236521D01*
X118936946Y-67281676D01*
X118921351Y-67290214D01*
X118819276Y-67366715D01*
X118806715Y-67379276D01*
X118730214Y-67481351D01*
X118721676Y-67496946D01*
X118676522Y-67617394D01*
X118672895Y-67632649D01*
X118667369Y-67683514D01*
X118667000Y-67690328D01*
X118667000Y-68312885D01*
X107307855Y-68312885D01*
X104962902Y-64250000D01*
X123236654Y-64250000D01*
X123256017Y-64545426D01*
X123313776Y-64835797D01*
X123408941Y-65116145D01*
X123539885Y-65381673D01*
X123704367Y-65627838D01*
X123707081Y-65630932D01*
X123707085Y-65630938D01*
X123896864Y-65847338D01*
X123899573Y-65850427D01*
X123902662Y-65853136D01*
X124119062Y-66042915D01*
X124119068Y-66042919D01*
X124122162Y-66045633D01*
X124125588Y-66047922D01*
X124125593Y-66047926D01*
X124309405Y-66170744D01*
X124368327Y-66210115D01*
X124372026Y-66211939D01*
X124372031Y-66211942D01*
X124508313Y-66279148D01*
X124633855Y-66341059D01*
X124637760Y-66342384D01*
X124637761Y-66342385D01*
X124910290Y-66434896D01*
X124910294Y-66434897D01*
X124914203Y-66436224D01*
X124918247Y-66437028D01*
X124918253Y-66437030D01*
X125200535Y-66493180D01*
X125200541Y-66493181D01*
X125204574Y-66493983D01*
X125208679Y-66494252D01*
X125208686Y-66494253D01*
X125495881Y-66513076D01*
X125500000Y-66513346D01*
X125504119Y-66513076D01*
X125791314Y-66494253D01*
X125791321Y-66494252D01*
X125795426Y-66493983D01*
X125799459Y-66493181D01*
X125799465Y-66493180D01*
X126081747Y-66437030D01*
X126081753Y-66437028D01*
X126085797Y-66436224D01*
X126089706Y-66434897D01*
X126089710Y-66434896D01*
X126362239Y-66342385D01*
X126362240Y-66342384D01*
X126366145Y-66341059D01*
X126491687Y-66279148D01*
X126627969Y-66211942D01*
X126627974Y-66211939D01*
X126631673Y-66210115D01*
X126690595Y-66170744D01*
X126874407Y-66047926D01*
X126874412Y-66047922D01*
X126877838Y-66045633D01*
X126880932Y-66042919D01*
X126880938Y-66042915D01*
X127097338Y-65853136D01*
X127100427Y-65850427D01*
X127103136Y-65847338D01*
X127292915Y-65630938D01*
X127292919Y-65630932D01*
X127295633Y-65627838D01*
X127460115Y-65381673D01*
X127591059Y-65116145D01*
X127686224Y-64835797D01*
X127743983Y-64545426D01*
X127763346Y-64250000D01*
X127743983Y-63954574D01*
X127686224Y-63664203D01*
X127591059Y-63383855D01*
X127460115Y-63118327D01*
X127295633Y-62872162D01*
X127292919Y-62869068D01*
X127292915Y-62869062D01*
X127103136Y-62652662D01*
X127100427Y-62649573D01*
X127097338Y-62646864D01*
X126880938Y-62457085D01*
X126880932Y-62457081D01*
X126877838Y-62454367D01*
X126874412Y-62452078D01*
X126874407Y-62452074D01*
X126635106Y-62292179D01*
X126631673Y-62289885D01*
X126627974Y-62288061D01*
X126627969Y-62288058D01*
X126491687Y-62220852D01*
X126366145Y-62158941D01*
X126362239Y-62157615D01*
X126089710Y-62065104D01*
X126089706Y-62065103D01*
X126085797Y-62063776D01*
X126081753Y-62062972D01*
X126081747Y-62062970D01*
X125799465Y-62006820D01*
X125799459Y-62006819D01*
X125795426Y-62006017D01*
X125791321Y-62005748D01*
X125791314Y-62005747D01*
X125504119Y-61986924D01*
X125500000Y-61986654D01*
X125495881Y-61986924D01*
X125208686Y-62005747D01*
X125208679Y-62005748D01*
X125204574Y-62006017D01*
X125200541Y-62006819D01*
X125200535Y-62006820D01*
X124918253Y-62062970D01*
X124918247Y-62062972D01*
X124914203Y-62063776D01*
X124910294Y-62065103D01*
X124910290Y-62065104D01*
X124637761Y-62157615D01*
X124633855Y-62158941D01*
X124508313Y-62220852D01*
X124372031Y-62288058D01*
X124372026Y-62288061D01*
X124368327Y-62289885D01*
X124364894Y-62292179D01*
X124125593Y-62452074D01*
X124125588Y-62452078D01*
X124122162Y-62454367D01*
X124119068Y-62457081D01*
X124119062Y-62457085D01*
X123902662Y-62646864D01*
X123899573Y-62649573D01*
X123896864Y-62652662D01*
X123707085Y-62869062D01*
X123707081Y-62869068D01*
X123704367Y-62872162D01*
X123539885Y-63118327D01*
X123408941Y-63383855D01*
X123313776Y-63664203D01*
X123256017Y-63954574D01*
X123236654Y-64250000D01*
X104962902Y-64250000D01*
X103489681Y-61697484D01*
X103472953Y-61628487D01*
X103496183Y-61561399D01*
X103551996Y-61517519D01*
X103598809Y-61508500D01*
X147401191Y-61508500D01*
X147469312Y-61528502D01*
G37*
G04 #@! TD.AperFunction*
M02*
