G04 #@! TF.GenerationSoftware,KiCad,Pcbnew,6.0.11-2627ca5db0~126~ubuntu22.04.1*
G04 #@! TF.CreationDate,2023-11-05T13:12:04+01:00*
G04 #@! TF.ProjectId,CC_LED_Driver,43435f4c-4544-45f4-9472-697665722e6b,rev?*
G04 #@! TF.SameCoordinates,Original*
G04 #@! TF.FileFunction,Copper,L2,Bot*
G04 #@! TF.FilePolarity,Positive*
%FSLAX46Y46*%
G04 Gerber Fmt 4.6, Leading zero omitted, Abs format (unit mm)*
G04 Created by KiCad (PCBNEW 6.0.11-2627ca5db0~126~ubuntu22.04.1) date 2023-11-05 13:12:04*
%MOMM*%
%LPD*%
G01*
G04 APERTURE LIST*
%ADD10C,0.300000*%
G04 #@! TA.AperFunction,NonConductor*
%ADD11C,0.300000*%
G04 #@! TD*
G04 #@! TA.AperFunction,ComponentPad*
%ADD12R,1.700000X1.700000*%
G04 #@! TD*
G04 #@! TA.AperFunction,ComponentPad*
%ADD13O,1.700000X1.700000*%
G04 #@! TD*
G04 #@! TA.AperFunction,ViaPad*
%ADD14C,0.800000*%
G04 #@! TD*
G04 #@! TA.AperFunction,Conductor*
%ADD15C,0.500000*%
G04 #@! TD*
G04 APERTURE END LIST*
D10*
D11*
X144750000Y-63928571D02*
X145464285Y-63928571D01*
X145464285Y-62428571D01*
X144250000Y-63928571D02*
X144250000Y-62428571D01*
X143750000Y-63500000D01*
X143250000Y-62428571D01*
X143250000Y-63928571D01*
X142678571Y-62428571D02*
X142321428Y-63928571D01*
X142035714Y-62857142D01*
X141750000Y-63928571D01*
X141392857Y-62428571D01*
X140321428Y-63142857D02*
X140107142Y-63214285D01*
X140035714Y-63285714D01*
X139964285Y-63428571D01*
X139964285Y-63642857D01*
X140035714Y-63785714D01*
X140107142Y-63857142D01*
X140250000Y-63928571D01*
X140821428Y-63928571D01*
X140821428Y-62428571D01*
X140321428Y-62428571D01*
X140178571Y-62500000D01*
X140107142Y-62571428D01*
X140035714Y-62714285D01*
X140035714Y-62857142D01*
X140107142Y-63000000D01*
X140178571Y-63071428D01*
X140321428Y-63142857D01*
X140821428Y-63142857D01*
D12*
X135600000Y-112025000D03*
D13*
X135600000Y-114565000D03*
D12*
X114475000Y-81500000D03*
D13*
X117015000Y-81500000D03*
D12*
X120000000Y-134875000D03*
D13*
X117460000Y-134875000D03*
D12*
X135600000Y-71525000D03*
D13*
X135600000Y-74065000D03*
D12*
X135600000Y-99425000D03*
D13*
X135600000Y-101965000D03*
D14*
X131750000Y-142750000D03*
X124500000Y-136750000D03*
X129000000Y-142750000D03*
X134500000Y-142750000D03*
D15*
X135600000Y-99425000D02*
X135600000Y-74065000D01*
X135600000Y-101965000D02*
X135600000Y-112025000D01*
G04 #@! TA.AperFunction,Conductor*
G36*
X138962193Y-61528502D02*
G01*
X139008686Y-61582158D01*
X139020072Y-61634500D01*
X139020072Y-65191000D01*
X146479929Y-65191000D01*
X146479929Y-61634500D01*
X146499931Y-61566379D01*
X146553587Y-61519886D01*
X146605929Y-61508500D01*
X147778096Y-61508500D01*
X147846217Y-61528502D01*
X147892710Y-61582158D01*
X147903054Y-61650671D01*
X137067278Y-145381671D01*
X137038699Y-145446661D01*
X136979520Y-145485883D01*
X136942320Y-145491500D01*
X114057680Y-145491500D01*
X113989559Y-145471498D01*
X113943066Y-145417842D01*
X113932722Y-145381671D01*
X113592153Y-142750000D01*
X123236654Y-142750000D01*
X123256017Y-143045426D01*
X123313776Y-143335797D01*
X123408941Y-143616145D01*
X123539885Y-143881673D01*
X123704367Y-144127838D01*
X123707081Y-144130932D01*
X123707085Y-144130938D01*
X123896864Y-144347338D01*
X123899573Y-144350427D01*
X123902662Y-144353136D01*
X124119062Y-144542915D01*
X124119068Y-144542919D01*
X124122162Y-144545633D01*
X124125588Y-144547922D01*
X124125593Y-144547926D01*
X124309405Y-144670744D01*
X124368327Y-144710115D01*
X124372026Y-144711939D01*
X124372031Y-144711942D01*
X124508313Y-144779148D01*
X124633855Y-144841059D01*
X124637760Y-144842384D01*
X124637761Y-144842385D01*
X124910290Y-144934896D01*
X124910294Y-144934897D01*
X124914203Y-144936224D01*
X124918247Y-144937028D01*
X124918253Y-144937030D01*
X125200535Y-144993180D01*
X125200541Y-144993181D01*
X125204574Y-144993983D01*
X125208679Y-144994252D01*
X125208686Y-144994253D01*
X125495881Y-145013076D01*
X125500000Y-145013346D01*
X125504119Y-145013076D01*
X125791314Y-144994253D01*
X125791321Y-144994252D01*
X125795426Y-144993983D01*
X125799459Y-144993181D01*
X125799465Y-144993180D01*
X126081747Y-144937030D01*
X126081753Y-144937028D01*
X126085797Y-144936224D01*
X126089706Y-144934897D01*
X126089710Y-144934896D01*
X126362239Y-144842385D01*
X126362240Y-144842384D01*
X126366145Y-144841059D01*
X126491687Y-144779148D01*
X126627969Y-144711942D01*
X126627974Y-144711939D01*
X126631673Y-144710115D01*
X126690595Y-144670744D01*
X126874407Y-144547926D01*
X126874412Y-144547922D01*
X126877838Y-144545633D01*
X126880932Y-144542919D01*
X126880938Y-144542915D01*
X127097338Y-144353136D01*
X127100427Y-144350427D01*
X127103136Y-144347338D01*
X127292915Y-144130938D01*
X127292919Y-144130932D01*
X127295633Y-144127838D01*
X127460115Y-143881673D01*
X127591059Y-143616145D01*
X127686224Y-143335797D01*
X127743983Y-143045426D01*
X127763346Y-142750000D01*
X127743983Y-142454574D01*
X127686224Y-142164203D01*
X127591059Y-141883855D01*
X127460115Y-141618327D01*
X127295633Y-141372162D01*
X127292919Y-141369068D01*
X127292915Y-141369062D01*
X127103136Y-141152662D01*
X127100427Y-141149573D01*
X127097338Y-141146864D01*
X126880938Y-140957085D01*
X126880932Y-140957081D01*
X126877838Y-140954367D01*
X126874412Y-140952078D01*
X126874407Y-140952074D01*
X126635106Y-140792179D01*
X126631673Y-140789885D01*
X126627974Y-140788061D01*
X126627969Y-140788058D01*
X126491687Y-140720852D01*
X126366145Y-140658941D01*
X126362239Y-140657615D01*
X126089710Y-140565104D01*
X126089706Y-140565103D01*
X126085797Y-140563776D01*
X126081753Y-140562972D01*
X126081747Y-140562970D01*
X125799465Y-140506820D01*
X125799459Y-140506819D01*
X125795426Y-140506017D01*
X125791321Y-140505748D01*
X125791314Y-140505747D01*
X125504119Y-140486924D01*
X125500000Y-140486654D01*
X125495881Y-140486924D01*
X125208686Y-140505747D01*
X125208679Y-140505748D01*
X125204574Y-140506017D01*
X125200541Y-140506819D01*
X125200535Y-140506820D01*
X124918253Y-140562970D01*
X124918247Y-140562972D01*
X124914203Y-140563776D01*
X124910294Y-140565103D01*
X124910290Y-140565104D01*
X124637761Y-140657615D01*
X124633855Y-140658941D01*
X124508313Y-140720852D01*
X124372031Y-140788058D01*
X124372026Y-140788061D01*
X124368327Y-140789885D01*
X124364894Y-140792179D01*
X124125593Y-140952074D01*
X124125588Y-140952078D01*
X124122162Y-140954367D01*
X124119068Y-140957081D01*
X124119062Y-140957085D01*
X123902662Y-141146864D01*
X123899573Y-141149573D01*
X123896864Y-141152662D01*
X123707085Y-141369062D01*
X123707081Y-141369068D01*
X123704367Y-141372162D01*
X123539885Y-141618327D01*
X123408941Y-141883855D01*
X123313776Y-142164203D01*
X123256017Y-142454574D01*
X123236654Y-142750000D01*
X113592153Y-142750000D01*
X112568725Y-134841695D01*
X116097251Y-134841695D01*
X116110110Y-135064715D01*
X116111247Y-135069761D01*
X116111248Y-135069767D01*
X116125606Y-135133475D01*
X116159222Y-135282639D01*
X116243266Y-135489616D01*
X116359987Y-135680088D01*
X116506250Y-135848938D01*
X116678126Y-135991632D01*
X116871000Y-136104338D01*
X117079692Y-136184030D01*
X117084760Y-136185061D01*
X117084763Y-136185062D01*
X117192017Y-136206883D01*
X117298597Y-136228567D01*
X117303772Y-136228757D01*
X117303774Y-136228757D01*
X117516673Y-136236564D01*
X117516677Y-136236564D01*
X117521837Y-136236753D01*
X117526957Y-136236097D01*
X117526959Y-136236097D01*
X117738288Y-136209025D01*
X117738289Y-136209025D01*
X117743416Y-136208368D01*
X117748366Y-136206883D01*
X117952429Y-136145661D01*
X117952434Y-136145659D01*
X117957384Y-136144174D01*
X118157994Y-136045896D01*
X118339860Y-135916173D01*
X118407331Y-135848938D01*
X118448479Y-135807933D01*
X118510851Y-135774017D01*
X118581658Y-135779205D01*
X118638419Y-135821851D01*
X118655401Y-135852954D01*
X118696676Y-135963054D01*
X118705214Y-135978649D01*
X118781715Y-136080724D01*
X118794276Y-136093285D01*
X118896351Y-136169786D01*
X118911946Y-136178324D01*
X119032394Y-136223478D01*
X119047649Y-136227105D01*
X119098514Y-136232631D01*
X119105328Y-136233000D01*
X119727885Y-136233000D01*
X119743124Y-136228525D01*
X119744329Y-136227135D01*
X119746000Y-136219452D01*
X119746000Y-136214884D01*
X120254000Y-136214884D01*
X120258475Y-136230123D01*
X120259865Y-136231328D01*
X120267548Y-136232999D01*
X120894669Y-136232999D01*
X120901490Y-136232629D01*
X120952352Y-136227105D01*
X120967604Y-136223479D01*
X121088054Y-136178324D01*
X121103649Y-136169786D01*
X121205724Y-136093285D01*
X121218285Y-136080724D01*
X121294786Y-135978649D01*
X121303324Y-135963054D01*
X121348478Y-135842606D01*
X121352105Y-135827351D01*
X121357631Y-135776486D01*
X121358000Y-135769672D01*
X121358000Y-135147115D01*
X121353525Y-135131876D01*
X121352135Y-135130671D01*
X121344452Y-135129000D01*
X120272115Y-135129000D01*
X120256876Y-135133475D01*
X120255671Y-135134865D01*
X120254000Y-135142548D01*
X120254000Y-136214884D01*
X119746000Y-136214884D01*
X119746000Y-134602885D01*
X120254000Y-134602885D01*
X120258475Y-134618124D01*
X120259865Y-134619329D01*
X120267548Y-134621000D01*
X121339884Y-134621000D01*
X121355123Y-134616525D01*
X121356328Y-134615135D01*
X121357999Y-134607452D01*
X121357999Y-133980331D01*
X121357629Y-133973510D01*
X121352105Y-133922648D01*
X121348479Y-133907396D01*
X121303324Y-133786946D01*
X121294786Y-133771351D01*
X121218285Y-133669276D01*
X121205724Y-133656715D01*
X121103649Y-133580214D01*
X121088054Y-133571676D01*
X120967606Y-133526522D01*
X120952351Y-133522895D01*
X120901486Y-133517369D01*
X120894672Y-133517000D01*
X120272115Y-133517000D01*
X120256876Y-133521475D01*
X120255671Y-133522865D01*
X120254000Y-133530548D01*
X120254000Y-134602885D01*
X119746000Y-134602885D01*
X119746000Y-133535116D01*
X119741525Y-133519877D01*
X119740135Y-133518672D01*
X119732452Y-133517001D01*
X119105331Y-133517001D01*
X119098510Y-133517371D01*
X119047648Y-133522895D01*
X119032396Y-133526521D01*
X118911946Y-133571676D01*
X118896351Y-133580214D01*
X118794276Y-133656715D01*
X118781715Y-133669276D01*
X118705214Y-133771351D01*
X118696676Y-133786946D01*
X118655297Y-133897322D01*
X118612655Y-133954087D01*
X118546093Y-133978786D01*
X118476744Y-133963578D01*
X118444121Y-133937891D01*
X118393151Y-133881876D01*
X118393148Y-133881873D01*
X118389670Y-133878051D01*
X118385619Y-133874852D01*
X118385615Y-133874848D01*
X118218414Y-133742800D01*
X118218410Y-133742798D01*
X118214359Y-133739598D01*
X118018789Y-133631638D01*
X118013920Y-133629914D01*
X118013916Y-133629912D01*
X117813087Y-133558795D01*
X117813083Y-133558794D01*
X117808212Y-133557069D01*
X117803119Y-133556162D01*
X117803116Y-133556161D01*
X117593373Y-133518800D01*
X117593367Y-133518799D01*
X117588284Y-133517894D01*
X117514452Y-133516992D01*
X117370081Y-133515228D01*
X117370079Y-133515228D01*
X117364911Y-133515165D01*
X117144091Y-133548955D01*
X116931756Y-133618357D01*
X116733607Y-133721507D01*
X116729474Y-133724610D01*
X116729471Y-133724612D01*
X116646450Y-133786946D01*
X116554965Y-133855635D01*
X116400629Y-134017138D01*
X116274743Y-134201680D01*
X116180688Y-134404305D01*
X116120989Y-134619570D01*
X116097251Y-134841695D01*
X112568725Y-134841695D01*
X109940372Y-114531695D01*
X134237251Y-114531695D01*
X134237548Y-114536848D01*
X134237548Y-114536851D01*
X134243011Y-114631590D01*
X134250110Y-114754715D01*
X134251247Y-114759761D01*
X134251248Y-114759767D01*
X134271119Y-114847939D01*
X134299222Y-114972639D01*
X134383266Y-115179616D01*
X134499987Y-115370088D01*
X134646250Y-115538938D01*
X134818126Y-115681632D01*
X135011000Y-115794338D01*
X135219692Y-115874030D01*
X135224760Y-115875061D01*
X135224763Y-115875062D01*
X135332017Y-115896883D01*
X135438597Y-115918567D01*
X135443772Y-115918757D01*
X135443774Y-115918757D01*
X135656673Y-115926564D01*
X135656677Y-115926564D01*
X135661837Y-115926753D01*
X135666957Y-115926097D01*
X135666959Y-115926097D01*
X135878288Y-115899025D01*
X135878289Y-115899025D01*
X135883416Y-115898368D01*
X135888366Y-115896883D01*
X136092429Y-115835661D01*
X136092434Y-115835659D01*
X136097384Y-115834174D01*
X136297994Y-115735896D01*
X136479860Y-115606173D01*
X136638096Y-115448489D01*
X136697594Y-115365689D01*
X136765435Y-115271277D01*
X136768453Y-115267077D01*
X136867430Y-115066811D01*
X136932370Y-114853069D01*
X136961529Y-114631590D01*
X136963156Y-114565000D01*
X136944852Y-114342361D01*
X136890431Y-114125702D01*
X136801354Y-113920840D01*
X136680014Y-113733277D01*
X136676532Y-113729450D01*
X136532798Y-113571488D01*
X136501746Y-113507642D01*
X136510141Y-113437143D01*
X136555317Y-113382375D01*
X136581761Y-113368706D01*
X136688297Y-113328767D01*
X136696705Y-113325615D01*
X136813261Y-113238261D01*
X136900615Y-113121705D01*
X136951745Y-112985316D01*
X136958500Y-112923134D01*
X136958500Y-111126866D01*
X136951745Y-111064684D01*
X136900615Y-110928295D01*
X136813261Y-110811739D01*
X136696705Y-110724385D01*
X136560316Y-110673255D01*
X136498134Y-110666500D01*
X136484500Y-110666500D01*
X136416379Y-110646498D01*
X136369886Y-110592842D01*
X136358500Y-110540500D01*
X136358500Y-103157632D01*
X136378502Y-103089511D01*
X136411331Y-103055054D01*
X136479860Y-103006173D01*
X136638096Y-102848489D01*
X136697594Y-102765689D01*
X136765435Y-102671277D01*
X136768453Y-102667077D01*
X136867430Y-102466811D01*
X136932370Y-102253069D01*
X136961529Y-102031590D01*
X136963156Y-101965000D01*
X136944852Y-101742361D01*
X136890431Y-101525702D01*
X136801354Y-101320840D01*
X136680014Y-101133277D01*
X136676532Y-101129450D01*
X136532798Y-100971488D01*
X136501746Y-100907642D01*
X136510141Y-100837143D01*
X136555317Y-100782375D01*
X136581761Y-100768706D01*
X136688297Y-100728767D01*
X136696705Y-100725615D01*
X136813261Y-100638261D01*
X136900615Y-100521705D01*
X136951745Y-100385316D01*
X136958500Y-100323134D01*
X136958500Y-98526866D01*
X136951745Y-98464684D01*
X136900615Y-98328295D01*
X136813261Y-98211739D01*
X136696705Y-98124385D01*
X136560316Y-98073255D01*
X136498134Y-98066500D01*
X136484500Y-98066500D01*
X136416379Y-98046498D01*
X136369886Y-97992842D01*
X136358500Y-97940500D01*
X136358500Y-75257632D01*
X136378502Y-75189511D01*
X136411331Y-75155054D01*
X136479860Y-75106173D01*
X136638096Y-74948489D01*
X136697594Y-74865689D01*
X136765435Y-74771277D01*
X136768453Y-74767077D01*
X136867430Y-74566811D01*
X136932370Y-74353069D01*
X136961529Y-74131590D01*
X136963156Y-74065000D01*
X136944852Y-73842361D01*
X136890431Y-73625702D01*
X136801354Y-73420840D01*
X136680014Y-73233277D01*
X136676532Y-73229450D01*
X136532798Y-73071488D01*
X136501746Y-73007642D01*
X136510141Y-72937143D01*
X136555317Y-72882375D01*
X136581761Y-72868706D01*
X136688297Y-72828767D01*
X136696705Y-72825615D01*
X136813261Y-72738261D01*
X136900615Y-72621705D01*
X136951745Y-72485316D01*
X136958500Y-72423134D01*
X136958500Y-70626866D01*
X136951745Y-70564684D01*
X136900615Y-70428295D01*
X136813261Y-70311739D01*
X136696705Y-70224385D01*
X136560316Y-70173255D01*
X136498134Y-70166500D01*
X134701866Y-70166500D01*
X134639684Y-70173255D01*
X134503295Y-70224385D01*
X134386739Y-70311739D01*
X134299385Y-70428295D01*
X134248255Y-70564684D01*
X134241500Y-70626866D01*
X134241500Y-72423134D01*
X134248255Y-72485316D01*
X134299385Y-72621705D01*
X134386739Y-72738261D01*
X134503295Y-72825615D01*
X134511704Y-72828767D01*
X134511705Y-72828768D01*
X134620451Y-72869535D01*
X134677216Y-72912176D01*
X134701916Y-72978738D01*
X134686709Y-73048087D01*
X134667316Y-73074568D01*
X134540629Y-73207138D01*
X134414743Y-73391680D01*
X134320688Y-73594305D01*
X134260989Y-73809570D01*
X134237251Y-74031695D01*
X134237548Y-74036848D01*
X134237548Y-74036851D01*
X134243011Y-74131590D01*
X134250110Y-74254715D01*
X134251247Y-74259761D01*
X134251248Y-74259767D01*
X134271119Y-74347939D01*
X134299222Y-74472639D01*
X134383266Y-74679616D01*
X134499987Y-74870088D01*
X134646250Y-75038938D01*
X134795985Y-75163250D01*
X134835620Y-75222152D01*
X134841500Y-75260194D01*
X134841500Y-97940500D01*
X134821498Y-98008621D01*
X134767842Y-98055114D01*
X134715500Y-98066500D01*
X134701866Y-98066500D01*
X134639684Y-98073255D01*
X134503295Y-98124385D01*
X134386739Y-98211739D01*
X134299385Y-98328295D01*
X134248255Y-98464684D01*
X134241500Y-98526866D01*
X134241500Y-100323134D01*
X134248255Y-100385316D01*
X134299385Y-100521705D01*
X134386739Y-100638261D01*
X134503295Y-100725615D01*
X134511704Y-100728767D01*
X134511705Y-100728768D01*
X134620451Y-100769535D01*
X134677216Y-100812176D01*
X134701916Y-100878738D01*
X134686709Y-100948087D01*
X134667316Y-100974568D01*
X134540629Y-101107138D01*
X134414743Y-101291680D01*
X134320688Y-101494305D01*
X134260989Y-101709570D01*
X134237251Y-101931695D01*
X134237548Y-101936848D01*
X134237548Y-101936851D01*
X134243011Y-102031590D01*
X134250110Y-102154715D01*
X134251247Y-102159761D01*
X134251248Y-102159767D01*
X134271119Y-102247939D01*
X134299222Y-102372639D01*
X134383266Y-102579616D01*
X134499987Y-102770088D01*
X134646250Y-102938938D01*
X134795985Y-103063250D01*
X134835620Y-103122152D01*
X134841500Y-103160194D01*
X134841500Y-110540500D01*
X134821498Y-110608621D01*
X134767842Y-110655114D01*
X134715500Y-110666500D01*
X134701866Y-110666500D01*
X134639684Y-110673255D01*
X134503295Y-110724385D01*
X134386739Y-110811739D01*
X134299385Y-110928295D01*
X134248255Y-111064684D01*
X134241500Y-111126866D01*
X134241500Y-112923134D01*
X134248255Y-112985316D01*
X134299385Y-113121705D01*
X134386739Y-113238261D01*
X134503295Y-113325615D01*
X134511704Y-113328767D01*
X134511705Y-113328768D01*
X134620451Y-113369535D01*
X134677216Y-113412176D01*
X134701916Y-113478738D01*
X134686709Y-113548087D01*
X134667316Y-113574568D01*
X134540629Y-113707138D01*
X134414743Y-113891680D01*
X134320688Y-114094305D01*
X134260989Y-114309570D01*
X134237251Y-114531695D01*
X109940372Y-114531695D01*
X105781912Y-82398134D01*
X113116500Y-82398134D01*
X113123255Y-82460316D01*
X113174385Y-82596705D01*
X113261739Y-82713261D01*
X113378295Y-82800615D01*
X113514684Y-82851745D01*
X113576866Y-82858500D01*
X115373134Y-82858500D01*
X115435316Y-82851745D01*
X115571705Y-82800615D01*
X115688261Y-82713261D01*
X115775615Y-82596705D01*
X115819798Y-82478848D01*
X115862440Y-82422084D01*
X115929001Y-82397384D01*
X115998350Y-82412592D01*
X116033017Y-82440580D01*
X116058218Y-82469673D01*
X116065580Y-82476883D01*
X116229434Y-82612916D01*
X116237881Y-82618831D01*
X116421756Y-82726279D01*
X116431042Y-82730729D01*
X116630001Y-82806703D01*
X116639899Y-82809579D01*
X116743250Y-82830606D01*
X116757299Y-82829410D01*
X116761000Y-82819065D01*
X116761000Y-82818517D01*
X117269000Y-82818517D01*
X117273064Y-82832359D01*
X117286478Y-82834393D01*
X117293184Y-82833534D01*
X117303262Y-82831392D01*
X117507255Y-82770191D01*
X117516842Y-82766433D01*
X117708095Y-82672739D01*
X117716945Y-82667464D01*
X117890328Y-82543792D01*
X117898200Y-82537139D01*
X118049052Y-82386812D01*
X118055730Y-82378965D01*
X118180003Y-82206020D01*
X118185313Y-82197183D01*
X118279670Y-82006267D01*
X118283469Y-81996672D01*
X118345377Y-81792910D01*
X118347555Y-81782837D01*
X118348986Y-81771962D01*
X118346775Y-81757778D01*
X118333617Y-81754000D01*
X117287115Y-81754000D01*
X117271876Y-81758475D01*
X117270671Y-81759865D01*
X117269000Y-81767548D01*
X117269000Y-82818517D01*
X116761000Y-82818517D01*
X116761000Y-81227885D01*
X117269000Y-81227885D01*
X117273475Y-81243124D01*
X117274865Y-81244329D01*
X117282548Y-81246000D01*
X118333344Y-81246000D01*
X118346875Y-81242027D01*
X118348180Y-81232947D01*
X118306214Y-81065875D01*
X118302894Y-81056124D01*
X118217972Y-80860814D01*
X118213105Y-80851739D01*
X118097426Y-80672926D01*
X118091136Y-80664757D01*
X117947806Y-80507240D01*
X117940273Y-80500215D01*
X117773139Y-80368222D01*
X117764552Y-80362517D01*
X117578117Y-80259599D01*
X117568705Y-80255369D01*
X117367959Y-80184280D01*
X117357988Y-80181646D01*
X117286837Y-80168972D01*
X117273540Y-80170432D01*
X117269000Y-80184989D01*
X117269000Y-81227885D01*
X116761000Y-81227885D01*
X116761000Y-80183102D01*
X116757082Y-80169758D01*
X116742806Y-80167771D01*
X116704324Y-80173660D01*
X116694288Y-80176051D01*
X116491868Y-80242212D01*
X116482359Y-80246209D01*
X116293463Y-80344542D01*
X116284738Y-80350036D01*
X116114433Y-80477905D01*
X116106726Y-80484748D01*
X116029478Y-80565584D01*
X115967954Y-80601014D01*
X115897042Y-80597557D01*
X115839255Y-80556311D01*
X115820402Y-80522763D01*
X115778767Y-80411703D01*
X115775615Y-80403295D01*
X115688261Y-80286739D01*
X115571705Y-80199385D01*
X115435316Y-80148255D01*
X115373134Y-80141500D01*
X113576866Y-80141500D01*
X113514684Y-80148255D01*
X113378295Y-80199385D01*
X113261739Y-80286739D01*
X113174385Y-80403295D01*
X113123255Y-80539684D01*
X113116500Y-80601866D01*
X113116500Y-82398134D01*
X105781912Y-82398134D01*
X103433330Y-64250000D01*
X123236654Y-64250000D01*
X123256017Y-64545426D01*
X123313776Y-64835797D01*
X123408941Y-65116145D01*
X123539885Y-65381673D01*
X123704367Y-65627838D01*
X123707081Y-65630932D01*
X123707085Y-65630938D01*
X123896864Y-65847338D01*
X123899573Y-65850427D01*
X123902662Y-65853136D01*
X124119062Y-66042915D01*
X124119068Y-66042919D01*
X124122162Y-66045633D01*
X124125588Y-66047922D01*
X124125593Y-66047926D01*
X124309405Y-66170744D01*
X124368327Y-66210115D01*
X124372026Y-66211939D01*
X124372031Y-66211942D01*
X124508313Y-66279148D01*
X124633855Y-66341059D01*
X124637760Y-66342384D01*
X124637761Y-66342385D01*
X124910290Y-66434896D01*
X124910294Y-66434897D01*
X124914203Y-66436224D01*
X124918247Y-66437028D01*
X124918253Y-66437030D01*
X125200535Y-66493180D01*
X125200541Y-66493181D01*
X125204574Y-66493983D01*
X125208679Y-66494252D01*
X125208686Y-66494253D01*
X125495881Y-66513076D01*
X125500000Y-66513346D01*
X125504119Y-66513076D01*
X125791314Y-66494253D01*
X125791321Y-66494252D01*
X125795426Y-66493983D01*
X125799459Y-66493181D01*
X125799465Y-66493180D01*
X126081747Y-66437030D01*
X126081753Y-66437028D01*
X126085797Y-66436224D01*
X126089706Y-66434897D01*
X126089710Y-66434896D01*
X126362239Y-66342385D01*
X126362240Y-66342384D01*
X126366145Y-66341059D01*
X126491687Y-66279148D01*
X126627969Y-66211942D01*
X126627974Y-66211939D01*
X126631673Y-66210115D01*
X126690595Y-66170744D01*
X126874407Y-66047926D01*
X126874412Y-66047922D01*
X126877838Y-66045633D01*
X126880932Y-66042919D01*
X126880938Y-66042915D01*
X127097338Y-65853136D01*
X127100427Y-65850427D01*
X127103136Y-65847338D01*
X127292915Y-65630938D01*
X127292919Y-65630932D01*
X127295633Y-65627838D01*
X127460115Y-65381673D01*
X127591059Y-65116145D01*
X127686224Y-64835797D01*
X127743983Y-64545426D01*
X127763346Y-64250000D01*
X127743983Y-63954574D01*
X127686224Y-63664203D01*
X127591059Y-63383855D01*
X127460115Y-63118327D01*
X127295633Y-62872162D01*
X127292919Y-62869068D01*
X127292915Y-62869062D01*
X127103136Y-62652662D01*
X127100427Y-62649573D01*
X127097338Y-62646864D01*
X126880938Y-62457085D01*
X126880932Y-62457081D01*
X126877838Y-62454367D01*
X126874412Y-62452078D01*
X126874407Y-62452074D01*
X126635106Y-62292179D01*
X126631673Y-62289885D01*
X126627974Y-62288061D01*
X126627969Y-62288058D01*
X126491687Y-62220852D01*
X126366145Y-62158941D01*
X126362239Y-62157615D01*
X126089710Y-62065104D01*
X126089706Y-62065103D01*
X126085797Y-62063776D01*
X126081753Y-62062972D01*
X126081747Y-62062970D01*
X125799465Y-62006820D01*
X125799459Y-62006819D01*
X125795426Y-62006017D01*
X125791321Y-62005748D01*
X125791314Y-62005747D01*
X125504119Y-61986924D01*
X125500000Y-61986654D01*
X125495881Y-61986924D01*
X125208686Y-62005747D01*
X125208679Y-62005748D01*
X125204574Y-62006017D01*
X125200541Y-62006819D01*
X125200535Y-62006820D01*
X124918253Y-62062970D01*
X124918247Y-62062972D01*
X124914203Y-62063776D01*
X124910294Y-62065103D01*
X124910290Y-62065104D01*
X124637761Y-62157615D01*
X124633855Y-62158941D01*
X124508313Y-62220852D01*
X124372031Y-62288058D01*
X124372026Y-62288061D01*
X124368327Y-62289885D01*
X124364894Y-62292179D01*
X124125593Y-62452074D01*
X124125588Y-62452078D01*
X124122162Y-62454367D01*
X124119068Y-62457081D01*
X124119062Y-62457085D01*
X123902662Y-62646864D01*
X123899573Y-62649573D01*
X123896864Y-62652662D01*
X123707085Y-62869062D01*
X123707081Y-62869068D01*
X123704367Y-62872162D01*
X123539885Y-63118327D01*
X123408941Y-63383855D01*
X123313776Y-63664203D01*
X123256017Y-63954574D01*
X123236654Y-64250000D01*
X103433330Y-64250000D01*
X103096946Y-61650671D01*
X103108040Y-61580547D01*
X103155285Y-61527552D01*
X103221904Y-61508500D01*
X138894072Y-61508500D01*
X138962193Y-61528502D01*
G37*
G04 #@! TD.AperFunction*
M02*
