G04 #@! TF.GenerationSoftware,KiCad,Pcbnew,6.0.11-2627ca5db0~126~ubuntu22.04.1*
G04 #@! TF.CreationDate,2023-11-05T13:12:04+01:00*
G04 #@! TF.ProjectId,CC_LED_Driver,43435f4c-4544-45f4-9472-697665722e6b,rev?*
G04 #@! TF.SameCoordinates,Original*
G04 #@! TF.FileFunction,Legend,Bot*
G04 #@! TF.FilePolarity,Positive*
%FSLAX46Y46*%
G04 Gerber Fmt 4.6, Leading zero omitted, Abs format (unit mm)*
G04 Created by KiCad (PCBNEW 6.0.11-2627ca5db0~126~ubuntu22.04.1) date 2023-11-05 13:12:04*
%MOMM*%
%LPD*%
G01*
G04 APERTURE LIST*
%ADD10C,0.150000*%
%ADD11R,1.700000X1.700000*%
%ADD12O,1.700000X1.700000*%
G04 APERTURE END LIST*
D10*
X113342380Y-86190476D02*
X114342380Y-85857142D01*
X113342380Y-85523809D01*
X114294761Y-84761904D02*
X114342380Y-84857142D01*
X114342380Y-85047619D01*
X114294761Y-85142857D01*
X114247142Y-85190476D01*
X114151904Y-85238095D01*
X113866190Y-85238095D01*
X113770952Y-85190476D01*
X113723333Y-85142857D01*
X113675714Y-85047619D01*
X113675714Y-84857142D01*
X113723333Y-84761904D01*
X114294761Y-83904761D02*
X114342380Y-84000000D01*
X114342380Y-84190476D01*
X114294761Y-84285714D01*
X114247142Y-84333333D01*
X114151904Y-84380952D01*
X113866190Y-84380952D01*
X113770952Y-84333333D01*
X113723333Y-84285714D01*
X113675714Y-84190476D01*
X113675714Y-84000000D01*
X113723333Y-83904761D01*
X116610000Y-85761904D02*
X116562380Y-85857142D01*
X116562380Y-86000000D01*
X116610000Y-86142857D01*
X116705238Y-86238095D01*
X116800476Y-86285714D01*
X116990952Y-86333333D01*
X117133809Y-86333333D01*
X117324285Y-86285714D01*
X117419523Y-86238095D01*
X117514761Y-86142857D01*
X117562380Y-86000000D01*
X117562380Y-85904761D01*
X117514761Y-85761904D01*
X117467142Y-85714285D01*
X117133809Y-85714285D01*
X117133809Y-85904761D01*
X117562380Y-85285714D02*
X116562380Y-85285714D01*
X117562380Y-84714285D01*
X116562380Y-84714285D01*
X117562380Y-84238095D02*
X116562380Y-84238095D01*
X116562380Y-84000000D01*
X116610000Y-83857142D01*
X116705238Y-83761904D01*
X116800476Y-83714285D01*
X116990952Y-83666666D01*
X117133809Y-83666666D01*
X117324285Y-83714285D01*
X117419523Y-83761904D01*
X117514761Y-83857142D01*
X117562380Y-84000000D01*
X117562380Y-84238095D01*
X120610000Y-130238095D02*
X120657619Y-130142857D01*
X120657619Y-130000000D01*
X120610000Y-129857142D01*
X120514761Y-129761904D01*
X120419523Y-129714285D01*
X120229047Y-129666666D01*
X120086190Y-129666666D01*
X119895714Y-129714285D01*
X119800476Y-129761904D01*
X119705238Y-129857142D01*
X119657619Y-130000000D01*
X119657619Y-130095238D01*
X119705238Y-130238095D01*
X119752857Y-130285714D01*
X120086190Y-130285714D01*
X120086190Y-130095238D01*
X119657619Y-130714285D02*
X120657619Y-130714285D01*
X119657619Y-131285714D01*
X120657619Y-131285714D01*
X119657619Y-131761904D02*
X120657619Y-131761904D01*
X120657619Y-132000000D01*
X120610000Y-132142857D01*
X120514761Y-132238095D01*
X120419523Y-132285714D01*
X120229047Y-132333333D01*
X120086190Y-132333333D01*
X119895714Y-132285714D01*
X119800476Y-132238095D01*
X119705238Y-132142857D01*
X119657619Y-132000000D01*
X119657619Y-131761904D01*
X117437619Y-129809523D02*
X116437619Y-130142857D01*
X117437619Y-130476190D01*
X116485238Y-131238095D02*
X116437619Y-131142857D01*
X116437619Y-130952380D01*
X116485238Y-130857142D01*
X116532857Y-130809523D01*
X116628095Y-130761904D01*
X116913809Y-130761904D01*
X117009047Y-130809523D01*
X117056666Y-130857142D01*
X117104285Y-130952380D01*
X117104285Y-131142857D01*
X117056666Y-131238095D01*
X116485238Y-132095238D02*
X116437619Y-132000000D01*
X116437619Y-131809523D01*
X116485238Y-131714285D01*
X116532857Y-131666666D01*
X116628095Y-131619047D01*
X116913809Y-131619047D01*
X117009047Y-131666666D01*
X117056666Y-131714285D01*
X117104285Y-131809523D01*
X117104285Y-132000000D01*
X117056666Y-132095238D01*
%LPC*%
D11*
X135600000Y-112025000D03*
D12*
X135600000Y-114565000D03*
D11*
X114475000Y-81500000D03*
D12*
X117015000Y-81500000D03*
D11*
X120000000Y-134875000D03*
D12*
X117460000Y-134875000D03*
D11*
X135600000Y-71525000D03*
D12*
X135600000Y-74065000D03*
D11*
X135600000Y-99425000D03*
D12*
X135600000Y-101965000D03*
M02*
