%TF.GenerationSoftware,KiCad,Pcbnew,6.0.11-2627ca5db0~126~ubuntu22.04.1*%
%TF.CreationDate,2023-11-05T13:13:33+01:00*%
%TF.ProjectId,CC_LED_Driver,43435f4c-4544-45f4-9472-697665722e6b,rev?*%
%TF.SameCoordinates,Original*%
%TF.FileFunction,Drillmap*%
%TF.FilePolarity,Positive*%
%FSLAX45Y45*%
G04 Gerber Fmt 4.5, Leading zero omitted, Abs format (unit mm)*
G04 Created by KiCad (PCBNEW 6.0.11-2627ca5db0~126~ubuntu22.04.1) date 2023-11-05 13:13:33*
%MOMM*%
%LPD*%
G01*
G04 APERTURE LIST*
%ADD10C,0.100000*%
%ADD11C,0.200000*%
G04 APERTURE END LIST*
D10*
X11350000Y-14600000D02*
X10250000Y-6100000D01*
X12725000Y-6425000D02*
G75*
G03*
X12725000Y-6425000I-175000J0D01*
G01*
X14850000Y-6100000D02*
X10250000Y-6100000D01*
X13750000Y-14600000D02*
X14850000Y-6100000D01*
X12725000Y-14275000D02*
G75*
G03*
X12725000Y-14275000I-175000J0D01*
G01*
X11350000Y-14600000D02*
X13750000Y-14600000D01*
D11*
X10502619Y-14915476D02*
X10502619Y-14715476D01*
X10550238Y-14715476D01*
X10578810Y-14725000D01*
X10597857Y-14744048D01*
X10607381Y-14763095D01*
X10616905Y-14801190D01*
X10616905Y-14829762D01*
X10607381Y-14867857D01*
X10597857Y-14886905D01*
X10578810Y-14905952D01*
X10550238Y-14915476D01*
X10502619Y-14915476D01*
X10702619Y-14915476D02*
X10702619Y-14782143D01*
X10702619Y-14820238D02*
X10712143Y-14801190D01*
X10721667Y-14791667D01*
X10740714Y-14782143D01*
X10759762Y-14782143D01*
X10826429Y-14915476D02*
X10826429Y-14782143D01*
X10826429Y-14715476D02*
X10816905Y-14725000D01*
X10826429Y-14734524D01*
X10835952Y-14725000D01*
X10826429Y-14715476D01*
X10826429Y-14734524D01*
X10950238Y-14915476D02*
X10931190Y-14905952D01*
X10921667Y-14886905D01*
X10921667Y-14715476D01*
X11055000Y-14915476D02*
X11035952Y-14905952D01*
X11026429Y-14886905D01*
X11026429Y-14715476D01*
X11283571Y-14915476D02*
X11283571Y-14715476D01*
X11350238Y-14858333D01*
X11416905Y-14715476D01*
X11416905Y-14915476D01*
X11597857Y-14915476D02*
X11597857Y-14810714D01*
X11588333Y-14791667D01*
X11569286Y-14782143D01*
X11531190Y-14782143D01*
X11512143Y-14791667D01*
X11597857Y-14905952D02*
X11578809Y-14915476D01*
X11531190Y-14915476D01*
X11512143Y-14905952D01*
X11502619Y-14886905D01*
X11502619Y-14867857D01*
X11512143Y-14848809D01*
X11531190Y-14839286D01*
X11578809Y-14839286D01*
X11597857Y-14829762D01*
X11693095Y-14782143D02*
X11693095Y-14982143D01*
X11693095Y-14791667D02*
X11712143Y-14782143D01*
X11750238Y-14782143D01*
X11769286Y-14791667D01*
X11778809Y-14801190D01*
X11788333Y-14820238D01*
X11788333Y-14877381D01*
X11778809Y-14896428D01*
X11769286Y-14905952D01*
X11750238Y-14915476D01*
X11712143Y-14915476D01*
X11693095Y-14905952D01*
X11874048Y-14896428D02*
X11883571Y-14905952D01*
X11874048Y-14915476D01*
X11864524Y-14905952D01*
X11874048Y-14896428D01*
X11874048Y-14915476D01*
X11874048Y-14791667D02*
X11883571Y-14801190D01*
X11874048Y-14810714D01*
X11864524Y-14801190D01*
X11874048Y-14791667D01*
X11874048Y-14810714D01*
M02*
